<?xml version="1.0" encoding="utf-8"?>
<!-- Generator: Adobe Illustrator 25.2.1, SVG Export Plug-In . SVG Version: 6.00 Build 0)  -->
<svg version="1.1" id="Ebene_1" xmlns="http://www.w3.org/2000/svg" xmlns:xlink="http://www.w3.org/1999/xlink" x="0px" y="0px"
	 viewBox="0 0 408.01 123.56" style="enable-background:new 0 0 408.01 123.56;" xml:space="preserve">
<style type="text/css">
	.st0{fill:#FFFFFF;}
</style>
<g>
	<path class="st0" d="M293.8,79.05c0,10.64-8.01,19.3-18.93,19.3l-1.13,7.37h1.13c14.4,0,25.69-12.06,25.69-26.67H293.8z"/>
	<path class="st0" d="M300.55,65.9c-4.7-0.26-10.56,3.1-9.56,13.15h-7.51c0-10.74,4.74-18.3,17.78-17.75L300.55,65.9z M264.18,65.9
		c4.7-0.26,10.56,3.1,9.56,13.15h7.51c0-10.74-4.74-18.3-17.78-17.75L264.18,65.9z M173.8,100.95c0,1.94,2.13,2.47,3.99,2.47
		c1.97,0,3.99-0.68,3.99-2.54c0-1.37-1.18-2.13-5.96-2.54C174.44,99.17,173.8,100,173.8,100.95z M177.82,82.01
		c-1.56,0-2.81,1.21-2.81,2.73c0,1.48,1.06,2.77,2.81,2.77c1.59,0,2.77-1.25,2.77-2.77C180.59,83.3,179.34,82.01,177.82,82.01z
		 M189.21,83.45l-3.68-0.23c0.42,0.8,0.76,1.63,0.76,2.51c0,3.95-4.4,5.66-8.01,5.66c-1.18,0-2.62-0.15-2.73-0.15
		c-0.11,0-0.49,0.46-0.49,0.91c0,0.76,0.84,1.03,2.24,1.14c4.44,0.38,10.63,1.06,10.63,6.76c0,5.58-5.88,7.71-10.67,7.71
		c-3.61,0-9.6-0.65-9.6-5.47c0-1.9,1.56-3.49,4.1-4.56v-0.08c-2.73-0.57-3.76-1.52-3.76-3c0-2.28,2.92-3.87,4.78-4.48
		c-2.16-1.18-3.45-2.7-3.45-5.2c0-4.78,4.25-6.61,8.47-6.61c1.59,0,3.68,0.27,5.09,1.06l6.34-0.38V83.45z M198.35,98.18l0.11-11.05
		c0-0.38,1.71-2.24,3.91-2.24c0.99,0,1.71,0.19,2.35,0.38l0.87-6.53c-0.68-0.15-1.44-0.23-2.16-0.23c-2.58,0-3.87,1.59-4.86,3.23
		h-0.08v-2.7h-6.61l-0.15,19.13H198.35z M206.99,81.55c3.3-2.01,6.26-3.19,10.17-3.19c3.53,0,5.85,1.75,5.85,5.39v9.26
		c0,0.72,0.27,1.29,1.1,1.29c0.3,0,0.61-0.08,0.8-0.23l0.72,3.61c-0.87,0.68-3.95,1.18-5.09,1.18c-1.78,0-3-0.68-3.26-2.09
		c-1.48,1.18-3.53,2.09-5.54,2.09c-3.46,0-6-2.05-6-5.5c0-3.95,2.2-5.43,6.3-6.49c1.18-0.3,3.04-0.61,4.82-0.76v-0.72
		c0-1.52-0.87-2.24-2.13-2.24c-2.01,0-3.8,1.21-5.5,2.09L206.99,81.55z M216.86,89.37c-0.27,0.04-0.61,0.11-1.14,0.15
		c-1.67,0.11-3.83,0.95-3.83,3.07c0,1.29,1.25,1.94,2.32,1.94c1.33,0,2.66-0.83,2.66-1.25V89.37z M239.75,91.42
		c-0.87,0.84-2.39,1.75-3.45,1.75c-1.97,0-2.39-1.22-2.39-2.77c0-3.95,0.04-7.67,0.08-11.35h-6.61c-0.04,4.21-0.08,8.43-0.08,12.34
		c0,5.24,2.2,7.48,6.26,7.48c2.35,0,4.67-1.29,6.19-2.77v2.09h6.61l0.15-19.13h-6.61L239.75,91.42z M250.63,69.71h6.61l-0.11,10.44
		c1.18-1.06,3.3-1.78,5.05-1.78c5.81,0,8.73,5.01,8.73,9.68c0,5.96-3.57,10.82-9.72,10.82c-2.01,0-3.61-0.65-4.48-1.56h-0.08v0.87
		h-6.19L250.63,69.71z M256.78,93.02c0.68,0.76,2.09,1.06,3.08,1.06c3.07,0,4.44-2.47,4.44-5.39c0-2.58-0.99-4.86-3.95-4.86
		c-1.25,0-2.47,0.53-3.42,1.33L256.78,93.02z M310.63,98.18l0.15-12.38c0.87-0.84,2.39-1.75,3.45-1.75c1.97,0,2.39,1.21,2.39,2.77
		c0,3.95-0.04,7.67-0.08,11.35h6.61c0.04-4.21,0.08-8.43,0.08-12.34c0-5.24-2.2-7.48-6.26-7.48c-2.35,0-4.67,1.29-6.19,2.77v-2.09
		h-6.61l-0.15,19.13H310.63z M377.3,98.18l0.15-12.38c0.87-0.84,2.39-1.75,3.45-1.75c1.97,0,2.39,1.21,2.39,2.77
		c0,3.95-0.04,7.67-0.08,11.35h6.61c0.04-4.21,0.08-8.43,0.08-12.34c0-5.24-2.2-7.48-6.26-7.48c-2.35,0-4.67,1.29-6.19,2.77v-2.09
		h-6.61l-0.15,19.13H377.3z M345.89,98.18h-6.26v-1.37c-1.37,1.1-3.45,2.05-5.35,2.05c-5.81,0-8.73-5.01-8.73-9.68
		c0-5.96,3.57-10.82,9.72-10.82c1.56,0,3.08,0.38,4.33,1.02l0.08-9.68h6.38L345.89,98.18z M339.66,84.21
		c-0.68-0.76-2.09-1.06-3.07-1.06c-3.08,0-4.44,2.47-4.44,5.39c0,2.58,0.99,4.86,3.95,4.86c1.25,0,2.47-0.53,3.42-1.33L339.66,84.21
		z M367.03,96.02c-2.24,1.9-5.66,2.85-8.69,2.85c-6.95,0-10.1-4.94-10.1-9.83c0-5.77,4.33-10.67,10.29-10.67
		c7.29,0,9.57,5.16,9.57,11.73h-13.25c0,1.48,0.95,3.99,4.59,3.99c2.32,0,3.61-0.68,5.39-1.9L367.03,96.02z M362.17,86.22
		c0-1.97-0.95-3.76-3.15-3.76c-2.09,0-3.68,1.86-4.1,3.76H362.17z"/>
</g>
<path class="st0" d="M17.1,43.4V17.41h13.36v2.93h-9.82v8.24H30v2.85h-9.35v9.01h9.82v2.96H17.1z"/>
<path class="st0" d="M46.51,43.4c0-1.08,0.08-2.77,0.31-3.89l-0.08-0.04c-1.08,2.58-3.43,4.27-6.43,4.27c-4.7,0-7.04-3.43-7.04-9.01
	c0-6.7,3.85-10.74,9.89-10.74c1.04,0,2.08,0.08,3.23,0.19v-6.16c-0.92-0.15-2.23-0.31-3.35-0.38v-2.08
	c1.92-0.23,4.58-0.38,6.81-0.27v25.37c0.92,0.15,2.23,0.31,3.35,0.39v2.08C51.29,43.36,48.63,43.51,46.51,43.4z M46.4,27.15
	c-1.15-0.27-2.31-0.42-3.39-0.42c-3.66,0-6.08,2.19-6.08,7.7c0,4.12,1.35,6.47,4.23,6.47c3.46,0,5.24-4.04,5.24-7.39V27.15z"/>
<path class="st0" d="M68.84,43.4c0-1.12,0.12-2.85,0.31-4.04h-0.08c-1.12,2.62-3.46,4.39-6.74,4.39c-4.39,0-5.74-2.73-5.74-6.12V27
	c-0.92-0.15-2.23-0.31-3.35-0.39v-2.08c2-0.23,4.66-0.39,6.78-0.27v12.32c0,2.69,0.77,4.31,3.27,4.31c3.16,0,5.47-3.23,5.47-7.47
	v-9.16h3.43v16.4c0.92,0.15,2.23,0.31,3.35,0.39v2.08C73.62,43.36,70.96,43.51,68.84,43.4z"/>
<path class="st0" d="M84.74,43.71c-4.58,0-8.39-2.19-8.39-9.24c0-6.16,3.16-10.51,9.32-10.51c1.73,0,3.39,0.31,4.7,0.81l-0.65,2.96
	c-1.19-0.5-2.77-0.89-4.35-0.89c-3.46,0-5.35,2.96-5.35,7.16c0,3.73,1.19,6.7,5.43,6.7c1.62,0,3.16-0.31,4.47-0.92l0.54,2.89
	C88.82,43.32,86.71,43.71,84.74,43.71z"/>
<path class="st0" d="M103.57,43.4c0-1.35,0-2.73,0.19-3.81h-0.08c-0.92,2.35-3.35,4.16-6.51,4.16s-5.31-1.96-5.31-5.04
	c0-4.12,4.27-6.7,11.51-6.7v-1.27c0-2.66-1.04-4.08-4.2-4.08c-1.81,0-4.12,0.58-5.66,1.42l-0.58-2.89c1.89-0.73,4.35-1.31,6.74-1.31
	c5.58,0,7.16,2.58,7.16,6.39v10.39c0.92,0.15,2.23,0.31,3.35,0.39v2.08C108.27,43.36,105.61,43.51,103.57,43.4z M103.38,34.43
	c-6.31,0-8.08,1.77-8.08,3.7c0,1.66,1.12,2.89,2.89,2.89c3.12,0,5.2-3.08,5.2-6.08V34.43z"/>
<path class="st0" d="M118.58,43.71c-3.93,0-5.12-1.62-5.12-5.74V26.96h-3.93v-2.69h3.93v-6.2l3.46-0.96v7.16h5.35v2.69h-5.35v9.78
	c0,3.16,0.62,4,2.73,4c0.89,0,1.73-0.12,2.43-0.31l0.35,2.85C121.32,43.55,119.82,43.71,118.58,43.71z"/>
<path class="st0" d="M127.12,43.4V27c-0.92-0.15-2.23-0.31-3.35-0.39v-2.08c1.92-0.23,4.58-0.39,6.81-0.27V43.4H127.12z
	 M128.85,20.45c-1.27,0-2.31-0.96-2.31-2.23s1.04-2.27,2.31-2.27c1.27,0,2.31,1,2.31,2.27C131.16,19.45,130.12,20.45,128.85,20.45z"
	/>
<path class="st0" d="M142.52,43.74c-5.2,0-8.58-3-8.58-9.74c0-5.62,3.54-10.09,9.32-10.09c4.89,0,8.62,2.69,8.62,9.59
	C151.87,39.28,148.18,43.74,142.52,43.74z M142.94,26.8c-2.73,0-5.39,2.12-5.39,6.85c0,4.62,1.89,7.16,5.39,7.16
	c2.85,0,5.31-2.23,5.31-7.12C148.26,29.35,146.48,26.8,142.94,26.8z"/>
<path class="st0" d="M168.43,43.4V31.08c0-2.69-0.73-4.31-3.27-4.31c-3.16,0-5.43,3.23-5.43,7.47v9.16h-3.46V27
	c-0.92-0.15-2.23-0.31-3.35-0.39v-2.08c1.92-0.23,4.58-0.39,6.7-0.27c0,1.12-0.08,2.89-0.31,4.04h0.08
	c1.12-2.62,3.46-4.39,6.74-4.39c4.39,0,5.77,2.73,5.77,6.12V43.4H168.43z"/>
<path class="st0" d="M194.15,43.4c0-1.35,0-2.73,0.19-3.81h-0.08c-0.92,2.35-3.35,4.16-6.51,4.16s-5.31-1.96-5.31-5.04
	c0-4.12,4.27-6.7,11.51-6.7v-1.27c0-2.66-1.04-4.08-4.2-4.08c-1.81,0-4.12,0.58-5.66,1.42l-0.58-2.89c1.89-0.73,4.35-1.31,6.74-1.31
	c5.58,0,7.16,2.58,7.16,6.39v10.39c0.92,0.15,2.23,0.31,3.35,0.39v2.08C198.84,43.36,196.19,43.51,194.15,43.4z M193.95,34.43
	c-6.31,0-8.08,1.77-8.08,3.7c0,1.66,1.12,2.89,2.89,2.89c3.12,0,5.2-3.08,5.2-6.08V34.43z"/>
<path class="st0" d="M216.44,43.4V31.08c0-2.69-0.73-4.31-3.27-4.31c-3.16,0-5.43,3.23-5.43,7.47v9.16h-3.46V27
	c-0.92-0.15-2.23-0.31-3.35-0.39v-2.08c1.92-0.23,4.58-0.39,6.7-0.27c0,1.12-0.08,2.89-0.31,4.04h0.08
	c1.12-2.62,3.46-4.39,6.74-4.39c4.39,0,5.77,2.73,5.77,6.12V43.4H216.44z"/>
<path class="st0" d="M236.36,43.4c0-1.08,0.08-2.77,0.31-3.89l-0.08-0.04c-1.08,2.58-3.43,4.27-6.43,4.27
	c-4.7,0-7.04-3.43-7.04-9.01c0-6.7,3.85-10.74,9.89-10.74c1.04,0,2.08,0.08,3.23,0.19v-6.16c-0.92-0.15-2.23-0.31-3.35-0.38v-2.08
	c1.92-0.23,4.58-0.38,6.81-0.27v25.37c0.92,0.15,2.23,0.31,3.35,0.39v2.08C241.14,43.36,238.48,43.51,236.36,43.4z M236.25,27.15
	c-1.15-0.27-2.31-0.42-3.39-0.42c-3.66,0-6.08,2.19-6.08,7.7c0,4.12,1.35,6.47,4.23,6.47c3.46,0,5.24-4.04,5.24-7.39V27.15z"/>
<path class="st0" d="M263.56,27.34c-4.23-0.81-6.16,2.23-6.16,8.35v7.7h-3.46V27c-0.92-0.15-2.23-0.31-3.35-0.39v-2.08
	c1.92-0.23,4.58-0.39,6.7-0.27c0,1.19-0.12,2.96-0.42,4.54h0.08c0.81-2.66,2.73-5.31,6.78-4.85L263.56,27.34z"/>
<path class="st0" d="M280.73,33.77h-12.51c-0.15,5,1.89,7.16,6.04,7.16c1.85,0,3.77-0.38,5.47-1.12l0.5,2.73
	c-1.92,0.77-4.23,1.19-6.62,1.19c-5.81,0-8.97-3.08-8.97-9.82c0-5.7,3.2-10.01,8.62-10.01c5.35,0,7.58,3.58,7.58,7.85
	C280.84,32.23,280.8,33,280.73,33.77z M273.03,26.54c-2.5,0-4.27,1.85-4.7,4.77h8.97C277.38,28.38,275.72,26.54,273.03,26.54z"/>
<path class="st0" d="M287.54,43.74c-1.46,0-3.04-0.15-4.23-0.5l0.31-3.08c1.23,0.5,2.81,0.77,4.23,0.77c2.46,0,4.16-1.12,4.16-2.93
	c0-4.31-8.89-1.62-8.89-8.35c0-3.27,2.54-5.74,7.62-5.74c1.16,0,2.54,0.15,3.7,0.38l-0.27,2.85c-1.12-0.35-2.46-0.58-3.73-0.58
	c-2.54,0-3.73,1.08-3.73,2.73c0,4.23,8.93,1.81,8.93,8.32C295.62,41.13,292.55,43.74,287.54,43.74z"/>
<path class="st0" d="M313.68,33.77h-12.51c-0.15,5,1.89,7.16,6.04,7.16c1.85,0,3.77-0.38,5.47-1.12l0.5,2.73
	c-1.92,0.77-4.23,1.19-6.62,1.19c-5.81,0-8.97-3.08-8.97-9.82c0-5.7,3.2-10.01,8.62-10.01c5.35,0,7.58,3.58,7.58,7.85
	C313.8,32.23,313.76,33,313.68,33.77z M305.98,26.54c-2.5,0-4.27,1.85-4.7,4.77h8.97C310.33,28.38,308.68,26.54,305.98,26.54z"/>
<path class="st0" d="M327.62,43.4c0-1.35,0-2.73,0.19-3.81h-0.08c-0.92,2.35-3.35,4.16-6.51,4.16s-5.31-1.96-5.31-5.04
	c0-4.12,4.27-6.7,11.51-6.7v-1.27c0-2.66-1.04-4.08-4.2-4.08c-1.81,0-4.12,0.58-5.66,1.42l-0.58-2.89c1.89-0.73,4.35-1.31,6.74-1.31
	c5.58,0,7.16,2.58,7.16,6.39v10.39c0.92,0.15,2.23,0.31,3.35,0.39v2.08C332.32,43.36,329.66,43.51,327.62,43.4z M327.43,34.43
	c-6.31,0-8.08,1.77-8.08,3.7c0,1.66,1.12,2.89,2.89,2.89c3.12,0,5.2-3.08,5.2-6.08V34.43z"/>
<path class="st0" d="M347.37,27.34c-4.23-0.81-6.16,2.23-6.16,8.35v7.7h-3.46V27c-0.92-0.15-2.23-0.31-3.35-0.39v-2.08
	c1.92-0.23,4.58-0.39,6.7-0.27c0,1.19-0.12,2.96-0.42,4.54h0.08c0.81-2.66,2.73-5.31,6.78-4.85L347.37,27.34z"/>
<path class="st0" d="M356.84,43.71c-4.58,0-8.39-2.19-8.39-9.24c0-6.16,3.16-10.51,9.32-10.51c1.73,0,3.39,0.31,4.7,0.81l-0.66,2.96
	c-1.19-0.5-2.77-0.89-4.35-0.89c-3.47,0-5.35,2.96-5.35,7.16c0,3.73,1.19,6.7,5.43,6.7c1.62,0,3.16-0.31,4.47-0.92l0.54,2.89
	C360.92,43.32,358.8,43.71,356.84,43.71z"/>
<path class="st0" d="M377.9,43.4V31.08c0-2.69-0.73-4.31-3.23-4.31c-3.16,0-5.47,3.23-5.47,7.47v9.16h-3.46V18.03
	c-0.92-0.15-2.23-0.31-3.35-0.38v-2.08c1.92-0.23,4.58-0.38,6.81-0.27v9.09c0,1.23-0.08,2.77-0.31,3.81l0.08,0.04
	c1.12-2.62,3.46-4.31,6.66-4.31c4.35,0,5.74,2.73,5.74,6.12V43.4H377.9z"/>
<path class="st0" d="M387.6,43.74c-1.31,0-2.39-1.08-2.39-2.39c0-1.31,1.08-2.39,2.39-2.39c1.35,0,2.39,1.08,2.39,2.39
	C389.99,42.67,388.95,43.74,387.6,43.74z"/>
<g>
</g>
<g>
</g>
<g>
</g>
<g>
</g>
<g>
</g>
<g>
</g>
</svg>
