<?xml version="1.0" encoding="utf-8"?>
<!-- Generator: Adobe Illustrator 25.2.1, SVG Export Plug-In . SVG Version: 6.00 Build 0)  -->
<svg version="1.1" id="Ebene_1" xmlns="http://www.w3.org/2000/svg" xmlns:xlink="http://www.w3.org/1999/xlink" x="0px" y="0px"
	 viewBox="0 0 654.22 79.55" style="enable-background:new 0 0 654.22 79.55;" xml:space="preserve">
<g>
	<path d="M531,35.01c0,10.64-8.01,19.3-18.93,19.3l-1.13,7.37h1.13c14.4,0,25.69-12.06,25.69-26.67H531z"/>
	<path d="M537.75,21.86c-4.7-0.26-10.56,3.1-9.56,13.15h-7.51c0-10.74,4.74-18.3,17.78-17.75L537.75,21.86z M501.38,21.86
		c4.7-0.26,10.56,3.1,9.56,13.15h7.51c0-10.74-4.74-18.3-17.78-17.75L501.38,21.86z M410.99,56.92c0,1.94,2.13,2.47,3.99,2.47
		c1.97,0,3.99-0.68,3.99-2.54c0-1.37-1.18-2.13-5.96-2.54C411.64,55.13,410.99,55.97,410.99,56.92z M415.02,37.97
		c-1.56,0-2.81,1.21-2.81,2.73c0,1.48,1.06,2.77,2.81,2.77c1.59,0,2.77-1.25,2.77-2.77C417.79,39.26,416.54,37.97,415.02,37.97z
		 M426.41,39.41l-3.68-0.23c0.42,0.8,0.76,1.63,0.76,2.51c0,3.95-4.4,5.66-8.01,5.66c-1.18,0-2.62-0.15-2.73-0.15
		c-0.11,0-0.49,0.46-0.49,0.91c0,0.76,0.84,1.03,2.24,1.14c4.44,0.38,10.63,1.06,10.63,6.76c0,5.58-5.88,7.71-10.67,7.71
		c-3.61,0-9.6-0.65-9.6-5.47c0-1.9,1.56-3.49,4.1-4.56v-0.08c-2.73-0.57-3.76-1.52-3.76-3c0-2.28,2.92-3.87,4.78-4.48
		c-2.16-1.18-3.45-2.7-3.45-5.2c0-4.78,4.25-6.61,8.47-6.61c1.59,0,3.68,0.27,5.09,1.06l6.34-0.38V39.41z M435.55,54.14l0.11-11.05
		c0-0.38,1.71-2.24,3.91-2.24c0.99,0,1.71,0.19,2.35,0.38l0.87-6.53c-0.68-0.15-1.44-0.23-2.16-0.23c-2.58,0-3.87,1.59-4.86,3.23
		h-0.08v-2.7h-6.61l-0.15,19.13H435.55z M444.19,37.52c3.3-2.01,6.26-3.19,10.17-3.19c3.53,0,5.85,1.75,5.85,5.39v9.26
		c0,0.72,0.27,1.29,1.1,1.29c0.3,0,0.61-0.08,0.8-0.23l0.72,3.61c-0.87,0.68-3.95,1.18-5.09,1.18c-1.78,0-3-0.68-3.26-2.09
		c-1.48,1.18-3.53,2.09-5.54,2.09c-3.46,0-6-2.05-6-5.5c0-3.95,2.2-5.43,6.3-6.49c1.18-0.3,3.04-0.61,4.82-0.76v-0.72
		c0-1.52-0.87-2.24-2.13-2.24c-2.01,0-3.8,1.21-5.5,2.09L444.19,37.52z M454.06,45.34c-0.27,0.04-0.61,0.11-1.14,0.15
		c-1.67,0.11-3.83,0.95-3.83,3.07c0,1.29,1.25,1.94,2.32,1.94c1.33,0,2.66-0.83,2.66-1.25V45.34z M476.95,47.39
		c-0.87,0.84-2.39,1.75-3.45,1.75c-1.97,0-2.39-1.21-2.39-2.77c0-3.95,0.04-7.67,0.08-11.35h-6.61c-0.04,4.21-0.08,8.43-0.08,12.34
		c0,5.24,2.2,7.48,6.26,7.48c2.35,0,4.67-1.29,6.19-2.77v2.09h6.61l0.15-19.13h-6.61L476.95,47.39z M487.83,25.67h6.61l-0.11,10.44
		c1.18-1.06,3.3-1.78,5.05-1.78c5.81,0,8.73,5.01,8.73,9.68c0,5.96-3.57,10.82-9.72,10.82c-2.01,0-3.61-0.65-4.48-1.56h-0.08v0.87
		h-6.19L487.83,25.67z M493.98,48.98c0.68,0.76,2.09,1.06,3.08,1.06c3.07,0,4.44-2.47,4.44-5.39c0-2.58-0.99-4.86-3.95-4.86
		c-1.25,0-2.47,0.53-3.42,1.33L493.98,48.98z M547.83,54.14l0.15-12.38c0.87-0.84,2.39-1.75,3.45-1.75c1.97,0,2.39,1.21,2.39,2.77
		c0,3.95-0.04,7.67-0.08,11.35h6.61c0.04-4.21,0.08-8.43,0.08-12.34c0-5.24-2.2-7.48-6.26-7.48c-2.35,0-4.67,1.29-6.19,2.77v-2.09
		h-6.61l-0.15,19.13H547.83z M614.5,54.14l0.15-12.38c0.87-0.84,2.39-1.75,3.45-1.75c1.97,0,2.39,1.21,2.39,2.77
		c0,3.95-0.04,7.67-0.08,11.35h6.61c0.04-4.21,0.08-8.43,0.08-12.34c0-5.24-2.2-7.48-6.26-7.48c-2.35,0-4.67,1.29-6.19,2.77v-2.09
		h-6.61l-0.15,19.13H614.5z M583.09,54.14h-6.26v-1.37c-1.37,1.1-3.45,2.05-5.35,2.05c-5.81,0-8.73-5.01-8.73-9.68
		c0-5.96,3.57-10.82,9.72-10.82c1.56,0,3.08,0.38,4.33,1.02l0.08-9.68h6.38L583.09,54.14z M576.86,40.17
		c-0.68-0.76-2.09-1.06-3.07-1.06c-3.08,0-4.44,2.47-4.44,5.39c0,2.58,0.99,4.86,3.95,4.86c1.25,0,2.47-0.53,3.42-1.33L576.86,40.17
		z M604.22,51.98c-2.24,1.9-5.66,2.85-8.69,2.85c-6.95,0-10.1-4.94-10.1-9.83c0-5.77,4.33-10.67,10.29-10.67
		c7.29,0,9.57,5.16,9.57,11.73h-13.25c0,1.48,0.95,3.99,4.59,3.99c2.32,0,3.61-0.68,5.39-1.9L604.22,51.98z M599.37,42.19
		c0-1.97-0.95-3.76-3.15-3.76c-2.09,0-3.68,1.86-4.1,3.76H599.37z"/>
</g>
<path d="M17.78,54.18V28.2h13.36v2.93h-9.82v8.24h9.35v2.85h-9.35v9.01h9.82v2.96H17.78z"/>
<path d="M47.19,54.18c0-1.08,0.08-2.77,0.31-3.89l-0.08-0.04C46.35,52.83,44,54.53,41,54.53c-4.7,0-7.04-3.43-7.04-9.01
	c0-6.7,3.85-10.74,9.89-10.74c1.04,0,2.08,0.08,3.23,0.19v-6.16c-0.92-0.15-2.23-0.31-3.35-0.38v-2.08
	c1.92-0.23,4.58-0.38,6.81-0.27v25.37c0.92,0.15,2.23,0.31,3.35,0.38v2.08C51.97,54.14,49.31,54.3,47.19,54.18z M47.08,37.94
	c-1.15-0.27-2.31-0.42-3.39-0.42c-3.66,0-6.08,2.19-6.08,7.7c0,4.12,1.35,6.47,4.23,6.47c3.46,0,5.24-4.04,5.24-7.39V37.94z"/>
<path d="M69.52,54.18c0-1.12,0.12-2.85,0.31-4.04h-0.08c-1.12,2.62-3.46,4.39-6.74,4.39c-4.39,0-5.74-2.73-5.74-6.12V37.78
	c-0.92-0.15-2.23-0.31-3.35-0.39v-2.08c2-0.23,4.66-0.39,6.78-0.27v12.32c0,2.7,0.77,4.31,3.27,4.31c3.16,0,5.47-3.23,5.47-7.47
	v-9.16h3.43v16.4c0.92,0.15,2.23,0.31,3.35,0.38v2.08C74.3,54.14,71.64,54.3,69.52,54.18z"/>
<path d="M85.42,54.49c-4.58,0-8.39-2.19-8.39-9.24c0-6.16,3.16-10.51,9.32-10.51c1.73,0,3.39,0.31,4.7,0.81l-0.65,2.96
	c-1.19-0.5-2.77-0.89-4.35-0.89c-3.46,0-5.35,2.96-5.35,7.16c0,3.73,1.19,6.7,5.43,6.7c1.62,0,3.16-0.31,4.47-0.92l0.54,2.89
	C89.5,54.1,87.39,54.49,85.42,54.49z"/>
<path d="M104.31,54.18c0-1.35,0-2.73,0.19-3.81h-0.08c-0.92,2.35-3.35,4.16-6.51,4.16s-5.31-1.96-5.31-5.04
	c0-4.12,4.27-6.7,11.51-6.7v-1.27c0-2.66-1.04-4.08-4.2-4.08c-1.81,0-4.12,0.58-5.66,1.42l-0.58-2.89c1.89-0.73,4.35-1.31,6.74-1.31
	c5.58,0,7.16,2.58,7.16,6.39v10.39c0.92,0.15,2.23,0.31,3.35,0.38v2.08C109,54.14,106.35,54.3,104.31,54.18z M104.11,45.21
	c-6.31,0-8.08,1.77-8.08,3.7c0,1.66,1.12,2.89,2.89,2.89c3.12,0,5.2-3.08,5.2-6.08V45.21z"/>
<path d="M119.6,54.49c-3.93,0-5.12-1.62-5.12-5.74V37.74h-3.93v-2.69h3.93v-6.2l3.46-0.96v7.16h5.35v2.69h-5.35v9.78
	c0,3.16,0.62,4,2.73,4c0.89,0,1.73-0.12,2.43-0.31l0.35,2.85C122.34,54.34,120.84,54.49,119.6,54.49z"/>
<path d="M127.86,54.18v-16.4c-0.92-0.15-2.23-0.31-3.35-0.39v-2.08c1.92-0.23,4.58-0.39,6.81-0.27v19.13H127.86z M129.59,31.24
	c-1.27,0-2.31-0.96-2.31-2.23s1.04-2.27,2.31-2.27c1.27,0,2.31,1,2.31,2.27C131.9,30.24,130.86,31.24,129.59,31.24z"/>
<path d="M143.26,54.53c-5.2,0-8.58-3-8.58-9.74c0-5.62,3.54-10.09,9.32-10.09c4.89,0,8.62,2.69,8.62,9.59
	C152.61,50.06,148.91,54.53,143.26,54.53z M143.68,37.59c-2.73,0-5.39,2.12-5.39,6.85c0,4.62,1.89,7.16,5.39,7.16
	c2.85,0,5.31-2.23,5.31-7.12C148.99,40.13,147.22,37.59,143.68,37.59z"/>
<path d="M169.17,54.18V41.86c0-2.69-0.73-4.31-3.27-4.31c-3.16,0-5.43,3.23-5.43,7.47v9.16H157v-16.4
	c-0.92-0.15-2.23-0.31-3.35-0.39v-2.08c1.92-0.23,4.58-0.39,6.7-0.27c0,1.12-0.08,2.89-0.31,4.04h0.08
	c1.12-2.62,3.46-4.39,6.74-4.39c4.39,0,5.77,2.73,5.77,6.12v13.36H169.17z"/>
<path d="M194.88,54.18c0-1.35,0-2.73,0.19-3.81H195c-0.92,2.35-3.35,4.16-6.51,4.16s-5.31-1.96-5.31-5.04c0-4.12,4.27-6.7,11.51-6.7
	v-1.27c0-2.66-1.04-4.08-4.2-4.08c-1.81,0-4.12,0.58-5.66,1.42l-0.58-2.89c1.89-0.73,4.35-1.31,6.74-1.31
	c5.58,0,7.16,2.58,7.16,6.39v10.39c0.92,0.15,2.23,0.31,3.35,0.38v2.08C199.58,54.14,196.92,54.3,194.88,54.18z M194.69,45.21
	c-6.31,0-8.08,1.77-8.08,3.7c0,1.66,1.12,2.89,2.89,2.89c3.12,0,5.2-3.08,5.2-6.08V45.21z"/>
<path d="M217.17,54.18V41.86c0-2.69-0.73-4.31-3.27-4.31c-3.16,0-5.43,3.23-5.43,7.47v9.16h-3.46v-16.4
	c-0.92-0.15-2.23-0.31-3.35-0.39v-2.08c1.92-0.23,4.58-0.39,6.7-0.27c0,1.12-0.08,2.89-0.31,4.04h0.08
	c1.12-2.62,3.46-4.39,6.74-4.39c4.39,0,5.77,2.73,5.77,6.12v13.36H217.17z"/>
<path d="M237.27,54.18c0-1.08,0.08-2.77,0.31-3.89l-0.08-0.04c-1.08,2.58-3.43,4.27-6.43,4.27c-4.7,0-7.04-3.43-7.04-9.01
	c0-6.7,3.85-10.74,9.89-10.74c1.04,0,2.08,0.08,3.23,0.19v-6.16c-0.92-0.15-2.23-0.31-3.35-0.38v-2.08
	c1.92-0.23,4.58-0.38,6.81-0.27v25.37c0.92,0.15,2.23,0.31,3.35,0.38v2.08C242.04,54.14,239.39,54.3,237.27,54.18z M237.15,37.94
	c-1.15-0.27-2.31-0.42-3.39-0.42c-3.66,0-6.08,2.19-6.08,7.7c0,4.12,1.35,6.47,4.23,6.47c3.46,0,5.24-4.04,5.24-7.39V37.94z"/>
<path d="M264.52,38.13c-4.23-0.81-6.16,2.23-6.16,8.35v7.7h-3.46v-16.4c-0.92-0.15-2.23-0.31-3.35-0.39v-2.08
	c1.92-0.23,4.58-0.39,6.7-0.27c0,1.19-0.12,2.96-0.42,4.54h0.08c0.81-2.66,2.73-5.31,6.78-4.85L264.52,38.13z"/>
<path d="M281.69,44.56h-12.51c-0.15,5,1.89,7.16,6.04,7.16c1.85,0,3.77-0.38,5.47-1.12l0.5,2.73c-1.92,0.77-4.23,1.19-6.62,1.19
	c-5.81,0-8.97-3.08-8.97-9.82c0-5.7,3.2-10.01,8.62-10.01c5.35,0,7.58,3.58,7.58,7.85C281.8,43.02,281.77,43.79,281.69,44.56z
	 M273.99,37.32c-2.5,0-4.27,1.85-4.7,4.77h8.97C278.34,39.17,276.68,37.32,273.99,37.32z"/>
<path d="M288.5,54.53c-1.46,0-3.04-0.15-4.23-0.5l0.31-3.08c1.23,0.5,2.81,0.77,4.23,0.77c2.46,0,4.16-1.12,4.16-2.93
	c0-4.31-8.89-1.62-8.89-8.35c0-3.27,2.54-5.74,7.62-5.74c1.16,0,2.54,0.15,3.7,0.38l-0.27,2.85c-1.12-0.35-2.46-0.58-3.73-0.58
	c-2.54,0-3.73,1.08-3.73,2.73c0,4.23,8.93,1.81,8.93,8.31C296.59,51.91,293.51,54.53,288.5,54.53z"/>
<path d="M314.76,44.56h-12.51c-0.15,5,1.89,7.16,6.04,7.16c1.85,0,3.77-0.38,5.47-1.12l0.5,2.73c-1.92,0.77-4.23,1.19-6.62,1.19
	c-5.81,0-8.97-3.08-8.97-9.82c0-5.7,3.2-10.01,8.62-10.01c5.35,0,7.58,3.58,7.58,7.85C314.87,43.02,314.84,43.79,314.76,44.56z
	 M307.06,37.32c-2.5,0-4.27,1.85-4.7,4.77h8.97C311.41,39.17,309.75,37.32,307.06,37.32z"/>
<path d="M328.7,54.18c0-1.35,0-2.73,0.19-3.81h-0.08c-0.92,2.35-3.35,4.16-6.51,4.16s-5.31-1.96-5.31-5.04
	c0-4.12,4.27-6.7,11.51-6.7v-1.27c0-2.66-1.04-4.08-4.2-4.08c-1.81,0-4.12,0.58-5.66,1.42l-0.58-2.89c1.89-0.73,4.35-1.31,6.74-1.31
	c5.58,0,7.16,2.58,7.16,6.39v10.39c0.92,0.15,2.23,0.31,3.35,0.38v2.08C333.39,54.14,330.74,54.3,328.7,54.18z M328.5,45.21
	c-6.31,0-8.08,1.77-8.08,3.7c0,1.66,1.12,2.89,2.89,2.89c3.12,0,5.2-3.08,5.2-6.08V45.21z"/>
<path d="M348.45,38.13c-4.23-0.81-6.16,2.23-6.16,8.35v7.7h-3.46v-16.4c-0.92-0.15-2.23-0.31-3.35-0.39v-2.08
	c1.92-0.23,4.58-0.39,6.7-0.27c0,1.19-0.12,2.96-0.42,4.54h0.08c0.81-2.66,2.73-5.31,6.78-4.85L348.45,38.13z"/>
<path d="M357.92,54.49c-4.58,0-8.39-2.19-8.39-9.24c0-6.16,3.16-10.51,9.32-10.51c1.73,0,3.39,0.31,4.7,0.81l-0.65,2.96
	c-1.19-0.5-2.77-0.89-4.35-0.89c-3.46,0-5.35,2.96-5.35,7.16c0,3.73,1.19,6.7,5.43,6.7c1.62,0,3.16-0.31,4.47-0.92l0.54,2.89
	C362,54.1,359.88,54.49,357.92,54.49z"/>
<path d="M378.98,54.18V41.86c0-2.69-0.73-4.31-3.23-4.31c-3.16,0-5.47,3.23-5.47,7.47v9.16h-3.46V28.81
	c-0.92-0.15-2.23-0.31-3.35-0.38v-2.08c1.92-0.23,4.58-0.38,6.81-0.27v9.09c0,1.23-0.08,2.77-0.31,3.81l0.08,0.04
	c1.12-2.62,3.46-4.31,6.66-4.31c4.35,0,5.74,2.73,5.74,6.12v13.36H378.98z"/>
<path d="M388.68,54.53c-1.31,0-2.39-1.08-2.39-2.39c0-1.31,1.08-2.39,2.39-2.39c1.35,0,2.39,1.08,2.39,2.39
	C391.06,53.45,390.03,54.53,388.68,54.53z"/>
<g>
</g>
<g>
</g>
<g>
</g>
<g>
</g>
<g>
</g>
<g>
</g>
</svg>
