<svg id="Ebene_1" data-name="Ebene 1" xmlns="http://www.w3.org/2000/svg" viewBox="0 0 800.85356 59.15602"><defs><style>.cls-1{fill-rule:evenodd;}</style></defs><path class="cls-1" d="M555.116,77.0328c0-1.2168.8272-2.2872,2.5791-3.3584,6.1304.5361,7.6382,1.5087,7.6382,3.2607,0,2.3848-2.5786,3.2598-5.1079,3.2598-2.3843,0-5.1094-.6817-5.1094-3.1621Zm5.1578-24.2779a3.59451,3.59451,0,0,1,3.5517,3.503,3.5099,3.5099,0,0,1-3.5517,3.5512,3.4615,3.4615,0,0,1-3.6001-3.5512,3.5407,3.5407,0,0,1,3.6001-3.503ZM574.869,48.96l-8.125.4863a14.28011,14.28011,0,0,0-6.5186-1.3623c-5.4009,0-10.8496,2.335-10.8496,8.4654,0,3.2109,1.6538,5.1582,4.4273,6.666-2.3843.7773-6.1309,2.8213-6.1309,5.7402,0,1.8984,1.3144,3.1143,4.8164,3.8438v.0966c-3.2588,1.3623-5.2539,3.4063-5.2539,5.8399,0,6.1777,7.687,7.0058,12.3086,7.0058,6.1308,0,13.6719-2.7246,13.6719-9.8769,0-7.2988-7.9302-8.1738-13.6231-8.6602-1.7998-.1465-2.8701-.4873-2.8701-1.4599a1.44063,1.44063,0,0,1,.6323-1.167c.146,0,1.9947.1933,3.5034.1933,4.6216,0,10.2652-2.1884,10.2652-7.2485a7.0442,7.0442,0,0,0-.9732-3.2109l4.7193.292V48.96Z" transform="translate(-31.22347 -26.58568)"/><path d="M578.118,73.48h8.4653l.146-14.1572c0-.4863,2.1885-2.8706,5.0108-2.8706a10.01712,10.01712,0,0,1,3.0166.4863l1.1186-8.3677a13.03228,13.03228,0,0,0-2.7724-.2924c-3.3086,0-4.9634,2.0434-6.2281,4.1357h-.0971V48.96h-8.4654l-.1943,24.52Z" transform="translate(-31.22347 -26.58568)"/><path class="cls-1" d="M600.534,56.8902c2.189-1.1192,4.4761-2.6758,7.0547-2.6758a2.54948,2.54948,0,0,1,2.7241,2.8701v.9248a41.263,41.263,0,0,0-6.1782.9727c-5.2554,1.3623-8.0772,3.2597-8.0772,8.3203,0,4.4267,3.2598,7.0537,7.688,7.0537a11.93927,11.93927,0,0,0,7.1026-2.6758c.3413,1.7998,1.8979,2.6758,4.1841,2.6758,1.4599,0,5.4008-.6318,6.5195-1.5088l-.9243-4.6211a1.694,1.694,0,0,1-1.0215.292c-1.0708,0-1.4116-.7305-1.4116-1.6533V54.9927c0-4.6709-2.9668-6.9087-7.4922-6.9087-5.0113,0-8.8057,1.5083-13.0386,4.0865l2.8706,4.7197Zm9.7788,10.3144c0,.5352-1.7026,1.6045-3.4057,1.6045-1.3619,0-2.9673-.8261-2.9673-2.4804,0-2.7247,2.7724-3.795,4.9135-3.9414.6812-.0479,1.1192-.1456,1.4595-.1944v5.0117Z" transform="translate(-31.22347 -26.58568)"/><path d="M639.63953,64.8208c-1.1197,1.0704-3.0655,2.2373-4.4273,2.2373-2.5302,0-3.0654-1.5566-3.0654-3.5517,0-5.0596.0488-9.8276.0977-14.5464h-8.4654c-.0488,5.4004-.0981,10.8003-.0981,15.811,0,6.7149,2.8218,9.585,8.0283,9.585a12.00307,12.00307,0,0,0,7.9302-3.5518V73.48h8.4653l.1948-24.52h-8.4653l-.1948,15.8608Z" transform="translate(-31.22347 -26.58568)"/><path class="cls-1" d="M653.348,73.48h7.9302V72.3619h.0976a7.97421,7.97421,0,0,0,5.7412,1.9941c7.8819,0,12.4546-6.2275,12.4546-13.8652,0-5.9844-3.7461-12.4068-11.1899-12.4068a10.55928,10.55928,0,0,0-6.4712,2.2866l.1469-13.3793h-8.4663L653.348,73.48Zm8.3193-16.687a6.93517,6.93517,0,0,1,4.3794-1.7031c3.7949,0,5.0596,2.9194,5.0596,6.227,0,3.7461-1.752,6.9092-5.6924,6.9092a5.73509,5.73509,0,0,1-3.9409-1.3613l.1943-10.0718Z" transform="translate(-31.22347 -26.58568)"/><path d="M722.01153,73.48h8.4654l.1948-15.8603c1.1196-1.0703,3.0649-2.2378,4.4277-2.2378,2.5293,0,3.0645,1.5566,3.0645,3.5512,0,5.0596-.0479,9.8282-.0967,14.5469h8.4658c.0479-5.4004.0967-10.8008.0967-15.8115,0-6.7139-2.8213-9.5845-8.0273-9.5845a12.0083,12.0083,0,0,0-7.9307,3.5513V48.96h-8.4653l-.1949,24.52Z" transform="translate(-31.22347 -26.58568)"/><path class="cls-1" d="M775.85923,36.9913h-8.1738l-.0977,12.4062a12.26922,12.26922,0,0,0-5.5469-1.3135c-7.8808,0-12.4541,6.2276-12.4541,13.8658,0,5.9843,3.7461,12.4062,11.1895,12.4062a12.01529,12.01529,0,0,0,6.8603-2.627V73.48h8.0274l.1953-36.4887ZM767.491,65.647a6.93,6.93,0,0,1-4.3789,1.7031c-3.7949,0-5.0595-2.9189-5.0595-6.2275,0-3.7461,1.7509-6.9082,5.6923-6.9082a5.73382,5.73382,0,0,1,3.9405,1.3618L767.491,65.647Z" transform="translate(-31.22347 -26.58568)"/><path class="cls-1" d="M799.93443,65.7925c-2.2871,1.5576-3.9414,2.4336-6.9092,2.4336-4.6709,0-5.8867-3.2109-5.8867-5.1094H804.118c0-8.416-2.919-15.0327-12.2598-15.0327-7.6386,0-13.1855,6.2764-13.1855,13.6704,0,6.2774,4.039,12.6016,12.9414,12.6016,3.8926,0,8.2715-1.2158,11.1416-3.6484l-2.8213-4.9151Zm-12.6982-7.6372c.5351-2.4331,2.5781-4.8169,5.2539-4.8169,2.8222,0,4.0381,2.2866,4.0381,4.8169Z" transform="translate(-31.22347 -26.58568)"/><path d="M807.45783,73.48h8.4659l.1953-15.8603c1.1191-1.0703,3.0644-2.2378,4.4267-2.2378,2.5303,0,3.0655,1.5566,3.0655,3.5512,0,5.0596-.0489,9.8282-.0977,14.5469h8.4658c.0479-5.4004.0977-10.8008.0977-15.8115,0-6.7139-2.8223-9.5845-8.0274-9.5845a12.004,12.004,0,0,0-7.9306,3.5513V48.96h-8.4658l-.1954,24.52Z" transform="translate(-31.22347 -26.58568)"/><path d="M683.203,83.4703l1.7319-.0254c18.3262,0,32.6328-16.4414,32.6328-34.2925h-8.6953c0,13.685-10.3062,24.8325-24.354,24.8325l-1.3154,9.4854Z" transform="translate(-31.22347 -26.58568)"/><path d="M718.46423,26.6216c-16.5288-.6997-22.5322,8.8941-22.5322,22.502h9.5249c-1.2583-12.7368,6.1587-16.999,12.1142-16.6685l.8931-5.8335Z" transform="translate(-31.22347 -26.58568)"/><path d="M670.33483,26.6216c16.5293-.6997,22.5322,8.8941,22.5322,22.502h-9.5244c1.2578-12.7368-6.1602-16.999-12.1152-16.6685l-.8926-5.8335Z" transform="translate(-31.22347 -26.58568)"/><path d="M31.22347,73.439V40.53129H47.79915v3.023H34.97738V54.962h12.188v3.023h-12.188v12.334H47.79915V73.439Z" transform="translate(-31.22347 -26.58568)"/><path d="M68.59505,73.439a31.93055,31.93055,0,0,1,.439-5.26562l-.09766-.04883a8.777,8.777,0,0,1-8.33643,5.75293c-5.99658,0-8.92187-4.3877-8.92187-11.457,0-8.62842,4.87549-13.50342,12.43164-13.50342,1.41406,0,2.82764.09717,4.48535.24365V40.77543c-1.16992-.19531-2.82763-.39014-4.2417-.48779v-2.0962a50.88321,50.88321,0,0,1,7.84912-.3413V70.51322c1.17041.19531,2.82764.39063,4.2417.48828v2.09571A50.8168,50.8168,0,0,1,68.59505,73.439Zm0-21.06054a20.63583,20.63583,0,0,0-4.77783-.58545c-4.97266,0-8.2876,3.02295-8.2876,10.33545,0,5.46,1.85254,8.72656,5.8501,8.72656,4.82666,0,7.21533-5.65527,7.21533-9.94531Z" transform="translate(-31.22347 -26.58568)"/><path d="M96.743,73.439a32.72131,32.72131,0,0,1,.439-5.36328l-.09766-.04883a9.052,9.052,0,0,1-8.67773,5.89942c-5.60645,0-7.3125-3.50977-7.3125-7.80078V52.13432c-1.17041-.19483-2.82764-.38965-4.2417-.48731V49.55082a52.37524,52.37524,0,0,1,7.898-.34131V64.90678c0,3.80273,1.02392,5.99707,4.58252,5.99707,4.33886,0,7.36181-4.29,7.36181-10.043V49.20951h3.65625V70.51322c1.16992.19531,2.82764.39063,4.24121.48828v2.09571A50.814,50.814,0,0,1,96.743,73.439Z" transform="translate(-31.22347 -26.58568)"/><path d="M117.12972,73.731c-5.41162,0-10.48193-2.38868-10.48193-11.55372,0-7.94628,3.99756-13.30908,11.8955-13.30908a19.67738,19.67738,0,0,1,5.70411.82862l-.39014,3.21777a15.24634,15.24634,0,0,0-5.55762-1.07275c-5.21679,0-7.80029,3.85156-7.80029,9.70166,0,4.97265,1.56006,9.06738,7.41016,9.06738a14.18684,14.18684,0,0,0,6.09423-1.36524l.34082,3.169A20.48419,20.48419,0,0,1,117.12972,73.731Z" transform="translate(-31.22347 -26.58568)"/><path d="M142.63021,73.439a32.99043,32.99043,0,0,1,.24414-5.11914h-.09766a8.85952,8.85952,0,0,1-8.43408,5.55762c-3.85156,0-6.63037-2.04785-6.63037-5.89844,0-5.07031,5.26514-8.58056,14.72314-8.58056v-1.999c0-3.65625-1.3164-5.70361-5.50878-5.70361A14.71753,14.71753,0,0,0,129.516,53.792l-.34131-3.21777a20.48547,20.48547,0,0,1,8.38574-1.80371c6.67872,0,8.58008,3.31494,8.58008,7.898V70.51322c1.16992.19531,2.82764.39063,4.2417.48828v2.09571A50.65815,50.65815,0,0,1,142.63021,73.439Zm-.19483-11.35937c-9.1167,0-11.06689,2.876-11.06689,5.2168,0,2.19335,1.56006,3.60742,3.94922,3.60742,4.29,0,7.11767-4.24121,7.11767-8.43457Z" transform="translate(-31.22347 -26.58568)"/><path d="M161.43294,73.82865c-4.87549,0-6.28906-2.14453-6.28906-7.166V52.08549h-5.26514v-2.876h5.26514V41.16508l3.65625-1.02344v9.06787h7.11768v2.876h-7.11768V65.15092c0,4.33886.78027,5.46,3.65625,5.46a12.667,12.667,0,0,0,3.46143-.43848v3.169A21.46037,21.46037,0,0,1,161.43294,73.82865Z" transform="translate(-31.22347 -26.58568)"/><path d="M176.92464,73.439h-3.60742V52.13432c-1.16992-.19483-2.82764-.38965-4.24121-.48731V49.55082a50.87385,50.87385,0,0,1,7.84863-.34131Zm-1.80371-28.61718a2.46605,2.46605,0,0,1-2.48633-2.48633,2.51086,2.51086,0,1,1,2.48633,2.48633Z" transform="translate(-31.22347 -26.58568)"/><path d="M192.73958,73.87748c-6.48388,0-10.67675-3.94922-10.67675-12.43164,0-6.92236,4.29052-12.67529,11.55419-12.67529,5.89942,0,10.72559,3.2666,10.72559,12.13916C204.34261,68.12455,199.90609,73.87748,192.73958,73.87748ZM193.2762,51.793c-3.80273,0-7.41064,2.87646-7.41064,9.35986,0,6.19238,2.68164,9.60449,7.41064,9.60449,3.80225,0,7.26368-2.9248,7.26368-9.60449C200.53988,55.30326,198.10238,51.793,193.2762,51.793Z" transform="translate(-31.22347 -26.58568)"/><path d="M213.8138,54.57182l.09766.04882a9.05292,9.05292,0,0,1,8.67773-5.89892c5.55762,0,7.3125,3.51025,7.3125,7.80029V73.439h-3.65625V57.74076c0-3.80273-1.02392-5.99609-4.58252-5.99609-4.33886,0-7.41064,4.29-7.41064,10.042V73.439h-3.60742V52.13432c-1.16993-.19483-2.82764-.38965-4.24121-.48731V49.55082a50.87385,50.87385,0,0,1,7.84863-.34131A32.27312,32.27312,0,0,1,213.8138,54.57182Z" transform="translate(-31.22347 -26.58568)"/><path d="M262.31917,73.439a32.99043,32.99043,0,0,1,.24414-5.11914h-.09765a8.85952,8.85952,0,0,1-8.43408,5.55762c-3.85157,0-6.63038-2.04785-6.63038-5.89844,0-5.07031,5.26514-8.58056,14.72315-8.58056v-1.999c0-3.65625-1.31641-5.70361-5.50879-5.70361a14.71749,14.71749,0,0,0-7.41064,2.09619l-.34082-3.21777a20.48119,20.48119,0,0,1,8.38525-1.80371c6.67871,0,8.58008,3.31494,8.58008,7.898V70.51322c1.16992.19531,2.82763.39063,4.2417.48828v2.09571A50.65822,50.65822,0,0,1,262.31917,73.439Zm-.19482-11.35937c-9.1167,0-11.0669,2.876-11.0669,5.2168,0,2.19335,1.56006,3.60742,3.94922,3.60742,4.29,0,7.11768-4.24121,7.11768-8.43457Z" transform="translate(-31.22347 -26.58568)"/><path d="M277.95833,54.57182l.09766.04882a9.05292,9.05292,0,0,1,8.67773-5.89892c5.55713,0,7.313,3.51025,7.313,7.80029V73.439H290.39V57.74076c0-3.80273-1.02392-5.99609-4.58252-5.99609-4.33886,0-7.41064,4.29-7.41064,10.042V73.439h-3.60742V52.13432c-1.16992-.19483-2.82764-.38965-4.24121-.48731V49.55082a50.87385,50.87385,0,0,1,7.84863-.34131A32.27312,32.27312,0,0,1,277.95833,54.57182Z" transform="translate(-31.22347 -26.58568)"/><path d="M316.26546,73.439a31.93128,31.93128,0,0,1,.43946-5.26562l-.09766-.04883a8.77723,8.77723,0,0,1-8.33691,5.75293c-5.9961,0-8.9209-4.3877-8.9209-11.457,0-8.62842,4.875-13.50342,12.43164-13.50342,1.41308,0,2.82715.09717,4.48437.24365V40.77543c-1.16992-.19531-2.82715-.39014-4.24121-.48779v-2.0962a50.8896,50.8896,0,0,1,7.84961-.3413V70.51322c1.16992.19531,2.82715.39063,4.24121.48828v2.09571A50.82605,50.82605,0,0,1,316.26546,73.439Zm0-21.06054a20.6254,20.6254,0,0,0-4.77734-.58545c-4.97266,0-8.28809,3.02295-8.28809,10.33545,0,5.46,1.85254,8.72656,5.85059,8.72656,4.82617,0,7.21484-5.65527,7.21484-9.94531Z" transform="translate(-31.22347 -26.58568)"/><path d="M356.04476,73.439,344.05257,58.22855h-.14648V73.439h-3.75391V40.53129c2.09668-.09717,4.24121-.146,7.751-.146,6.19238,0,10.87207,2.145,10.87207,8.2876,0,5.85059-4.67969,9.06787-10.67676,9.312.92676,1.1211,2.04785,2.38867,2.87695,3.41211l9.896,12.042ZM347.075,43.35893a30.74587,30.74587,0,0,0-3.16894.14648V55.35209c.53613.04883,1.51074.09766,2.97363.09766,5.07031,0,7.99512-2.584,7.99512-6.24024C354.87484,44.919,352.14535,43.35893,347.075,43.35893Z" transform="translate(-31.22347 -26.58568)"/><path d="M382.32064,60.56791H366.13411c-.24316,7.26465,2.63282,10.28711,8.04493,10.28711a16.36275,16.36275,0,0,0,7.01953-1.56055l.34179,3.12012a21.06868,21.06868,0,0,1-7.99511,1.46289c-7.31348,0-11.21289-3.94922-11.21289-12.43164,0-7.26367,3.89941-12.67529,10.62793-12.67529,6.67871,0,9.457,4.63134,9.457,9.99414A13.24272,13.24272,0,0,1,382.32064,60.56791ZM372.765,51.54935c-3.41308,0-5.85058,2.48633-6.43554,6.28907h12.28515C378.71224,54.08451,376.47005,51.54935,372.765,51.54935Z" transform="translate(-31.22347 -26.58568)"/><path d="M391.86458,73.87748a27.29571,27.29571,0,0,1-5.11914-.4873l.09766-3.36426a20.66381,20.66381,0,0,0,5.41113.78027c3.51074,0,5.94824-1.56055,5.94824-4.09473,0-5.80175-11.79785-2.19433-11.79785-10.82324,0-4.04638,3.31446-7.11767,9.458-7.11767a26.03853,26.03853,0,0,1,4.72852.53613l-.09766,3.16894A16.17579,16.17579,0,0,0,395.472,51.647c-3.5586,0-5.31348,1.4624-5.31348,3.85156,0,5.80078,11.84668,2.48633,11.84668,10.72461C402.00521,70.51322,398.20247,73.87748,391.86458,73.87748Z" transform="translate(-31.22347 -26.58568)"/><path d="M425.76107,60.56791H409.57454c-.24316,7.26465,2.63282,10.28711,8.04493,10.28711a16.36275,16.36275,0,0,0,7.01953-1.56055l.34179,3.12012a21.06868,21.06868,0,0,1-7.99511,1.46289c-7.31348,0-11.21289-3.94922-11.21289-12.43164,0-7.26367,3.89941-12.67529,10.62793-12.67529,6.67871,0,9.457,4.63134,9.457,9.99414A13.24272,13.24272,0,0,1,425.76107,60.56791Zm-9.55567-9.01856c-3.41308,0-5.85058,2.48633-6.43554,6.28907H422.055C422.15267,54.08451,419.91048,51.54935,416.2054,51.54935Z" transform="translate(-31.22347 -26.58568)"/><path d="M444.04622,73.439a32.99043,32.99043,0,0,1,.24414-5.11914h-.09765a8.85971,8.85971,0,0,1-8.43457,5.55762c-3.85059,0-6.62988-2.04785-6.62988-5.89844,0-5.07031,5.26562-8.58056,14.72265-8.58056v-1.999c0-3.65625-1.31543-5.70361-5.50879-5.70361A14.71712,14.71712,0,0,0,430.932,53.792l-.34082-3.21777a20.48242,20.48242,0,0,1,8.38476-1.80371c6.67969,0,8.58106,3.31494,8.58106,7.898V70.51322c1.16992.19531,2.82714.39063,4.24121.48828v2.09571A50.66384,50.66384,0,0,1,444.04622,73.439Zm-.19531-11.35937c-9.11621,0-11.0664,2.876-11.0664,5.2168,0,2.19335,1.56054,3.60742,3.94921,3.60742,4.29,0,7.11719-4.24121,7.11719-8.43457Z" transform="translate(-31.22347 -26.58568)"/><path d="M459.53841,55.30326l.09766.04883c.97461-3.55908,3.46094-7.1665,8.58008-6.58154l-.19434,3.60791c-5.31445-.87793-7.89844,3.21728-7.89844,11.35839V73.439H456.516V52.13432c-1.16992-.19483-2.82715-.38965-4.24121-.48731V49.55082a50.871,50.871,0,0,1,7.84863-.34131A36.41641,36.41641,0,0,1,459.53841,55.30326Z" transform="translate(-31.22347 -26.58568)"/><path d="M480.40853,73.731c-5.41211,0-10.48145-2.38868-10.48145-11.55372,0-7.94628,3.99707-13.30908,11.89453-13.30908a19.67491,19.67491,0,0,1,5.70411.82862l-.38965,3.21777a15.24228,15.24228,0,0,0-5.55762-1.07275c-5.2168,0-7.80078,3.85156-7.80078,9.70166,0,4.97265,1.56055,9.06738,7.41113,9.06738a14.188,14.188,0,0,0,6.09375-1.36524l.34082,3.169A20.48423,20.48423,0,0,1,480.40853,73.731Z" transform="translate(-31.22347 -26.58568)"/><path d="M488.05111,40.28764v-2.0962a50.87665,50.87665,0,0,1,7.84863-.3413V49.69682a24.15143,24.15143,0,0,1-.38965,4.82666l.09766.04834a8.92869,8.92869,0,0,1,8.6289-5.8501c5.55762,0,7.3125,3.51025,7.3125,7.80029V73.439H507.8929V57.74076c0-3.80273-1.02343-5.99609-4.582-5.99609-4.33984,0-7.41113,4.29-7.41113,10.042V73.439h-3.60742V40.77543C491.1224,40.58012,489.46517,40.38529,488.05111,40.28764Z" transform="translate(-31.22347 -26.58568)"/><path d="M522.70736,71.19584a2.65686,2.65686,0,1,1-2.68067-2.63184A2.63247,2.63247,0,0,1,522.70736,71.19584Z" transform="translate(-31.22347 -26.58568)"/></svg>