<?xml version="1.0" encoding="UTF-8"?>
<svg id="Ebene_2" data-name="Ebene 2" xmlns="http://www.w3.org/2000/svg" viewBox="0 0 1190.25 317.25">
  <defs>
    <style>
      .cls-1 {
        fill: #817e65;
      }
    </style>
  </defs>
  <g id="Ebene_1-2" data-name="Ebene 1">
    <g>
      <path class="cls-1" d="M103.5,80.25h-16.5v16.5h16.5c4.5,0,8.25-3.75,8.25-8.25s-3.75-8.25-8.25-8.25h0Z"/>
      <path class="cls-1" d="M0,0v141.75h141.75V0H0ZM30,18h33v5.25h-27.75v16.5h21.75v5.25h-21.75v21.75h-5.25V18ZM68.25,102v15s-.75,0-.75.75c-1.5,1.5-3,2.25-4.5,3.75h0c-10.5,6-23.25,5.25-32.25-3.75-9.75-9.75-10.5-26.25,0-36,9.75-10.5,26.25-10.5,36-.75l-3.75,3.75c-7.5-7.5-21-7.5-28.5.75-8.25,7.5-7.5,21,0,28.5,8.25,7.5,20.25,7.5,28.5.75v-12.75h-16.5v-5.25h21.75v5.25ZM78.75,66.75h-5.25V18h5.25v21.75h27.75v-21.75h5.25v48.75h-5.25v-21.75h-27.75v21.75ZM117,123.75h-6l-11.25-21.75h-12.75v21.75h-5.25v-48.75h21.75c7.5,0,13.5,6,13.5,13.5,0,6.75-4.5,12.75-11.25,13.5l11.25,21.75Z"/>
      <path class="cls-1" d="M838.5,119.25c-.75.75-2.25,1.5-4.5,1.5s-3.75-.75-5.25-1.5c-1.5-1.5-2.25-2.25-2.25-4.5h-3c0,2.25.75,4.5,3,6,1.5,1.5,4.5,2.25,7.5,2.25s5.25-.75,6.75-2.25c2.25-1.5,3-3,3-5.25,0-1.5-.75-2.25-.75-3.75-.75-.75-1.5-1.5-3-2.25s-3-1.5-6-1.5c-2.25-.75-4.5-1.5-5.25-2.25s-1.5-1.5-1.5-3,.75-3,1.5-3.75c1.5-.75,3-.75,5.25-.75,1.5,0,3,0,4.5,1.5,1.5.75,2.25,2.25,2.25,3.75h3c0-2.25-1.5-4.5-3-6s-3.75-2.25-6.75-2.25-5.25.75-6.75,2.25c-2.25,1.5-3,3-3,5.25,0,1.5.75,2.25,1.5,3,0,1.5,1.5,2.25,2.25,3,1.5,0,3.75.75,6,1.5,2.25,0,3.75.75,5.25,2.25.75.75,1.5,1.5,1.5,3s-.75,3-2.25,3.75M813.75,100.5c1.5,1.5,2.25,3.75,2.25,6v.75h-15.75c0-3,.75-5.25,2.25-6.75s3.75-2.25,6-2.25,3.75.75,5.25,2.25M818.25,118.5l-1.5-1.5c-1.5.75-2.25,2.25-3.75,2.25-.75.75-2.25,1.5-3.75,1.5-3,0-5.25-1.5-6.75-3-1.5-2.25-2.25-4.5-2.25-7.5v-.75h18.75v-1.5c0-3.75-1.5-6.75-3-9-2.25-2.25-4.5-3.75-7.5-3.75-2.25,0-4.5.75-6,2.25-1.5.75-3,2.25-3.75,4.5-1.5,2.25-1.5,4.5-1.5,6.75v1.5c0,2.25,0,4.5,1.5,6,.75,2.25,2.25,3.75,3.75,5.25,2.25.75,3.75,1.5,6,1.5,4.5,0,7.5-1.5,9.75-4.5M775.5,117.75c-1.5-2.25-2.25-4.5-2.25-8.25v-.75c0-3,.75-6,2.25-8.25,1.5-1.5,3.75-2.25,6-2.25s3.75,0,5.25,1.5,2.25,3,2.25,5.25h3c0-3-1.5-5.25-3-6.75-2.25-2.25-4.5-3-7.5-3-2.25,0-3.75.75-6,2.25-1.5.75-3,2.25-3.75,4.5-.75,1.5-1.5,3.75-1.5,6.75v.75c0,3.75,1.5,7.5,3,9.75,2.25,2.25,5.25,3.75,8.25,3.75,2.25,0,3.75-.75,5.25-1.5s3-1.5,3.75-3,1.5-3,1.5-4.5h-3c0,2.25-.75,3.75-2.25,4.5-1.5,1.5-3,2.25-5.25,2.25s-4.5-1.5-6-3M744,96v26.25h3v-18c.75-1.5,1.5-3.75,3-4.5,1.5-1.5,3-1.5,4.5-1.5,2.25,0,3.75,0,5.25,1.5.75,1.5,1.5,3,1.5,5.25v17.25h2.25v-17.25c0-3-.75-5.25-1.5-6.75-1.5-2.25-3.75-3-6.75-3-1.5,0-3,.75-4.5,1.5s-3,2.25-3.75,3.75v-4.5h-3ZM732.75,100.5c.75,1.5,1.5,3.75,1.5,6v.75h-15.75c.75-3,1.5-5.25,3-6.75s3-2.25,5.25-2.25,4.5.75,6,2.25M737.25,118.5l-2.25-1.5c-.75.75-2.25,2.25-3,2.25-1.5.75-3,1.5-4.5,1.5-2.25,0-4.5-1.5-6-3-2.25-2.25-3-4.5-3-7.5v-.75h18.75v-1.5c0-3.75-.75-6.75-2.25-9-2.25-2.25-4.5-3.75-8.25-3.75-1.5,0-3.75.75-5.25,2.25-2.25.75-3,2.25-4.5,4.5-.75,2.25-1.5,4.5-1.5,6.75v1.5c0,2.25.75,4.5,1.5,6,1.5,2.25,3,3.75,4.5,5.25,1.5.75,3.75,1.5,6,1.5,4.5,0,7.5-1.5,9.75-4.5M705.75,90h3q.75-.75.75-1.5c0-.75,0-1.5-.75-1.5,0-.75-.75-.75-1.5-.75,0,0-.75,0-1.5.75v3M708.75,96h-3v26.25h3v-26.25ZM683.25,117.75c-1.5-2.25-2.25-4.5-2.25-8.25v-.75c0-3,.75-6,2.25-8.25,1.5-1.5,3-2.25,6-2.25,2.25,0,3.75,0,5.25,1.5s2.25,3,2.25,5.25h2.25c0-3-.75-5.25-3-6.75-1.5-2.25-3.75-3-6.75-3-2.25,0-4.5.75-6,2.25-1.5.75-3,2.25-3.75,4.5-.75,1.5-1.5,3.75-1.5,6.75v.75c0,3.75.75,7.5,3,9.75s4.5,3.75,8.25,3.75c1.5,0,3-.75,5.25-1.5,1.5-.75,2.25-1.5,3-3,1.5-1.5,1.5-3,1.5-4.5h-2.25c0,2.25-.75,3.75-2.25,4.5-1.5,1.5-3,2.25-5.25,2.25-3,0-4.5-1.5-6-3M666.75,118.5c-1.5,1.5-3.75,1.5-6.75,1.5s-5.25-.75-7.5-1.5c-1.5-1.5-3-3.75-3-6h-3c0,1.5.75,3.75,2.25,5.25.75,1.5,2.25,3,4.5,3.75s4.5,1.5,6.75,1.5c3.75,0,6.75-.75,9-3,2.25-1.5,3-3.75,3-6.75,0-1.5,0-3-.75-4.5-.75-.75-2.25-2.25-3.75-3s-4.5-2.25-7.5-3-5.25-1.5-6.75-3c-1.5-.75-2.25-2.25-2.25-4.5,0-1.5.75-3,2.25-4.5s3.75-1.5,6.75-1.5,5.25.75,6.75,1.5c1.5,1.5,2.25,3.75,2.25,6h3c0-1.5-.75-3.75-1.5-5.25s-2.25-3-4.5-3.75c-1.5-.75-3.75-1.5-6-1.5-3.75,0-6.75.75-9,3-2.25,1.5-3,3.75-3,6,0,3,1.5,5.25,3.75,6.75,1.5,1.5,4.5,3,8.25,3.75,3,.75,6,2.25,7.5,3,.75,1.5,1.5,3,1.5,5.25,0,1.5-.75,3-2.25,4.5M609.75,101.25c1.5-2.25,3.75-3,6-3,3.75,0,6,1.5,7.5,5.25v12c-1.5,3-3.75,4.5-7.5,4.5-2.25,0-4.5-.75-6-2.25-1.5-2.25-2.25-5.25-2.25-8.25,0-3.75.75-6.75,2.25-8.25M605.25,109.5c0,3.75.75,7.5,2.25,9.75,2.25,2.25,4.5,3.75,7.5,3.75,3.75,0,6.75-1.5,8.25-4.5v3.75h3v-37.5h-3v15c-1.5-3-4.5-4.5-8.25-4.5-3,0-5.25,1.5-7.5,3.75-1.5,2.25-2.25,6-2.25,9.75v.75ZM594.75,100.5c.75,1.5,1.5,3.75,1.5,6v.75h-15.75c.75-3,1.5-5.25,3-6.75s3.75-2.25,5.25-2.25c2.25,0,4.5.75,6,2.25M599.25,118.5l-2.25-1.5c-.75.75-2.25,2.25-3,2.25-1.5.75-3,1.5-4.5,1.5-2.25,0-4.5-1.5-6-3-2.25-2.25-3-4.5-3-7.5v-.75h18.75v-1.5c0-3.75-.75-6.75-2.25-9-2.25-2.25-4.5-3.75-8.25-3.75-1.5,0-3.75.75-5.25,2.25-2.25.75-3,2.25-4.5,4.5-.75,2.25-1.5,4.5-1.5,6.75v1.5c0,2.25.75,4.5,1.5,6,1.5,2.25,3,3.75,4.5,5.25,1.5.75,3.75,1.5,6,1.5,4.5,0,7.5-1.5,9.75-4.5M567.75,90h3q.75-.75.75-1.5c0-.75,0-1.5-.75-1.5,0-.75-.75-.75-1.5-.75,0,0-.75,0-1.5.75v3M570.75,96h-3v26.25h3v-26.25ZM559.5,84.75h-3v37.5h3v-37.5ZM544.5,117.75c-1.5,1.5-3,3-6,3-1.5,0-3-.75-4.5-1.5s-2.25-2.25-3-3.75v-12.75c.75-1.5,1.5-2.25,3-3.75,1.5-.75,3-.75,4.5-.75,3,0,4.5.75,6,3,1.5,1.5,2.25,4.5,2.25,7.5,0,3.75-.75,6.75-2.25,9M549.75,108.75c0-3.75-1.5-7.5-3-9.75s-4.5-3.75-7.5-3.75c-3.75,0-6,1.5-8.25,4.5v-3.75h-3v36.75h3v-13.5c2.25,2.25,4.5,3.75,8.25,3.75,3,0,6-1.5,7.5-3.75s3-6,3-9.75v-.75ZM516,117.75c-1.5,1.5-3,3-5.25,3s-3.75-.75-5.25-1.5c-.75-.75-2.25-2.25-3-3.75v-12.75c.75-1.5,2.25-2.25,3-3.75,1.5-.75,3-.75,5.25-.75s3.75.75,5.25,3c1.5,1.5,2.25,4.5,2.25,7.5,0,3.75-.75,6.75-2.25,9M521.25,108.75c0-3.75-.75-7.5-3-9.75-1.5-2.25-3.75-3.75-7.5-3.75-3,0-6,1.5-8.25,4.5v-3.75h-2.25v36.75h2.25v-13.5c2.25,2.25,5.25,3.75,8.25,3.75,3.75,0,6-1.5,7.5-3.75,2.25-2.25,3-6,3-9.75v-.75ZM479.25,90.75l7.5,18.75h-14.25l6.75-18.75ZM491.25,122.25h3l-13.5-35.25h-3l-13.5,35.25h3l3.75-9.75h16.5l3.75,9.75ZM441,122.25v-24h6.75v-2.25h-6.75v-3c0-2.25.75-3.75,1.5-4.5s2.25-1.5,3.75-1.5h3v-2.25h-3c-2.25,0-4.5,0-6,1.5s-2.25,3.75-2.25,6.75v3h-3.75v2.25h3.75v24h3ZM410.25,108.75c0-3,.75-6,2.25-7.5,1.5-2.25,3.75-3,6-3s3.75,0,4.5.75c1.5,1.5,3,2.25,3.75,4.5.75,1.5.75,3,.75,5.25v.75c0,3-.75,6-2.25,7.5-1.5,2.25-3.75,3.75-6.75,3.75-2.25,0-4.5-1.5-6-3.75-1.5-1.5-2.25-4.5-2.25-7.5v-.75ZM407.25,109.5c0,3.75.75,7.5,3,9.75s5.25,3.75,8.25,3.75c2.25,0,4.5-.75,6.75-1.5,1.5-1.5,3-3,3.75-5.25.75-1.5,1.5-3.75,1.5-6.75v-.75c0-3.75-.75-6.75-3-9.75-2.25-2.25-5.25-3.75-9-3.75-2.25,0-3.75.75-6,2.25-1.5.75-3,2.25-3.75,4.5-1.5,2.25-1.5,4.5-1.5,6.75v.75ZM370.5,96h-3l9.75,26.25-1.5,3.75c-.75,1.5-1.5,3-2.25,3.75-.75,0-2.25.75-3.75.75h-1.5v2.25h2.25c3,0,5.25-1.5,6.75-4.5l.75-1.5,11.25-30.75h-3l-7.5,22.5-8.25-22.5ZM354,89.25v6.75h-4.5v2.25h4.5v18c0,2.25.75,3.75,1.5,5.25.75.75,2.25,1.5,4.5,1.5,1.5,0,2.25,0,3-.75v-2.25h-2.25c-1.5,0-2.25,0-3-.75s-.75-1.5-.75-3v-18h5.25v-2.25h-5.25v-6.75h-3ZM341.25,90h2.25q.75-.75.75-1.5c0-.75,0-1.5-.75-1.5,0-.75-.75-.75-1.5-.75,0,0-.75,0-.75.75-.75,0-.75.75-.75,1.5s0,.75.75,1.5M343.5,96h-3v26.25h3v-26.25ZM329.25,119.25c-1.5.75-3,1.5-5.25,1.5s-3.75-.75-5.25-1.5c-1.5-1.5-2.25-2.25-2.25-4.5h-3c0,2.25.75,4.5,3,6s4.5,2.25,7.5,2.25,5.25-.75,6.75-2.25c2.25-1.5,3-3,3-5.25,0-1.5,0-2.25-.75-3.75-.75-.75-1.5-1.5-3-2.25s-3-1.5-6-1.5c-2.25-.75-4.5-1.5-5.25-2.25s-1.5-1.5-1.5-3,.75-3,2.25-3.75c.75-.75,2.25-.75,4.5-.75,1.5,0,3.75,0,4.5,1.5,1.5.75,2.25,2.25,2.25,3.75h3c0-2.25-.75-4.5-3-6-1.5-1.5-3.75-2.25-6.75-2.25s-5.25.75-6.75,2.25-3,3-3,5.25c0,1.5.75,2.25,1.5,3,0,1.5,1.5,2.25,2.25,3,1.5,0,3.75.75,6,1.5,2.25,0,3.75.75,5.25,2.25.75.75,1.5,1.5,1.5,3s-.75,3-1.5,3.75M309.75,96c0-.75-.75-.75-1.5-.75-3.75,0-6,1.5-7.5,5.25v-4.5h-3v26.25h3v-18c0-2.25,1.5-3.75,2.25-4.5,1.5-.75,3-1.5,4.5-1.5h2.25v-2.25ZM285.75,100.5c1.5,1.5,2.25,3.75,2.25,6v.75h-15.75c.75-3,1.5-5.25,3-6.75s3-2.25,5.25-2.25,4.5.75,5.25,2.25M290.25,118.5l-1.5-1.5c-.75.75-2.25,2.25-3,2.25-1.5.75-3,1.5-4.5,1.5-2.25,0-4.5-1.5-6.75-3-1.5-2.25-2.25-4.5-2.25-7.5v-.75h18.75v-1.5c0-3.75-.75-6.75-3-9-1.5-2.25-3.75-3.75-7.5-3.75-1.5,0-3.75.75-5.25,2.25-2.25.75-3.75,2.25-4.5,4.5s-1.5,4.5-1.5,6.75v1.5c0,2.25.75,4.5,1.5,6,1.5,2.25,2.25,3.75,4.5,5.25,1.5.75,3.75,1.5,6,1.5,3.75,0,7.5-1.5,9-4.5M247.5,96h-3l9.75,26.25h2.25l9.75-26.25h-3l-8.25,22.5-7.5-22.5ZM235.5,90h3q.75-.75.75-1.5c0-.75,0-1.5-.75-1.5,0-.75-.75-.75-1.5-.75s-.75,0-1.5.75v3M238.5,96h-3v26.25h3v-26.25ZM207.75,96v26.25h3v-18c.75-1.5,1.5-3.75,3-4.5,1.5-1.5,3-1.5,4.5-1.5,2.25,0,3.75,0,4.5,1.5,1.5,1.5,1.5,3,1.5,5.25v17.25h3v-17.25c0-3-.75-5.25-1.5-6.75-1.5-2.25-3.75-3-6.75-3-1.5,0-3,.75-4.5,1.5s-3,2.25-3.75,3.75l-.75-4.5h-2.25ZM196.5,87v24c0,3-1.5,5.25-3,6.75s-3.75,2.25-6.75,2.25-5.25-.75-6.75-2.25c-2.25-1.5-3-3.75-3-6.75v-24h-3v24c0,3.75,1.5,6.75,3.75,9,2.25,1.5,5.25,3,9,3,2.25,0,4.5-.75,6.75-1.5,1.5-.75,3-2.25,3.75-4.5,1.5-1.5,2.25-3.75,2.25-6v-24h-3Z"/>
      <path class="cls-1" d="M849.75,33v27.75h6v-19.5c1.5-2.25,3-3.75,6-3.75,1.5,0,3,.75,3.75,1.5s.75,2.25.75,3.75v18h6v-18c0-6.75-3-9.75-8.25-9.75-3.75,0-6,.75-8.25,3.75v-3.75h-6ZM835.5,39c1.5,1.5,1.5,3,2.25,5.25h-12c0-2.25.75-3.75,2.25-4.5.75-1.5,2.25-2.25,3.75-2.25s3,.75,3.75,1.5M838.5,60c2.25-.75,3.75-2.25,4.5-3.75l-3-3c-2.25,2.25-4.5,3-6.75,3s-3.75-.75-5.25-1.5c-1.5-1.5-2.25-3.75-2.25-6h18v-2.25c0-4.5-1.5-7.5-3-10.5-2.25-2.25-5.25-3-9-3-2.25,0-4.5,0-6,1.5-2.25,1.5-3.75,3-4.5,5.25-1.5,2.25-2.25,4.5-2.25,7.5v.75c0,3.75,1.5,7.5,3.75,9.75,3,2.25,6,3.75,9.75,3.75,2.25,0,4.5-.75,6-1.5M796.5,40.5c1.5-2.25,3-3,4.5-3,3,0,4.5,1.5,6,3.75v12c-1.5,2.25-3,3-6,3-1.5,0-3-.75-4.5-2.25-.75-1.5-1.5-3.75-1.5-6.75s.75-5.25,1.5-6.75M792,57.75c1.5,2.25,4.5,3.75,7.5,3.75s6-1.5,7.5-3.75l.75,3h5.25V21.75h-6v14.25c-2.25-2.25-4.5-3-7.5-3s-6,.75-7.5,3.75c-2.25,2.25-3,6-3,9.75,0,4.5.75,8.25,3,11.25M759.75,33v27.75h6v-19.5c1.5-2.25,3-3.75,6-3.75,1.5,0,3,.75,3.75,1.5s.75,2.25.75,3.75v18h6.75v-18c-.75-6.75-3.75-9.75-9-9.75-3.75,0-6,.75-8.25,3.75v-3.75h-6ZM744.75,28.5s.75.75,2.25.75c.75,0,1.5-.75,2.25-.75.75-.75.75-1.5.75-2.25s0-1.5-.75-2.25-1.5-.75-2.25-.75c-1.5,0-2.25,0-2.25.75-.75.75-.75,1.5-.75,2.25s0,1.5.75,2.25M732.75,28.5c.75,0,1.5.75,2.25.75,1.5,0,2.25-.75,2.25-.75.75-.75,1.5-1.5,1.5-2.25s-.75-1.5-1.5-2.25c0-.75-.75-.75-2.25-.75-.75,0-1.5,0-2.25.75s-.75,1.5-.75,2.25,0,1.5.75,2.25M746.25,60.75h6v-27.75h-6v20.25c-.75,2.25-3,3-6,3s-4.5-1.5-4.5-5.25v-18h-6v18c0,3.75.75,6,2.25,7.5,1.5,2.25,3.75,3,6.75,3s6-1.5,7.5-3v2.25ZM717,47.25c0,3-.75,5.25-1.5,6.75s-2.25,2.25-4.5,2.25c-3,0-4.5-1.5-6-3.75v-11.25c1.5-2.25,3-3.75,6-3.75,2.25,0,3.75.75,4.5,2.25s1.5,3.75,1.5,6.75v.75ZM723,47.25c0-4.5-.75-8.25-2.25-10.5-2.25-3-4.5-3.75-8.25-3.75-3,0-5.25.75-7.5,3v-14.25h-6v39h6v-3c1.5,2.25,4.5,3.75,7.5,3.75,3.75,0,6-1.5,8.25-3.75,1.5-3,2.25-6,2.25-10.5h0ZM685.5,60.75h6v-27.75h-6v20.25c-.75,2.25-3,3-6,3s-4.5-1.5-4.5-5.25v-18h-6v18c0,3.75.75,6,2.25,7.5,1.5,2.25,3.75,3,6.75,3s6-1.5,7.5-3v2.25ZM646.5,55.5c-.75-.75-1.5-1.5-1.5-3s.75-2.25,1.5-3.75c1.5-.75,3-.75,5.25-.75h3.75v5.25l-2.25,2.25c-1.5.75-2.25.75-3.75.75s-2.25,0-3-.75M663,60.75h0c-.75-1.5-1.5-3.75-1.5-6v-12.75c0-3-.75-5.25-3-6.75-1.5-1.5-4.5-2.25-7.5-2.25-2.25,0-4.5,0-6,.75s-3,2.25-3.75,3c-1.5,1.5-1.5,3-1.5,4.5h6c0-1.5.75-2.25,1.5-3s2.25-.75,3-.75c2.25,0,3,.75,3.75,1.5s1.5,1.5,1.5,3v2.25h-3.75c-4.5,0-7.5.75-9.75,2.25s-3,3.75-3,6.75c0,2.25.75,4.5,2.25,6,2.25,1.5,4.5,2.25,6.75,2.25,3,0,6-1.5,7.5-3,0,.75.75,1.5.75,2.25h6.75ZM634.5,33h-2.25c-2.25,0-4.5.75-6,3v-3h-6v27.75h6v-18.75c1.5-2.25,3-3,6-3h2.25v-6ZM612.75,42h-14.25v4.5h7.5v7.5c-1.5,1.5-3.75,2.25-6.75,2.25s-5.25-1.5-7.5-3.75c-1.5-1.5-2.25-5.25-2.25-9v-3c0-3.75.75-6.75,2.25-9s3.75-3,6.75-3c4.5,0,6.75,2.25,7.5,6.75h6.75c-.75-3.75-2.25-6.75-4.5-9s-6-3-9.75-3c-5.25,0-9,1.5-11.25,4.5-3,3-4.5,7.5-4.5,13.5v3c0,3,.75,6,2.25,9,1.5,2.25,3,4.5,5.25,6,3,1.5,5.25,2.25,8.25,2.25s6-.75,8.25-1.5,4.5-2.25,6-3.75v-14.25ZM555,39c1.5,1.5,1.5,3,1.5,5.25h-11.25c0-2.25.75-3.75,1.5-4.5,1.5-1.5,3-2.25,4.5-2.25s3,.75,3.75,1.5M558,60c2.25-.75,3.75-2.25,4.5-3.75l-3-3c-2.25,2.25-4.5,3-7.5,3-1.5,0-3.75-.75-4.5-1.5-1.5-1.5-2.25-3.75-2.25-6h18v-2.25c0-4.5-1.5-7.5-3-10.5-2.25-2.25-5.25-3-9-3-2.25,0-4.5,0-6.75,1.5-1.5,1.5-3,3-4.5,5.25-.75,2.25-1.5,4.5-1.5,7.5v.75c0,3.75,1.5,7.5,3.75,9.75s6,3.75,9.75,3.75c2.25,0,4.5-.75,6-1.5M532.5,21.75h-6.75v39h6.75V21.75ZM512.25,60.75h6v-27.75h-6v20.25c-1.5,2.25-3,3-6,3s-4.5-1.5-4.5-5.25v-18h-6v18c0,3.75.75,6,2.25,7.5,1.5,2.25,3.75,3,6.75,3s6-1.5,7.5-3v2.25ZM471.75,21.75h-6v39h6v-19.5c1.5-2.25,3-3.75,5.25-3.75,1.5,0,3,.75,3.75,1.5s1.5,2.25,1.5,3.75v18h6v-18c0-6.75-3-9.75-9-9.75-3,0-5.25.75-7.5,3v-14.25ZM443.25,54c-.75-1.5-1.5-3.75-1.5-6.75v-.75c0-3,.75-5.25,1.5-6.75,1.5-1.5,3-2.25,5.25-2.25,1.5,0,2.25.75,3.75,1.5.75,1.5,1.5,2.25,1.5,4.5h6c0-3.75-1.5-6-3.75-8.25-1.5-1.5-4.5-2.25-7.5-2.25-3.75,0-7.5.75-9.75,3.75-2.25,2.25-3,6-3,9.75v.75c0,4.5.75,7.5,3,10.5,3,2.25,6,3.75,9.75,3.75,1.5,0,3.75-.75,5.25-1.5s3-2.25,4.5-3.75c.75-1.5,1.5-3,1.5-4.5h-6c0,1.5-.75,2.25-1.5,3-1.5,1.5-2.25,1.5-3.75,1.5-2.25,0-3.75-.75-5.25-2.25M423,55.5c-.75.75-1.5,1.5-3,1.5-2.25,0-3.75-.75-4.5-1.5s-1.5-2.25-1.5-3h-6c0,1.5.75,3,1.5,4.5s2.25,2.25,3.75,3c2.25.75,3.75,1.5,6,1.5,3.75,0,6-.75,8.25-2.25s3-3.75,3-6c0-1.5,0-3-.75-3.75-.75-1.5-1.5-2.25-3-3s-3.75-1.5-6-1.5c-2.25-.75-3.75-1.5-4.5-2.25-.75,0-1.5-.75-1.5-2.25,0-.75.75-1.5,1.5-2.25s1.5-.75,3-.75,3,0,3.75.75,1.5,2.25,1.5,3h6c0-2.25-.75-4.5-3-6s-4.5-2.25-8.25-2.25c-3,0-5.25.75-7.5,2.25s-3,3.75-3,6c0,3,1.5,4.5,4.5,6,1.5.75,3.75,1.5,5.25,2.25,2.25,0,3.75.75,4.5,1.5,1.5.75,1.5,1.5,1.5,2.25s0,2.25-1.5,2.25M385.5,21.75h-6v39h6v-19.5c1.5-2.25,3-3.75,5.25-3.75,1.5,0,3,.75,3.75,1.5s1.5,2.25,1.5,3.75v18h6v-18c0-6.75-3-9.75-9-9.75-3,0-5.25.75-7.5,3v-14.25ZM357,54c-.75-1.5-1.5-3.75-1.5-6.75v-.75c0-3,.75-5.25,1.5-6.75,1.5-1.5,3-2.25,5.25-2.25,1.5,0,2.25.75,3.75,1.5.75,1.5,1.5,2.25,1.5,4.5h6c0-3.75-1.5-6-3.75-8.25-1.5-1.5-4.5-2.25-7.5-2.25-3.75,0-7.5.75-9.75,3.75-2.25,2.25-3,6-3,9.75v.75c0,4.5.75,7.5,3,10.5,3,2.25,6,3.75,9.75,3.75,1.5,0,3.75-.75,5.25-1.5s3-2.25,4.5-3.75c.75-1.5,1.5-3,1.5-4.5h-6c0,1.5-.75,2.25-1.5,3-1.5,1.5-2.25,1.5-3.75,1.5-2.25,0-3.75-.75-5.25-2.25M327,39.75c.75-1.5,2.25-2.25,4.5-2.25s3.75.75,5.25,3c.75,1.5,1.5,3.75,1.5,6,0,3.75-.75,6-1.5,7.5-1.5,1.5-3,2.25-5.25,2.25s-3.75-.75-4.5-2.25c-1.5-1.5-2.25-3.75-2.25-6.75s.75-5.25,2.25-7.5M318.75,47.25c0,4.5,1.5,7.5,3.75,10.5,2.25,2.25,5.25,3.75,9,3.75,3,0,5.25-.75,6.75-2.25,2.25-.75,3.75-2.25,4.5-4.5,1.5-2.25,1.5-4.5,1.5-7.5v-1.5c0-3.75-1.5-6.75-3.75-9.75-2.25-2.25-5.25-3-9-3-2.25,0-4.5,0-6.75,1.5-1.5,1.5-3,3-4.5,5.25-.75,2.25-1.5,4.5-1.5,6.75v.75ZM296.25,21.75h-6.75v39h6.75v-19.5c.75-2.25,3-3.75,5.25-3.75,1.5,0,3,.75,3.75,1.5s1.5,2.25,1.5,3.75v18h6v-18c0-6.75-3-9.75-9-9.75-3,0-6,.75-7.5,3v-14.25ZM266.25,21.75h-6.75v39h6.75v-19.5c.75-2.25,3-3.75,5.25-3.75,1.5,0,3,.75,3.75,1.5s.75,2.25.75,3.75v18h6.75v-18c0-6.75-3-9.75-9-9.75-3,0-6,.75-7.5,3v-14.25ZM237.75,54c-.75-1.5-1.5-3.75-1.5-6.75v-.75c0-3,.75-5.25,1.5-6.75,1.5-1.5,3-2.25,4.5-2.25s3,.75,3.75,1.5c1.5,1.5,1.5,2.25,2.25,4.5h5.25c0-3.75-.75-6-3-8.25-2.25-1.5-4.5-2.25-8.25-2.25s-6.75.75-9,3.75c-2.25,2.25-3,6-3,9.75v.75c0,4.5.75,7.5,3,10.5,2.25,2.25,5.25,3.75,9,3.75,2.25,0,4.5-.75,6-1.5s3-2.25,3.75-3.75c1.5-1.5,1.5-3,1.5-4.5h-5.25c-.75,1.5-.75,2.25-2.25,3-.75,1.5-2.25,1.5-3.75,1.5s-3.75-.75-4.5-2.25M208.5,55.5c-.75-.75-.75-1.5-.75-3s0-2.25,1.5-3.75c.75-.75,3-.75,5.25-.75h3v5.25c0,.75-1.5,1.5-2.25,2.25s-2.25.75-3.75.75c-.75,0-2.25,0-3-.75M225,60.75h0c-.75-1.5-.75-3.75-.75-6v-12.75c-.75-3-1.5-5.25-3-6.75-2.25-1.5-4.5-2.25-8.25-2.25-2.25,0-3.75,0-5.25.75-2.25.75-3.75,2.25-4.5,3-.75,1.5-1.5,3-1.5,4.5h6c0-1.5.75-2.25,1.5-3s2.25-.75,3.75-.75,3,.75,3.75,1.5.75,1.5.75,3v2.25h-3.75c-3.75,0-6.75.75-9,2.25s-3.75,3.75-3.75,6.75c0,2.25.75,4.5,3,6,1.5,1.5,3.75,2.25,6.75,2.25s5.25-1.5,7.5-3v2.25h6.75ZM195.75,39.75h-15v-10.5h16.5v-5.25h-23.25v36.75h6.75v-15.75h15v-5.25Z"/>
      <polygon class="cls-1" points="175.5 245.25 172.5 245.25 178.5 210 181.5 210 175.5 245.25 175.5 245.25"/>
      <path class="cls-1" d="M192.75,219l-.75,4.5c.75-1.5,2.25-3,3.75-3.75s3-1.5,5.25-1.5,3.75,1.5,5.25,3,1.5,3.75,1.5,6.75l-3,17.25h-3l3-17.25v-2.25c-.75-3-2.25-4.5-4.5-4.5s-3.75,0-5.25,1.5c-1.5.75-3,2.25-3.75,4.5l-3,18h-3l4.5-26.25h3Z"/>
      <path class="cls-1" d="M228.75,238.5c.75-2.25-.75-3.75-3.75-4.5l-4.5-1.5c-3.75-1.5-5.25-3.75-5.25-6.75,0-2.25.75-3.75,3-5.25s4.5-2.25,6.75-2.25c3,0,4.5.75,6.75,2.25,1.5,1.5,2.25,3.75,2.25,6h-3c0-1.5-.75-3-1.5-3.75-1.5-1.5-3-1.5-4.5-1.5-2.25,0-3.75,0-4.5.75-1.5,1.5-2.25,2.25-2.25,3.75,0,2.25.75,3.75,3.75,4.5l3,.75,1.5.75c3.75,1.5,5.25,3.75,5.25,6.75,0,2.25-.75,3.75-2.25,5.25-2.25,1.5-4.5,2.25-6.75,2.25h-1.5c-1.5,0-3-.75-4.5-.75-1.5-.75-2.25-2.25-3-3-.75-1.5-1.5-3-1.5-4.5h3c0,2.25.75,3,1.5,4.5,1.5.75,3,1.5,5.25,1.5,1.5,0,3-.75,4.5-1.5s2.25-2.25,2.25-3.75h0Z"/>
      <path class="cls-1" d="M247.5,212.25l-1.5,6.75h5.25v2.25h-5.25l-3,18v1.5c0,1.5.75,2.25,2.25,2.25h2.25v2.25c-.75.75-1.5.75-3,.75s-3-.75-3.75-2.25c-.75-.75-.75-2.25-.75-4.5l3-18h-4.5v-2.25h4.5l1.5-6.75h3Z"/>
      <path class="cls-1" d="M256.5,245.25h-3l4.5-26.25h3l-4.5,26.25ZM258.75,211.5c0-1.5.75-1.5,2.25-2.25.75,0,.75.75,1.5.75v1.5q0,.75-.75,1.5h-.75c-1.5,0-2.25-.75-2.25-1.5h0Z"/>
      <path class="cls-1" d="M275.25,212.25l-1.5,6.75h5.25v2.25h-5.25l-3,18v1.5c0,1.5.75,2.25,2.25,2.25h2.25v2.25c-.75.75-2.25.75-3,.75-1.5,0-3-.75-3.75-2.25-.75-.75-.75-2.25-.75-4.5l3-18h-4.5v-2.25h4.5l1.5-6.75h3Z"/>
      <path class="cls-1" d="M297.75,242.25c-1.5,2.25-4.5,3.75-8.25,3.75-2.25,0-4.5-.75-6-3-.75-1.5-1.5-3.75-.75-6.75l2.25-17.25h3l-2.25,17.25c-.75.75-.75,1.5,0,2.25,0,1.5,0,3,.75,3.75s2.25.75,3.75,1.5c1.5,0,3.75-.75,5.25-1.5,1.5-1.5,3-2.25,3-3.75l3.75-19.5h2.25l-4.5,26.25h-2.25v-3Z"/>
      <path class="cls-1" d="M318.75,212.25l-1.5,6.75h5.25v2.25h-5.25l-3,18v1.5c0,1.5.75,2.25,2.25,2.25h2.25v2.25c-.75.75-1.5.75-3,.75s-3-.75-3.75-2.25c-.75-.75-.75-2.25-.75-4.5l3-18h-4.5v-2.25h4.5l1.5-6.75h3Z"/>
      <path class="cls-1" d="M341.25,245.25l4.5-24h-4.5l.75-2.25h3.75l.75-3.75c.75-2.25,1.5-4.5,3-6s3.75-2.25,6-2.25c.75.75,1.5.75,3,.75l-.75,2.25h-2.25c-1.5,0-3,.75-4.5,1.5-.75.75-1.5,2.25-1.5,4.5l-.75,3h6v2.25h-6l-4.5,24h-3Z"/>
      <path class="cls-1" d="M356.25,231.75c0-2.25.75-4.5,2.25-6.75s3-3.75,4.5-5.25c2.25-.75,3.75-1.5,6-1.5s4.5.75,6,2.25c1.5.75,2.25,2.25,3,4.5s1.5,4.5.75,6.75v.75c0,3.75-1.5,7.5-4.5,9.75-2.25,2.25-5.25,3.75-9,3.75-2.25,0-5.25-1.5-6.75-3-1.5-2.25-3-5.25-2.25-9v-2.25ZM359.25,232.5c-.75,2.25-.75,3.75,0,6,.75,1.5,1.5,2.25,2.25,3.75,1.5.75,3,1.5,4.5,1.5s3-.75,4.5-1.5,3-2.25,3.75-3.75c.75-2.25,1.5-3.75,1.5-6v-.75c.75-3,0-6-.75-7.5-1.5-2.25-3.75-3-6-3s-4.5.75-6.75,3c-1.5,2.25-3,4.5-3,8.25h0Z"/>
      <path class="cls-1" d="M399.75,221.25h-2.25c-1.5,0-3,.75-4.5,1.5-2.25,1.5-3,3-3.75,4.5l-3,18h-3l5.25-26.25h2.25l-.75,4.5c.75-1.5,2.25-3,3.75-3.75s3-1.5,4.5-1.5q.75,0,1.5.75v2.25Z"/>
      <path class="cls-1" d="M415.5,245.25l6.75-35.25h9c3,0,5.25.75,6.75,2.25,2.25,1.5,3.75,3,4.5,5.25,1.5,3,1.5,5.25.75,8.25v3c-.75,5.25-3,9-6,12s-7.5,4.5-12,4.5h-9.75ZM424.5,212.25l-5.25,30.75h6c3,0,5.25-.75,6.75-1.5,2.25-1.5,3.75-3,5.25-5.25s2.25-4.5,3-6.75c0-3,.75-4.5.75-5.25,0-1.5,0-2.25-.75-3,0-3-.75-5.25-3-6.75-1.5-1.5-3-2.25-6-2.25h-6.75Z"/>
      <path class="cls-1" d="M464.25,245.25v-3.75c-.75,1.5-2.25,2.25-3.75,3s-3.75,1.5-5.25,1.5c-2.25,0-4.5-.75-5.25-2.25-1.5-1.5-2.25-3-2.25-5.25,0-1.5.75-3,1.5-4.5,1.5-1.5,3-2.25,5.25-3,1.5-.75,3.75-.75,6-.75h6v-3c0-2.25,0-3.75-.75-4.5-1.5-1.5-3-1.5-4.5-1.5-2.25,0-3.75,0-5.25,1.5-1.5.75-2.25,2.25-2.25,3.75h-3c0-2.25,1.5-4.5,3.75-6,1.5-1.5,3.75-2.25,6.75-2.25s5.25,1.5,6.75,3,1.5,3,1.5,6l-2.25,13.5v4.5h-3ZM455.25,243.75c2.25,0,3.75-.75,5.25-1.5s3-2.25,4.5-3.75l.75-6h-4.5c-3,0-5.25,0-7.5,1.5-1.5.75-3,2.25-3,4.5,0,1.5,0,2.25,1.5,3.75.75.75,1.5.75,3,1.5h0Z"/>
      <path class="cls-1" d="M483.75,212.25l-.75,6.75h5.25l-.75,2.25h-5.25l-3,18v1.5c0,1.5.75,2.25,3,2.25h2.25v2.25c-1.5.75-2.25.75-3,.75-2.25,0-3-.75-3.75-2.25-.75-.75-1.5-2.25-.75-4.5l3-18h-5.25l.75-2.25h4.5l1.5-6.75h2.25Z"/>
      <path class="cls-1" d="M506.25,245.25q-.75-.75,0-1.5v-2.25c-1.5,1.5-3,2.25-4.5,3s-3,1.5-5.25,1.5-3.75-.75-5.25-2.25-1.5-3-1.5-5.25c0-1.5.75-3,1.5-4.5,1.5-1.5,3-2.25,4.5-3,2.25-.75,4.5-.75,6.75-.75h5.25l.75-3c0-2.25,0-3.75-1.5-4.5-.75-1.5-2.25-1.5-4.5-1.5-1.5,0-3,0-4.5,1.5-1.5.75-2.25,2.25-3,3.75h-3c.75-2.25,1.5-4.5,3.75-6s4.5-2.25,7.5-2.25c2.25,0,4.5,1.5,6,3s2.25,3,2.25,6l-2.25,13.5-.75,1.5c0,1.5,0,2.25.75,3h-3ZM497.25,243.75c1.5,0,3.75-.75,5.25-1.5s3-2.25,3.75-3.75l1.5-6h-5.25c-2.25,0-5.25,0-6.75,1.5-2.25.75-3,2.25-3,4.5-.75,1.5,0,2.25.75,3.75.75.75,2.25.75,3.75,1.5h0Z"/>
      <path class="cls-1" d="M552,235.5h-15.75l-5.25,9.75h-3l18.75-35.25h3l6.75,35.25h-3l-1.5-9.75h0ZM537.75,233.25h13.5l-3.75-19.5-9.75,19.5h0Z"/>
      <path class="cls-1" d="M569.25,219l-.75,4.5c1.5-1.5,3-3,4.5-3.75s3-1.5,4.5-1.5c3,0,4.5,1.5,6,3,.75,1.5,1.5,3.75.75,6.75l-3,17.25h-2.25l2.25-17.25c.75-.75.75-1.5,0-2.25,0-3-1.5-4.5-4.5-4.5-1.5,0-3,0-4.5,1.5-1.5.75-3,2.25-3.75,4.5l-3.75,18h-2.25l4.5-26.25h2.25Z"/>
      <path class="cls-1" d="M606,245.25v-3.75c-.75,1.5-2.25,2.25-3.75,3-2.25.75-3.75,1.5-5.25,1.5-2.25,0-4.5-.75-5.25-2.25-1.5-1.5-2.25-3-2.25-5.25,0-1.5.75-3,1.5-4.5,1.5-1.5,3-2.25,5.25-3,1.5-.75,3.75-.75,6-.75h6v-3c0-2.25,0-3.75-.75-4.5-1.5-1.5-3-1.5-4.5-1.5-2.25,0-3.75,0-5.25,1.5-1.5.75-2.25,2.25-2.25,3.75h-3c0-2.25,1.5-4.5,3-6,2.25-1.5,4.5-2.25,7.5-2.25s5.25,1.5,6.75,3,1.5,3,1.5,6l-2.25,13.5v4.5h-3ZM597,243.75c2.25,0,3.75-.75,5.25-1.5s3-2.25,4.5-3.75l.75-6h-4.5c-3,0-5.25,0-7.5,1.5-1.5.75-3,2.25-3,4.5,0,1.5,0,2.25,1.5,3.75.75.75,1.5.75,3,1.5h0Z"/>
      <polygon class="cls-1" points="619.5 245.25 616.5 245.25 623.25 207.75 626.25 207.75 619.5 245.25 619.5 245.25"/>
      <path class="cls-1" d="M636.75,241.5l11.25-22.5h3l-15.75,30.75c-1.5,2.25-3,3.75-3.75,5.25-1.5.75-3,1.5-4.5,1.5-.75,0-1.5-.75-2.25-.75v-2.25h1.5c3,0,4.5-1.5,6.75-4.5l1.5-3.75-5.25-26.25h3l4.5,22.5Z"/>
      <path class="cls-1" d="M668.25,238.5c0-2.25-1.5-3.75-4.5-4.5l-3.75-1.5c-4.5-1.5-6-3.75-6-6.75.75-2.25,1.5-3.75,3-5.25,2.25-1.5,4.5-2.25,7.5-2.25,2.25,0,4.5.75,6,2.25s2.25,3.75,2.25,6h-3c0-1.5,0-3-1.5-3.75-.75-1.5-2.25-1.5-4.5-1.5-1.5,0-3,0-4.5.75-1.5,1.5-2.25,2.25-2.25,3.75,0,2.25,1.5,3.75,3.75,4.5l3,.75,2.25.75c3.75,1.5,5.25,3.75,5.25,6.75-.75,2.25-1.5,3.75-3,5.25s-3.75,2.25-6.75,2.25h-.75c-2.25,0-3.75-.75-5.25-.75-1.5-.75-2.25-2.25-3-3-.75-1.5-.75-3-.75-4.5h3c0,2.25,0,3,1.5,4.5.75.75,2.25,1.5,4.5,1.5s3.75-.75,5.25-1.5c.75-.75,1.5-2.25,2.25-3.75h0Z"/>
      <path class="cls-1" d="M679.5,245.25h-3l5.25-26.25h3l-5.25,26.25ZM682.5,211.5c0-1.5.75-1.5,2.25-2.25l.75.75c.75,0,.75.75.75,1.5s-.75.75-.75,1.5h-1.5c-1.5,0-1.5-.75-1.5-1.5h0Z"/>
      <path class="cls-1" d="M705,238.5c0-2.25-1.5-3.75-4.5-4.5l-3.75-1.5c-4.5-1.5-6-3.75-6-6.75,0-2.25,1.5-3.75,3-5.25,2.25-1.5,4.5-2.25,6.75-2.25,3,0,5.25.75,6.75,2.25s2.25,3.75,2.25,6h-3c0-1.5-.75-3-1.5-3.75-.75-1.5-2.25-1.5-4.5-1.5-1.5,0-3,0-4.5.75-1.5,1.5-2.25,2.25-2.25,3.75,0,2.25,1.5,3.75,3.75,4.5l3,.75,2.25.75c3,1.5,5.25,3.75,4.5,6.75,0,2.25-.75,3.75-2.25,5.25s-3.75,2.25-6.75,2.25h-.75c-2.25,0-3.75-.75-5.25-.75-1.5-.75-2.25-2.25-3-3-.75-1.5-1.5-3-.75-4.5h2.25c0,2.25.75,3,2.25,4.5.75.75,2.25,1.5,4.5,1.5,1.5,0,3.75-.75,4.5-1.5,1.5-.75,2.25-2.25,3-3.75h0Z"/>
      <path class="cls-1" d="M712.5,252l-1.5-1.5c1.5-2.25,3-3.75,3-6l.75-3.75h3l-.75,3.75c-.75,3-2.25,5.25-4.5,7.5h0Z"/>
      <path class="cls-1" d="M759.75,235.5h-15.75l-5.25,9.75h-3l18.75-35.25h3l6.75,35.25h-3l-1.5-9.75h0ZM745.5,233.25h13.5l-3-19.5-10.5,19.5h0Z"/>
      <path class="cls-1" d="M786,221.25h-1.5c-2.25,0-3.75.75-5.25,1.5-1.5,1.5-3,3-3,4.5l-3,18h-3l4.5-26.25h3l-1.5,4.5c1.5-1.5,2.25-3,3.75-3.75s3-1.5,4.5-1.5c.75,0,1.5,0,2.25.75l-.75,2.25Z"/>
      <path class="cls-1" d="M799.5,212.25l-1.5,6.75h5.25v2.25h-5.25l-3,18v1.5c0,1.5.75,2.25,2.25,2.25h2.25v2.25c-.75.75-2.25.75-3,.75-1.5,0-3-.75-3.75-2.25-.75-.75-.75-2.25-.75-4.5l3-18h-5.25l.75-2.25h4.5l1.5-6.75h3Z"/>
      <path class="cls-1" d="M807.75,245.25h-2.25l4.5-26.25h3l-5.25,26.25ZM810.75,211.5c0-1.5.75-1.5,2.25-2.25l.75.75c.75,0,.75.75.75,1.5s0,.75-.75,1.5h-1.5c-.75,0-1.5-.75-1.5-1.5h0Z"/>
      <path class="cls-1" d="M818.25,245.25l4.5-24h-4.5v-2.25h4.5l.75-3.75c0-2.25,1.5-4.5,3-6s3-2.25,6-2.25c.75.75,1.5.75,3,.75l-.75,2.25h-2.25c-2.25,0-3,.75-4.5,1.5-.75.75-1.5,2.25-1.5,4.5l-.75,3h6v2.25h-6.75l-3.75,24h-3Z"/>
      <path class="cls-1" d="M837,245.25h-3l4.5-26.25h3l-4.5,26.25ZM839.25,211.5c0-1.5.75-1.5,2.25-2.25.75,0,1.5.75,1.5.75,0,0,.75.75.75,1.5q-.75.75-.75,1.5h-1.5c-1.5,0-2.25-.75-2.25-1.5h0Z"/>
      <path class="cls-1" d="M855.75,243.75c1.5,0,3.75-.75,5.25-1.5,1.5-1.5,2.25-3,3-5.25h2.25c0,3-1.5,5.25-3.75,6.75s-4.5,2.25-6.75,2.25-4.5-.75-5.25-1.5c-1.5-1.5-3-3-3.75-5.25-.75-1.5-.75-3.75,0-6.75v-.75c0-1.5,0-3,.75-5.25.75-1.5,1.5-3,3-3.75.75-1.5,2.25-2.25,3.75-3s3-1.5,5.25-1.5,4.5,1.5,6,3,2.25,3.75,2.25,6.75h-2.25c0-2.25-.75-3.75-2.25-5.25-.75-.75-2.25-1.5-4.5-1.5-1.5,0-3.75,0-5.25,1.5s-2.25,3-3,5.25-1.5,4.5-1.5,7.5c0,2.25.75,4.5,2.25,6,.75,1.5,2.25,2.25,4.5,2.25h0Z"/>
      <path class="cls-1" d="M874.5,245.25h-3l4.5-26.25h3l-4.5,26.25ZM877.5,211.5c0-1.5.75-1.5,1.5-2.25.75,0,1.5.75,1.5.75.75,0,.75.75.75,1.5s-.75.75-.75,1.5h-1.5c-1.5,0-2.25-.75-1.5-1.5h0Z"/>
      <path class="cls-1" d="M899.25,245.25v-3.75c-.75,1.5-2.25,2.25-3.75,3s-3.75,1.5-5.25,1.5c-2.25,0-3.75-.75-5.25-2.25s-2.25-3-2.25-5.25c0-1.5.75-3,2.25-4.5.75-1.5,2.25-2.25,4.5-3,1.5-.75,3.75-.75,6.75-.75h5.25v-3c.75-2.25,0-3.75-.75-4.5-.75-1.5-2.25-1.5-4.5-1.5-1.5,0-3.75,0-5.25,1.5-1.5.75-2.25,2.25-2.25,3.75h-3c0-2.25,1.5-4.5,3.75-6,1.5-1.5,4.5-2.25,6.75-2.25,3,0,5.25,1.5,6.75,3s2.25,3,1.5,6l-2.25,13.5v4.5h-3ZM891,243.75c1.5,0,3-.75,5.25-1.5,1.5-.75,3-2.25,3.75-3.75l.75-6h-4.5c-3,0-5.25,0-7.5,1.5-1.5.75-2.25,2.25-3,4.5,0,1.5.75,2.25,1.5,3.75.75.75,2.25.75,3.75,1.5h0Z"/>
      <polygon class="cls-1" points="912.75 245.25 909.75 245.25 916.5 207.75 919.5 207.75 912.75 245.25 912.75 245.25"/>
      <polygon class="cls-1" points="939.75 245.25 936.75 245.25 943.5 210 946.5 210 939.75 245.25 939.75 245.25"/>
      <path class="cls-1" d="M957,219l-.75,4.5c.75-1.5,2.25-3,3.75-3.75s3-1.5,5.25-1.5,4.5,1.5,5.25,3c1.5,1.5,1.5,3.75,1.5,6.75l-3,17.25h-3l3-17.25v-2.25c0-3-1.5-4.5-4.5-4.5-2.25,0-3.75,0-5.25,1.5-1.5.75-2.25,2.25-3.75,4.5l-3,18h-3l4.5-26.25h3Z"/>
      <path class="cls-1" d="M986.25,212.25l-.75,6.75h5.25l-.75,2.25h-5.25l-3,18v1.5c0,1.5.75,2.25,3,2.25h2.25v2.25c-1.5.75-2.25.75-3,.75-2.25,0-3-.75-3.75-2.25-.75-.75-1.5-2.25-.75-4.5l2.25-18h-4.5l.75-2.25h4.5l1.5-6.75h2.25Z"/>
      <path class="cls-1" d="M1002,246c-2.25,0-3.75-.75-5.25-1.5-1.5-1.5-3-3-3.75-5.25-.75-1.5-.75-3.75-.75-6v-.75c.75-3,1.5-5.25,2.25-7.5,1.5-2.25,3-3.75,4.5-4.5,2.25-1.5,3.75-2.25,6-2.25s3.75.75,5.25,2.25c1.5.75,2.25,2.25,3,3.75.75,2.25.75,4.5.75,6.75l-.75,1.5h-18v5.25c.75,2.25,1.5,3,3,4.5.75.75,2.25,1.5,3.75,1.5s3-.75,4.5-1.5c1.5,0,2.25-1.5,3.75-2.25l1.5,1.5c-1.5,1.5-3,2.25-4.5,3s-3,1.5-5.25,1.5h0ZM1005,221.25c-2.25,0-3.75.75-5.25,2.25-2.25,1.5-3,3.75-4.5,6.75h15.75v-.75c0-2.25,0-4.5-1.5-6-.75-1.5-2.25-2.25-4.5-2.25h0Z"/>
      <polygon class="cls-1" points="1020.75 245.25 1017.75 245.25 1024.5 207.75 1027.5 207.75 1020.75 245.25 1020.75 245.25"/>
      <polygon class="cls-1" points="1032.75 245.25 1029.75 245.25 1036.5 207.75 1039.5 207.75 1032.75 245.25 1032.75 245.25"/>
      <path class="cls-1" d="M1044.75,245.25h-3l4.5-26.25h3l-4.5,26.25ZM1047,211.5c0-1.5.75-1.5,2.25-2.25l.75.75c.75,0,.75.75.75,1.5s0,.75-.75,1.5h-1.5c-.75,0-1.5-.75-1.5-1.5h0Z"/>
      <path class="cls-1" d="M1065.75,218.25c1.5,0,3,.75,4.5,1.5s2.25,1.5,3,3l.75-3.75h3l-4.5,26.25c0,2.25-.75,3.75-2.25,5.25-.75,2.25-2.25,3-3.75,4.5-2.25.75-3.75.75-6,.75-1.5,0-3,0-4.5-.75s-3-2.25-3.75-3.75l1.5-1.5c1.5,2.25,3.75,3.75,6.75,3.75,2.25,0,4.5-.75,6-2.25s3-3.75,3-6l.75-3c-2.25,2.25-5.25,3.75-8.25,3.75s-4.5-.75-6-3c-1.5-1.5-2.25-4.5-2.25-7.5s.75-6,1.5-8.25c.75-3,2.25-5.25,4.5-6.75,1.5-1.5,3.75-2.25,6-2.25h0ZM1056.75,232.5v2.25c0,3,.75,5.25,1.5,6,.75,1.5,2.25,2.25,4.5,3,1.5,0,3-.75,4.5-1.5s2.25-2.25,3.75-3.75l1.5-12c0-1.5-.75-3-2.25-3.75-.75-1.5-2.25-1.5-3.75-1.5-3,0-4.5.75-6.75,3-1.5,1.5-2.25,4.5-3,8.25h0Z"/>
      <path class="cls-1" d="M1091.25,246c-2.25,0-3.75-.75-5.25-1.5-2.25-1.5-3-3-3.75-5.25-.75-1.5-.75-3.75-.75-6v-.75c0-3,.75-5.25,2.25-7.5s3-3.75,4.5-4.5c2.25-1.5,3.75-2.25,6-2.25s3.75.75,5.25,2.25c1.5.75,2.25,2.25,3,3.75.75,2.25.75,4.5.75,6.75l-.75,1.5h-18v5.25c.75,2.25,1.5,3,3,4.5.75.75,2.25,1.5,3.75,1.5s3-.75,4.5-1.5c.75,0,2.25-1.5,3-2.25l2.25,1.5c-1.5,1.5-3,2.25-4.5,3s-3.75,1.5-5.25,1.5h0ZM1094.25,221.25c-2.25,0-3.75.75-6,2.25-1.5,1.5-3,3.75-3.75,6.75h15.75v-.75c0-2.25,0-4.5-1.5-6-.75-1.5-2.25-2.25-4.5-2.25h0Z"/>
      <path class="cls-1" d="M1114.5,219l-.75,4.5c.75-1.5,2.25-3,3.75-3.75s3-1.5,5.25-1.5,4.5,1.5,5.25,3c1.5,1.5,1.5,3.75,1.5,6.75l-3,17.25h-3l3-17.25v-2.25c0-3-2.25-4.5-4.5-4.5s-3.75,0-5.25,1.5c-1.5.75-3,2.25-3.75,4.5l-3,18h-3l4.5-26.25h3Z"/>
      <path class="cls-1" d="M1144.5,243.75c2.25,0,3.75-.75,5.25-1.5,1.5-1.5,2.25-3,3-5.25h3c-.75,3-2.25,5.25-3.75,6.75-2.25,1.5-4.5,2.25-7.5,2.25-2.25,0-3.75-.75-5.25-1.5-1.5-1.5-2.25-3-3-5.25-.75-1.5-.75-3.75-.75-6.75v-.75c0-1.5.75-3,1.5-5.25.75-1.5,1.5-3,2.25-3.75,1.5-1.5,2.25-2.25,3.75-3s3-1.5,5.25-1.5c3,0,4.5,1.5,6.75,3,1.5,1.5,2.25,3.75,2.25,6.75h-3c0-2.25-.75-3.75-1.5-5.25-1.5-.75-3-1.5-4.5-1.5-2.25,0-3.75,0-5.25,1.5s-3,3-3.75,5.25-1.5,4.5-.75,7.5c0,2.25,0,4.5,1.5,6,.75,1.5,3,2.25,4.5,2.25h0Z"/>
      <path class="cls-1" d="M1170.75,246c-1.5,0-3.75-.75-5.25-1.5-1.5-1.5-2.25-3-3-5.25-.75-1.5-1.5-3.75-.75-6v-.75c0-3,.75-5.25,2.25-7.5.75-2.25,2.25-3.75,4.5-4.5,1.5-1.5,3.75-2.25,6-2.25,1.5,0,3.75.75,4.5,2.25,1.5.75,3,2.25,3,3.75.75,2.25.75,4.5.75,6.75v1.5h-18.75v.75c0,1.5,0,3,.75,4.5.75,2.25,1.5,3,2.25,4.5,1.5.75,3,1.5,4.5,1.5s3-.75,3.75-1.5c1.5,0,3-1.5,3.75-2.25l1.5,1.5c-.75,1.5-2.25,2.25-3.75,3-2.25.75-3.75,1.5-6,1.5h0ZM1174.5,221.25c-2.25,0-4.5.75-6,2.25s-3,3.75-3.75,6.75h15v-.75c.75-2.25,0-4.5-.75-6-1.5-1.5-3-2.25-4.5-2.25h0Z"/>
      <path class="cls-1" d="M1185.75,252l-2.25-1.5c2.25-2.25,3-3.75,3.75-6l.75-3.75h2.25v3.75c-.75,3-2.25,5.25-4.5,7.5h0Z"/>
      <polygon class="cls-1" points="183 300.75 183 301.5 183.75 300.75 199.5 270 202.5 270 184.5 305.25 181.5 305.25 174 270 177 270 183 300.75 183 300.75"/>
      <path class="cls-1" d="M205.5,305.25h-3l4.5-26.25h3l-4.5,26.25ZM208.5,271.5c0-1.5.75-1.5,1.5-2.25.75,0,1.5.75,1.5.75,0,0,.75.75.75,1.5s-.75.75-.75,1.5h-1.5c-1.5,0-2.25-.75-1.5-1.5h0Z"/>
      <path class="cls-1" d="M230.25,298.5c.75-2.25-.75-3.75-3.75-4.5l-4.5-1.5c-3.75-1.5-5.25-3.75-5.25-6.75,0-2.25,1.5-3.75,3-5.25,2.25-1.5,4.5-2.25,6.75-2.25,3,0,4.5.75,6.75,2.25,1.5,1.5,2.25,3.75,2.25,6h-3c0-1.5-.75-3-1.5-3.75-1.5-1.5-3-1.5-4.5-1.5s-3.75,0-4.5.75c-1.5,1.5-2.25,2.25-2.25,3.75,0,2.25.75,3.75,3.75,4.5l3,.75,1.5.75c3.75,1.5,6,3.75,5.25,6.75,0,2.25-.75,3.75-2.25,5.25-2.25,1.5-4.5,2.25-6.75,2.25h-1.5c-1.5,0-3-.75-4.5-.75-1.5-.75-2.25-2.25-3-3-.75-1.5-1.5-3-1.5-4.5h3c0,2.25.75,3,1.5,4.5,1.5.75,3,1.5,5.25,1.5,1.5,0,3-.75,4.5-1.5s2.25-2.25,2.25-3.75h0Z"/>
      <path class="cls-1" d="M256.5,302.25c-2.25,2.25-5.25,3.75-9,3.75-2.25,0-4.5-.75-5.25-3-1.5-1.5-1.5-3.75-1.5-6.75l3-17.25h3l-3,17.25v2.25c0,1.5.75,3,1.5,3.75s1.5.75,3,1.5c2.25,0,3.75-.75,5.25-1.5,1.5-1.5,3-2.25,3.75-3.75l3-19.5h3l-4.5,26.25h-3l.75-3Z"/>
      <path class="cls-1" d="M282.75,305.25v-1.5l.75-2.25c-1.5,1.5-3,2.25-4.5,3s-3,1.5-5.25,1.5-3.75-.75-5.25-2.25-2.25-3-2.25-5.25c.75-1.5.75-3,2.25-4.5.75-1.5,2.25-2.25,4.5-3s4.5-.75,6.75-.75h5.25l.75-3c0-2.25-.75-3.75-1.5-4.5-.75-1.5-2.25-1.5-4.5-1.5-1.5,0-3.75,0-4.5,1.5-1.5.75-3,2.25-3,3.75h-3c.75-2.25,1.5-4.5,3.75-6s4.5-2.25,7.5-2.25c2.25,0,4.5,1.5,6,3s2.25,3,1.5,6l-2.25,13.5v4.5h-3ZM274.5,303.75c1.5,0,3.75-.75,5.25-1.5s3-2.25,3.75-3.75l.75-6h-4.5c-3,0-5.25,0-6.75,1.5-2.25.75-3,2.25-3.75,4.5,0,1.5.75,2.25,1.5,3.75.75.75,2.25.75,3.75,1.5h0Z"/>
      <polygon class="cls-1" points="296.25 305.25 293.25 305.25 300 267.75 303 267.75 296.25 305.25 296.25 305.25"/>
      <path class="cls-1" d="M308.25,305.25h-3l4.5-26.25h3l-4.5,26.25ZM310.5,271.5c0-1.5.75-1.5,2.25-2.25.75,0,.75.75,1.5.75,0,0,0,.75.75,1.5q-.75.75-.75,1.5h-1.5c-1.5,0-2.25-.75-2.25-1.5h0Z"/>
      <polygon class="cls-1" points="318.75 303 335.25 303 334.5 305.25 314.25 305.25 315 303 333.75 281.25 318.75 281.25 319.5 279 338.25 279 337.5 281.25 318.75 303 318.75 303"/>
      <path class="cls-1" d="M356.25,305.25v-3.75c-.75,1.5-2.25,2.25-3.75,3s-3.75,1.5-5.25,1.5c-2.25,0-3.75-.75-5.25-2.25s-2.25-3-2.25-5.25c0-1.5.75-3,2.25-4.5.75-1.5,2.25-2.25,4.5-3,1.5-.75,3.75-.75,6-.75h6v-3c0-2.25,0-3.75-.75-4.5-1.5-1.5-3-1.5-4.5-1.5-2.25,0-3.75,0-5.25,1.5-1.5.75-2.25,2.25-2.25,3.75h-3c0-2.25,1.5-4.5,3.75-6,1.5-1.5,4.5-2.25,6.75-2.25,3,0,5.25,1.5,6.75,3s1.5,3,1.5,6l-2.25,13.5v4.5h-3ZM348,303.75c1.5,0,3-.75,4.5-1.5,2.25-.75,3-2.25,4.5-3.75l.75-6h-4.5c-3,0-5.25,0-7.5,1.5-1.5.75-3,2.25-3,4.5,0,1.5,0,2.25,1.5,3.75.75.75,1.5.75,3.75,1.5h0Z"/>
      <path class="cls-1" d="M376.5,272.25l-1.5,6.75h5.25v2.25h-6l-2.25,18-.75,1.5c0,1.5,1.5,2.25,3,2.25h2.25v2.25c-1.5.75-2.25.75-3,.75-1.5,0-3-.75-3.75-2.25-.75-.75-1.5-2.25-.75-4.5l3-18h-5.25l.75-2.25h4.5l1.5-6.75h3Z"/>
      <path class="cls-1" d="M384.75,305.25h-2.25l4.5-26.25h3l-5.25,26.25ZM387.75,271.5c0-1.5.75-1.5,2.25-2.25l.75.75c.75,0,.75.75.75,1.5s0,.75-.75,1.5h-1.5c-.75,0-1.5-.75-1.5-1.5h0Z"/>
      <path class="cls-1" d="M394.5,291.75c0-2.25.75-4.5,2.25-6.75s3-3.75,4.5-5.25c2.25-.75,3.75-1.5,6-1.5s4.5.75,6,2.25c1.5.75,2.25,2.25,3,4.5s1.5,4.5.75,6.75v.75c0,3.75-1.5,7.5-4.5,9.75-2.25,2.25-5.25,3.75-9,3.75-2.25,0-5.25-1.5-6.75-3-1.5-2.25-3-5.25-2.25-9v-2.25ZM396.75,292.5c0,2.25,0,3.75.75,6,.75,1.5,1.5,2.25,2.25,3.75,1.5.75,2.25,1.5,4.5,1.5,1.5,0,3-.75,4.5-1.5s3-2.25,3.75-3.75c.75-2.25,1.5-3.75,1.5-6v-.75c.75-3,0-6-.75-7.5-1.5-2.25-3.75-3-6-3s-4.5.75-6.75,3c-1.5,2.25-3,4.5-3,8.25h-.75Z"/>
      <path class="cls-1" d="M429,279l-.75,4.5c1.5-1.5,2.25-3,3.75-3.75s3.75-1.5,5.25-1.5c2.25,0,4.5,1.5,5.25,3,1.5,1.5,2.25,3.75,1.5,6.75l-3,17.25h-3l3-17.25v-2.25c0-3-1.5-4.5-4.5-4.5-1.5,0-3,0-4.5,1.5-1.5.75-3,2.25-4.5,4.5l-3,18h-3l4.5-26.25h3Z"/>
      <path class="cls-1" d="M480,305.25v-3.75c-.75,1.5-2.25,2.25-3.75,3s-3.75,1.5-5.25,1.5c-2.25,0-3.75-.75-5.25-2.25s-2.25-3-2.25-5.25c0-1.5.75-3,2.25-4.5.75-1.5,2.25-2.25,4.5-3,1.5-.75,3.75-.75,6.75-.75h5.25v-3c.75-2.25,0-3.75-.75-4.5-1.5-1.5-2.25-1.5-4.5-1.5s-3.75,0-5.25,1.5c-1.5.75-2.25,2.25-2.25,3.75h-3c0-2.25,1.5-4.5,3.75-6,1.5-1.5,4.5-2.25,6.75-2.25,3,0,5.25,1.5,6.75,3s2.25,3,1.5,6l-2.25,13.5v4.5h-3ZM471.75,303.75c1.5,0,3-.75,4.5-1.5,2.25-.75,3-2.25,4.5-3.75l.75-6h-4.5c-3,0-5.25,0-7.5,1.5-1.5.75-3,2.25-3,4.5,0,1.5.75,2.25,1.5,3.75.75.75,2.25.75,3.75,1.5h0Z"/>
      <path class="cls-1" d="M498,279l-.75,4.5c.75-1.5,2.25-3,3.75-3.75s3-1.5,5.25-1.5,3.75,1.5,5.25,3,1.5,3.75,1.5,6.75l-3,17.25h-3l3-17.25v-2.25c-.75-3-2.25-4.5-4.5-4.5s-3.75,0-5.25,1.5c-1.5.75-3,2.25-3.75,4.5l-3,18h-3l4.5-26.25h3Z"/>
      <path class="cls-1" d="M519,292.5c0-3,.75-5.25,2.25-7.5.75-2.25,2.25-3.75,4.5-5.25,1.5-.75,3-1.5,5.25-1.5,1.5,0,3,.75,4.5,1.5.75.75,2.25,1.5,3,3l2.25-15h3l-6.75,37.5h-2.25l.75-3c-2.25,2.25-5.25,3.75-9,3.75-2.25,0-4.5-.75-5.25-3-1.5-1.5-2.25-4.5-2.25-7.5v-3h0ZM522,292.5v3.75c0,2.25,0,3.75,1.5,5.25.75,1.5,2.25,1.5,3.75,2.25,2.25,0,3.75-.75,5.25-1.5.75-.75,2.25-2.25,3-3.75l2.25-12c-.75-1.5-1.5-3-2.25-3.75-1.5-1.5-2.25-1.5-4.5-1.5s-4.5.75-6,3c-1.5,1.5-2.25,4.5-3,8.25h0Z"/>
      <path class="cls-1" d="M582,296.25c0-3-1.5-5.25-5.25-6.75l-4.5-1.5-1.5-.75c-4.5-1.5-6.75-4.5-6.75-8.25.75-2.25.75-3.75,2.25-5.25s3-2.25,4.5-3c2.25-.75,4.5-1.5,6-1.5,2.25,0,4.5.75,6,1.5s3,2.25,3.75,3.75.75,3.75.75,5.25h-3c.75-2.25,0-3.75-1.5-5.25s-3-2.25-6-2.25c-2.25,0-4.5,0-6.75,1.5-1.5,1.5-2.25,3-3,5.25,0,1.5.75,3,1.5,3.75,1.5,1.5,3.75,2.25,6.75,3,3.75,1.5,6,3,7.5,4.5s2.25,3.75,2.25,6c-.75,2.25-.75,3.75-2.25,5.25s-3,2.25-4.5,3c-2.25.75-4.5,1.5-6.75,1.5s-4.5-.75-6-1.5c-2.25-.75-3-2.25-4.5-3.75-.75-1.5-.75-3.75-.75-5.25h3c0,2.25.75,4.5,2.25,6s3.75,2.25,6,2.25c3,0,5.25-.75,6.75-2.25,2.25-1.5,3-3,3.75-5.25h0Z"/>
      <path class="cls-1" d="M593.25,305.25h-3l5.25-26.25h2.25l-4.5,26.25ZM596.25,271.5c0-1.5.75-1.5,1.5-2.25.75,0,1.5.75,1.5.75.75,0,.75.75.75,1.5s-.75.75-.75,1.5h-1.5c-1.5,0-1.5-.75-1.5-1.5h0Z"/>
      <path class="cls-1" d="M609.75,279l-1.5,4.5c3-3.75,6-5.25,9-5.25,2.25,0,3.75.75,5.25,1.5.75.75,1.5,2.25,2.25,3.75.75-1.5,2.25-3,3.75-3.75s3.75-1.5,5.25-1.5c3,0,4.5,1.5,6,3,.75,1.5,1.5,3.75,1.5,6.75h0l-3,17.25h-3l3-17.25v-2.25c-.75-3-2.25-4.5-5.25-4.5-2.25,0-3.75.75-5.25,1.5-1.5,1.5-3,3-3,5.25l-3,17.25h-3l3-17.25c0-4.5-1.5-6.75-5.25-6.75-1.5,0-3.75,0-5.25,1.5s-3,3-3,4.5l-3,18h-3l4.5-26.25h3Z"/>
      <path class="cls-1" d="M663,302.25c-2.25,2.25-4.5,3.75-8.25,3.75-3,0-4.5-.75-6-3-.75-1.5-1.5-3.75-1.5-6.75l3-17.25h3l-3,17.25v2.25c0,1.5.75,3,1.5,3.75s2.25.75,3,1.5c2.25,0,3.75-.75,6-1.5,1.5-1.5,2.25-2.25,3-3.75l3-19.5h3l-4.5,26.25h-3l.75-3Z"/>
      <polygon class="cls-1" points="676.5 305.25 673.5 305.25 680.25 267.75 683.25 267.75 676.5 305.25 676.5 305.25"/>
      <path class="cls-1" d="M701.25,305.25v-3.75c-.75,1.5-2.25,2.25-3.75,3s-3.75,1.5-5.25,1.5c-2.25,0-3.75-.75-5.25-2.25s-2.25-3-2.25-5.25c0-1.5.75-3,2.25-4.5.75-1.5,2.25-2.25,4.5-3,1.5-.75,3.75-.75,6.75-.75h5.25v-3c.75-2.25,0-3.75-.75-4.5-1.5-1.5-2.25-1.5-4.5-1.5s-3.75,0-5.25,1.5c-1.5.75-2.25,2.25-2.25,3.75h-3c0-2.25,1.5-4.5,3.75-6,1.5-1.5,4.5-2.25,6.75-2.25,3,0,5.25,1.5,6.75,3s2.25,3,1.5,6l-2.25,13.5v4.5h-3ZM693,303.75c1.5,0,3-.75,4.5-1.5,2.25-.75,3-2.25,4.5-3.75l.75-6h-4.5c-3,0-5.25,0-7.5,1.5-1.5.75-3,2.25-3,4.5,0,1.5.75,2.25,1.5,3.75.75.75,2.25.75,3.75,1.5h0Z"/>
      <path class="cls-1" d="M721.5,272.25l-1.5,6.75h5.25v2.25h-5.25l-3,18v1.5c0,1.5.75,2.25,2.25,2.25h2.25v2.25c-.75.75-2.25.75-3,.75-1.5,0-3-.75-3.75-2.25-.75-.75-.75-2.25-.75-4.5l3-18h-5.25l.75-2.25h4.5l1.5-6.75h3Z"/>
      <path class="cls-1" d="M730.5,305.25h-3l4.5-26.25h3l-4.5,26.25ZM732.75,271.5c0-1.5.75-1.5,2.25-2.25l.75.75c.75,0,.75.75.75,1.5s0,.75-.75,1.5h-1.5c-.75,0-1.5-.75-1.5-1.5h0Z"/>
      <path class="cls-1" d="M739.5,291.75c0-2.25.75-4.5,2.25-6.75s3-3.75,4.5-5.25c2.25-.75,4.5-1.5,6-1.5,2.25,0,4.5.75,6,2.25,1.5.75,2.25,2.25,3,4.5s1.5,4.5.75,6.75v.75c0,3.75-1.5,7.5-4.5,9.75-2.25,2.25-5.25,3.75-8.25,3.75s-6-1.5-7.5-3c-1.5-2.25-2.25-5.25-2.25-9v-2.25ZM742.5,292.5c-.75,2.25-.75,3.75,0,6,.75,1.5,1.5,2.25,2.25,3.75,1.5.75,3,1.5,4.5,1.5s3-.75,4.5-1.5,3-2.25,3.75-3.75c.75-2.25,1.5-3.75,1.5-6l.75-.75c0-3-.75-6-1.5-7.5-1.5-2.25-3.75-3-6-3s-4.5.75-6.75,3c-1.5,2.25-3,4.5-3,8.25h0Z"/>
      <path class="cls-1" d="M774,279l-.75,4.5c1.5-1.5,2.25-3,4.5-3.75,1.5-.75,3-1.5,4.5-1.5,2.25,0,4.5,1.5,5.25,3,1.5,1.5,2.25,3.75,1.5,6.75l-3,17.25h-3l3-17.25v-2.25c0-3-1.5-4.5-4.5-4.5-1.5,0-3,0-4.5,1.5-1.5.75-3,2.25-4.5,4.5l-3,18h-3l5.25-26.25h2.25Z"/>
      <path class="cls-1" d="M825.75,265.5v2.25c-2.25,1.5-4.5,3.75-6.75,7.5-1.5,3-3,6.75-4.5,11.25-.75,4.5-1.5,9-1.5,12.75v2.25c.75,6,2.25,10.5,6,13.5l-1.5,2.25c-3-3-5.25-6.75-6-12-.75-3-.75-6-.75-9.75s.75-8.25,2.25-12.75c1.5-3.75,3-7.5,5.25-10.5s4.5-5.25,7.5-6.75h0Z"/>
      <path class="cls-1" d="M825,305.25l6-35.25h9c3,0,5.25.75,7.5,2.25,1.5,1.5,3,3,4.5,5.25.75,3,.75,5.25.75,8.25l-.75,3c-.75,5.25-3,9-6,12s-6.75,4.5-12,4.5h-9ZM833.25,272.25l-5.25,30.75h6.75c2.25,0,4.5-.75,6.75-1.5,1.5-1.5,3.75-3,4.5-5.25,1.5-2.25,2.25-4.5,3-6.75.75-3,.75-4.5.75-5.25v-3c-.75-3-1.5-5.25-3-6.75s-3.75-2.25-6.75-2.25h-6.75Z"/>
      <path class="cls-1" d="M876.75,295.5h-15.75l-5.25,9.75h-3l18.75-35.25h3l6.75,35.25h-3l-1.5-9.75h0ZM862.5,293.25h13.5l-3.75-19.5-9.75,19.5h0Z"/>
      <polygon class="cls-1" points="896.25 300.75 896.25 301.5 896.25 300.75 912 270 915.75 270 897 305.25 894 305.25 887.25 270 890.25 270 896.25 300.75 896.25 300.75"/>
      <path class="cls-1" d="M918,305.25h-3l5.25-26.25h3l-5.25,26.25ZM921,271.5c0-1.5.75-1.5,2.25-2.25l.75.75c.75,0,.75.75.75,1.5s-.75.75-.75,1.5h-1.5c-1.5,0-1.5-.75-1.5-1.5h0Z"/>
      <path class="cls-1" d="M948,296.25c.75-3-.75-5.25-4.5-6.75l-4.5-1.5-1.5-.75c-5.25-1.5-6.75-4.5-6.75-8.25,0-2.25.75-3.75,2.25-5.25.75-1.5,2.25-2.25,4.5-3s3.75-1.5,6-1.5,4.5.75,6,1.5,3,2.25,3.75,3.75.75,3.75.75,5.25h-3c0-2.25-.75-3.75-1.5-5.25-1.5-1.5-3.75-2.25-6-2.25s-4.5,0-6.75,1.5c-1.5,1.5-3,3-3,5.25,0,1.5,0,3,1.5,3.75,1.5,1.5,3,2.25,6,3,3.75,1.5,6.75,3,8.25,4.5s2.25,3.75,1.5,6c0,2.25-.75,3.75-1.5,5.25-1.5,1.5-3,2.25-5.25,3-1.5.75-3.75,1.5-6,1.5s-4.5-.75-6-1.5c-2.25-.75-3.75-2.25-4.5-3.75s-1.5-3.75-.75-5.25h3c-.75,2.25,0,4.5,1.5,6s3.75,2.25,6.75,2.25,5.25-.75,6.75-2.25c2.25-1.5,3-3,3-5.25h0Z"/>
      <path class="cls-1" d="M966,291c-.75,6.75-3,12-5.25,16.5-3,4.5-6,7.5-9.75,9.75v-2.25c3-2.25,5.25-5.25,7.5-9,2.25-4.5,3.75-9,4.5-14.25v-.75c.75-3,.75-5.25.75-8.25,0-3.75-.75-6.75-1.5-9-1.5-3-2.25-5.25-3.75-6l.75-2.25c2.25,2.25,4.5,4.5,5.25,8.25,1.5,3.75,2.25,8.25,1.5,12.75v4.5h0Z"/>
    </g>
  </g>
</svg>