<?xml version="1.0" encoding="UTF-8" standalone="no"?>
<!-- Generator: Adobe Illustrator 23.0.4, SVG Export Plug-In . SVG Version: 6.00 Build 0)  -->

<svg
   xmlns:dc="http://purl.org/dc/elements/1.1/"
   xmlns:cc="http://creativecommons.org/ns#"
   xmlns:rdf="http://www.w3.org/1999/02/22-rdf-syntax-ns#"
   xmlns:svg="http://www.w3.org/2000/svg"
   xmlns="http://www.w3.org/2000/svg"
   xmlns:sodipodi="http://sodipodi.sourceforge.net/DTD/sodipodi-0.dtd"
   xmlns:inkscape="http://www.inkscape.org/namespaces/inkscape"
   version="1.1"
   id="Ebene_1"
   x="0px"
   y="0px"
   viewBox="0 0 276.8301 74.558456"
   xml:space="preserve"
   sodipodi:docname="FHGR_ITF_d_rgb_granit.svg"
   inkscape:version="0.92.3 (2405546, 2018-03-11)"
   width="276.83011"
   height="74.558456"><metadata
   id="metadata25"><rdf:RDF><cc:Work
       rdf:about=""><dc:format>image/svg+xml</dc:format><dc:type
         rdf:resource="http://purl.org/dc/dcmitype/StillImage" /></cc:Work></rdf:RDF></metadata><defs
   id="defs23" /><sodipodi:namedview
   pagecolor="#ffffff"
   bordercolor="#666666"
   borderopacity="1"
   objecttolerance="10"
   gridtolerance="10"
   guidetolerance="10"
   inkscape:pageopacity="0"
   inkscape:pageshadow="2"
   inkscape:window-width="1920"
   inkscape:window-height="1121"
   id="namedview21"
   showgrid="false"
   inkscape:zoom="0.50352789"
   inkscape:cx="-219.45159"
   inkscape:cy="104.25536"
   inkscape:window-x="-9"
   inkscape:window-y="-9"
   inkscape:window-maximized="1"
   inkscape:current-layer="Ebene_1" />
<style
   type="text/css"
   id="style2">
	.st0{fill:#817E65;}
</style>
<g
   id="g10"
   transform="scale(0.30307655)">
	<g
   id="g8">
		<path
   class="st0"
   d="M 103.6,80.4 H 87.2 v 16.4 h 9.8 6 0.5 c 4.5,0 8.2,-3.7 8.2,-8.2 0,-4.5 -3.6,-8.2 -8.1,-8.2 z"
   id="path4"
   inkscape:connector-curvature="0"
   style="fill:#817e65" />
		<path
   class="st0"
   d="M 0,0 V 141.7 H 141.7 V 0 Z m 30,17.7 h 5.5 27.3 v 5.5 H 35.4 V 39.6 H 57.2 V 45 H 35.4 V 66.8 H 30 Z m 38.1,84.5 v 4.6 10.2 c -0.2,0.2 -0.3,0.4 -0.5,0.6 -1.4,1.5 -3,2.7 -4.6,3.8 -0.1,0.1 -0.2,0.1 -0.3,0.2 -9.9,6.1 -23,5 -31.7,-3.4 C 20.7,108.2 20.5,91.8 30.5,81.6 40.5,71.4 56.9,71.1 67.1,81.1 L 63.3,85 c -8.1,-7.9 -21,-7.7 -28.9,0.4 -7.9,8.1 -7.7,21 0.4,28.9 7.8,7.5 19.9,7.7 27.9,0.6 V 102.4 H 46.3 V 96.9 H 68.1 Z M 79,66.8 H 73.5 V 17.7 H 79 v 21.8 h 27.3 V 17.7 h 5.5 v 49.1 h -5.5 V 45 H 79 Z m 38.2,57.2 h -6.5 L 99.8,102.2 H 87.2 V 124 H 81.7 V 75 h 5.5 16.4 c 7.5,0 13.6,6.1 13.6,13.6 0,6.8 -5,12.4 -11.4,13.4 z"
   id="path6"
   inkscape:connector-curvature="0"
   style="fill:#817e65" />
	</g>
</g>
<g
   id="g18"
   transform="scale(0.30307655)">
	<path
   class="st0"
   d="m 906.5,212.3 -1.2,6.8 h -4.7 l -0.4,2.4 h 4.7 L 902,239 c -0.2,2.2 0.1,3.9 0.9,5.1 0.8,1.2 2,1.8 3.7,1.8 1,0 2,-0.1 2.9,-0.4 l 0.1,-2.4 c -1.1,0.1 -1.9,0.2 -2.4,0.2 -1.6,0 -2.4,-1 -2.4,-2.7 v -1.5 l 2.9,-17.6 h 5.3 l 0.4,-2.4 h -5.3 l 1.2,-6.8 z m -11.5,1.1 c 0.6,-0.1 1.1,-0.3 1.4,-0.6 0.3,-0.3 0.5,-0.7 0.7,-1.4 -0.1,-0.7 -0.3,-1.1 -0.5,-1.4 -0.3,-0.3 -0.7,-0.5 -1.4,-0.6 -1.3,0.3 -2,0.9 -2.1,2 0,1.1 0.6,1.8 1.9,2 m 0.2,5.6 h -2.9 l -4.6,26.4 h 2.9 z m -15.7,4.6 c 1.1,1.7 1.5,3.7 1.2,6 l -0.1,0.4 h -15.3 c 0.8,-2.9 2.1,-5.1 3.8,-6.7 1.7,-1.6 3.6,-2.3 5.7,-2.2 2,0 3.6,0.9 4.7,2.5 m -2.4,21.2 c 1.6,-0.8 3,-1.9 4.2,-3.5 l -1.7,-1.4 c -1.1,1.1 -2.2,2 -3.5,2.6 -1.3,0.7 -2.7,1 -4.2,0.9 -1.6,0 -3,-0.5 -4.1,-1.5 -1.1,-1 -2,-2.2 -2.5,-3.9 -0.5,-1.6 -0.6,-3.3 -0.4,-5.1 l 0.1,-0.6 h 18.3 l 0.2,-1.8 c 0.2,-2.2 0,-4.3 -0.6,-6.2 -0.6,-1.9 -1.6,-3.3 -3,-4.3 -1.4,-1 -3,-1.6 -5,-1.6 -2.1,0 -4.1,0.5 -6,1.7 -1.9,1.2 -3.4,2.8 -4.6,5.1 -1.2,2.2 -1.9,4.5 -2.2,7 L 862,233 c -0.2,2.3 0,4.4 0.8,6.4 0.7,2 1.9,3.5 3.4,4.7 1.5,1.1 3.4,1.7 5.5,1.8 2,0.1 3.7,-0.3 5.4,-1.1 m -17.3,-23.4 0.4,-2.3 h -18.7 l -0.4,2.5 h 15 l -19.2,21.6 -0.4,2.3 h 20.2 l 0.4,-2.5 h -16.5 z m -25.1,-8 c 0.6,-0.1 1.1,-0.3 1.4,-0.6 0.3,-0.3 0.5,-0.7 0.7,-1.4 -0.1,-0.7 -0.3,-1.1 -0.5,-1.4 -0.3,-0.3 -0.7,-0.5 -1.4,-0.6 -1.3,0.3 -2,0.9 -2.1,2 -0.1,1.1 0.5,1.8 1.9,2 m 0.2,5.6 H 832 l -4.6,26.4 h 2.9 z m -15.8,4.6 c 1.1,1.7 1.5,3.7 1.2,6 l -0.1,0.4 h -15.3 c 0.8,-2.9 2.1,-5.1 3.8,-6.7 1.7,-1.6 3.6,-2.3 5.7,-2.2 2.1,0 3.6,0.9 4.7,2.5 m -2.4,21.2 c 1.6,-0.8 3,-1.9 4.2,-3.5 l -1.7,-1.4 c -1.1,1.1 -2.2,2 -3.5,2.6 -1.3,0.7 -2.7,1 -4.2,0.9 -1.6,0 -3,-0.5 -4.1,-1.5 -1.1,-1 -2,-2.2 -2.5,-3.9 -0.5,-1.6 -0.6,-3.3 -0.4,-5.1 l 0.1,-0.6 h 18.3 l 0.2,-1.8 c 0.2,-2.2 0,-4.3 -0.6,-6.2 -0.6,-1.9 -1.6,-3.3 -3,-4.3 -1.4,-1 -3,-1.6 -5,-1.6 -2.1,0 -4.1,0.5 -6,1.7 -1.9,1.2 -3.4,2.8 -4.6,5.1 -1.2,2.2 -1.9,4.5 -2.2,7 l -0.1,0.8 c -0.2,2.3 0,4.4 0.8,6.4 0.7,2 1.9,3.5 3.4,4.7 1.5,1.1 3.4,1.7 5.5,1.8 2,0.1 3.8,-0.3 5.4,-1.1 m -16.1,-25.9 c -0.8,-0.2 -1.4,-0.3 -2,-0.3 -1.6,0 -3.1,0.4 -4.5,1.2 -1.4,0.8 -2.5,2 -3.5,3.6 l 0.9,-4.2 h -2.9 l -4.6,26.4 h 2.9 l 3.1,-18.2 c 0.5,-1.7 1.6,-3.2 3.1,-4.3 1.5,-1.1 3.2,-1.7 5.1,-1.7 0.7,0 1.3,0.1 1.9,0.2 z m -20.3,7.4 h -16.1 l 2.4,-13.8 H 785 l 0.5,-2.5 h -21.4 l -6.2,35.5 h 3 l 2.9,-16.6 h 16.1 z m -60.6,5.9 c 0.5,-3.5 1.5,-6.2 3.2,-8.2 1.7,-2 3.7,-2.9 6.2,-2.8 1.7,0 3.1,0.5 4.1,1.4 1.1,0.9 1.9,2.1 2.3,3.7 l -2.1,12.4 c -0.9,1.5 -2.1,2.6 -3.5,3.5 -1.4,0.9 -3,1.3 -4.8,1.2 -1.8,-0.1 -3.2,-0.7 -4.1,-2 -1,-1.3 -1.5,-3 -1.5,-5.2 0,-1.2 0,-2.4 0.1,-3.5 z m -3.1,0.5 c -0.1,0.9 -0.2,1.9 -0.1,2.9 0.1,3.1 0.8,5.6 2.2,7.5 1.4,1.8 3.3,2.8 5.8,2.9 3.4,0.1 6.2,-1.2 8.5,-4 l -0.7,3.5 h 2.7 l 6.5,-37.5 h -2.9 l -2.7,14.8 c -0.7,-1.4 -1.8,-2.4 -3.1,-3.1 -1.3,-0.7 -2.7,-1.1 -4.3,-1.1 -2.1,0 -3.9,0.4 -5.6,1.5 -1.7,1 -3,2.6 -4.2,4.8 -1.1,2.1 -1.9,4.6 -2.3,7.4 z m -23.8,-13.7 -4.6,26.4 h 2.9 l 3.1,-18.1 c 1.1,-2.1 2.4,-3.7 3.9,-4.7 1.5,-1 3.1,-1.6 4.8,-1.5 2.9,0.1 4.5,1.6 4.7,4.5 0.1,0.9 0,1.8 0,2.7 l -2.9,17.2 h 2.9 l 2.9,-17.2 c 0.3,-3 -0.1,-5.3 -1.2,-7.1 -1.2,-1.7 -3,-2.6 -5.5,-2.7 -1.8,0 -3.4,0.4 -4.9,1.3 -1.5,0.9 -2.9,2.1 -4.1,3.7 l 0.9,-4.5 z m -15.7,26.5 h 2.8 l 4.6,-26.4 h -2.9 l -3.3,19.1 c -0.5,1.6 -1.6,2.9 -3.2,3.9 -1.7,1 -3.5,1.4 -5.4,1.4 -1.4,0 -2.4,-0.5 -3.2,-1.3 -0.8,-0.8 -1.2,-2 -1.3,-3.5 -0.1,-0.9 -0.1,-1.7 0,-2.6 l 2.8,-17 h -2.9 l -2.8,16.9 c -0.3,3.1 0.1,5.5 1.3,7.3 1.2,1.8 3.1,2.6 5.6,2.7 3.7,0.1 6.6,-1.2 8.7,-3.8 z m -41.8,-3.3 c -1.4,0.9 -3,1.3 -5,1.3 -2,0 -3.5,-0.5 -4.6,-1.5 -1.1,-1 -1.7,-2.3 -1.7,-3.9 h -2.9 c -0.1,1.5 0.2,2.9 1,4.1 0.8,1.2 1.9,2.1 3.3,2.8 1.4,0.7 3,1 4.8,1 h 1 c 2.7,-0.2 4.9,-0.9 6.6,-2.3 1.7,-1.4 2.6,-3.1 2.7,-5.2 0.2,-3.1 -1.5,-5.4 -5.2,-6.8 l -1.6,-0.6 -3.1,-0.9 c -2.8,-0.8 -4.1,-2.3 -3.9,-4.4 0.2,-1.4 0.9,-2.6 2.1,-3.5 1.3,-0.9 2.8,-1.3 4.7,-1.3 1.8,0 3.2,0.5 4.3,1.5 1.1,1 1.6,2.3 1.5,3.9 h 2.9 c 0.1,-2.4 -0.6,-4.3 -2.2,-5.7 -1.6,-1.4 -3.7,-2.2 -6.3,-2.2 -2.6,0 -4.9,0.6 -6.8,2 -1.9,1.4 -2.9,3.2 -3,5.4 -0.2,3 1.6,5.2 5.5,6.5 l 4.2,1.2 c 3,1 4.4,2.6 4.1,4.9 -0.2,1.6 -1,2.8 -2.4,3.7 m -25,3.3 h 2.8 l 4.6,-26.4 h -2.9 l -3.3,19.1 c -0.5,1.6 -1.6,2.9 -3.2,3.9 -1.6,1 -3.5,1.4 -5.4,1.4 -1.4,0 -2.4,-0.5 -3.2,-1.3 -0.8,-0.8 -1.2,-2 -1.3,-3.5 -0.1,-0.9 -0.1,-1.7 0,-2.6 l 2.8,-17 h -2.9 l -2.8,16.9 c -0.3,3.1 0.1,5.5 1.3,7.3 1.2,1.8 3.1,2.6 5.6,2.7 3.7,0.1 6.6,-1.2 8.7,-3.8 z m -55.9,-26.5 -4.6,26.4 h 2.9 l 3.1,-18.1 c 0.6,-1.8 1.6,-3.3 3.2,-4.5 1.6,-1.2 3.4,-1.8 5.2,-1.8 3.8,0.1 5.4,2.4 5,6.9 l -2.9,17.5 h 2.9 l 3,-17.5 c 0.4,-2 1.5,-3.6 3.1,-5 1.7,-1.3 3.5,-2 5.5,-1.9 3,0 4.6,1.5 4.9,4.4 0.1,0.9 0.1,1.8 0,2.7 l -2.9,17.2 h 2.9 l 2.9,-17.2 v -0.6 c 0.2,-2.8 -0.3,-5 -1.5,-6.7 -1.2,-1.6 -3.1,-2.4 -5.6,-2.5 -1.9,0 -3.6,0.4 -5.2,1.3 -1.6,0.9 -3,2.2 -4.2,3.8 -0.3,-1.6 -1.1,-2.8 -2.3,-3.7 -1.2,-0.9 -2.8,-1.4 -4.6,-1.4 -3.6,-0.1 -6.6,1.5 -9,4.8 l 0.8,-4.3 h -2.6 z m -15.6,23.2 c -1.4,0.9 -3,1.3 -5,1.3 -2,0 -3.5,-0.5 -4.6,-1.5 -1.1,-1 -1.7,-2.3 -1.7,-3.9 h -2.9 c -0.1,1.5 0.2,2.9 1,4.1 0.8,1.2 1.9,2.1 3.3,2.8 1.4,0.7 3,1 4.8,1 h 1 c 2.7,-0.2 4.9,-0.9 6.6,-2.3 1.7,-1.4 2.6,-3.1 2.7,-5.2 0.2,-3.1 -1.5,-5.4 -5.2,-6.8 l -1.6,-0.6 -3.1,-0.9 c -2.8,-0.8 -4.1,-2.3 -3.9,-4.4 0.2,-1.4 0.9,-2.6 2.1,-3.5 1.3,-0.9 2.8,-1.3 4.7,-1.3 1.8,0 3.2,0.5 4.3,1.5 1.1,1 1.6,2.3 1.5,3.9 h 2.9 c 0.1,-2.4 -0.6,-4.3 -2.2,-5.7 -1.6,-1.4 -3.7,-2.2 -6.3,-2.2 -2.6,0 -4.9,0.6 -6.8,2 -1.9,1.4 -2.9,3.2 -3,5.4 -0.2,3 1.6,5.2 5.5,6.5 l 4.2,1.2 c 3,1 4.4,2.6 4.1,4.9 -0.2,1.6 -1,2.8 -2.4,3.7 m -18.2,-28.8 c 0.6,-0.1 1.1,-0.3 1.4,-0.6 0.3,-0.3 0.5,-0.7 0.7,-1.4 -0.1,-0.7 -0.3,-1.1 -0.5,-1.4 -0.3,-0.3 -0.7,-0.5 -1.4,-0.6 -1.3,0.3 -2,0.9 -2.1,2 0,1.1 0.6,1.8 1.9,2 m 0.2,5.6 h -2.9 l -4.6,26.4 h 2.9 z m -8.4,-0.1 c -0.8,-0.2 -1.4,-0.3 -2,-0.3 -1.6,0 -3.1,0.4 -4.5,1.2 -1.4,0.8 -2.5,2 -3.5,3.6 l 0.9,-4.2 h -2.9 l -4.6,26.4 h 2.9 l 3.1,-18.2 c 0.5,-1.7 1.6,-3.2 3.1,-4.3 1.5,-1.1 3.2,-1.7 5.1,-1.7 0.7,0 1.3,0.1 1.9,0.2 z m -27.6,26.6 h 2.8 l 4.6,-26.4 h -2.9 l -3.3,19.1 c -0.5,1.6 -1.6,2.9 -3.2,3.9 -1.6,1 -3.5,1.4 -5.4,1.4 -1.4,0 -2.4,-0.5 -3.2,-1.3 -0.8,-0.8 -1.2,-2 -1.3,-3.5 -0.1,-0.9 -0.1,-1.7 0,-2.6 l 2.8,-17 h -2.9 L 470,236 c -0.3,3.1 0.1,5.5 1.3,7.3 1.2,1.8 3.1,2.6 5.6,2.7 3.7,0.1 6.6,-1.2 8.7,-3.8 z m -41,-13.1 c 0.4,-3.5 1.6,-6.2 3.5,-8.3 1.9,-2.1 4.1,-3.1 6.7,-3 2.4,0 4.2,1.1 5.5,3.1 1.3,2 1.7,4.6 1.5,7.7 l -0.1,0.8 c -0.3,2.1 -0.9,3.9 -1.8,5.6 -0.9,1.7 -2.1,3 -3.6,3.9 -1.5,0.9 -3.1,1.4 -4.8,1.3 -1.6,0 -3,-0.5 -4.1,-1.5 -1.1,-0.9 -1.9,-2.2 -2.4,-3.8 -0.5,-1.6 -0.6,-3.4 -0.4,-5.4 z m -2.9,0.4 -0.1,1.4 c 0,3.5 0.8,6.3 2.6,8.4 1.8,2.1 4.1,3.2 7.1,3.3 3.4,0.1 6.4,-1.1 8.9,-3.7 2.5,-2.5 3.9,-5.9 4.4,-10 v -0.5 c 0.2,-2.4 0,-4.7 -0.7,-6.7 -0.7,-2 -1.8,-3.6 -3.4,-4.8 -1.5,-1.2 -3.4,-1.8 -5.6,-1.8 -2.2,0 -4.3,0.5 -6.2,1.6 -1.9,1.1 -3.5,2.7 -4.7,4.8 -1.3,2.1 -2.1,4.5 -2.3,7 z m 4,-22.9 h -26.6 l -0.5,2.5 h 11.8 l -5.7,33 h 3 l 5.7,-33 h 11.8 z m -44.8,9 c -0.8,-0.2 -1.4,-0.3 -2,-0.3 -1.6,0 -3.1,0.4 -4.5,1.2 -1.4,0.8 -2.5,2 -3.5,3.6 l 0.9,-4.2 h -2.9 l -4.6,26.4 h 2.9 l 3.1,-18.2 c 0.5,-1.7 1.6,-3.2 3.1,-4.3 1.5,-1.1 3.2,-1.7 5.1,-1.7 0.7,0 1.3,0.1 1.9,0.2 z m -24.8,-6.1 c 0.4,0.4 0.8,0.6 1.4,0.6 0.5,0 1,-0.2 1.4,-0.6 0.4,-0.4 0.6,-0.8 0.7,-1.4 0,-0.6 -0.1,-1 -0.5,-1.4 -0.4,-0.4 -0.8,-0.6 -1.4,-0.6 -0.5,0 -1,0.2 -1.4,0.6 -0.4,0.4 -0.7,0.9 -0.7,1.4 0,0.6 0.2,1 0.5,1.4 m -10.3,0 c 0.4,0.4 0.8,0.5 1.4,0.5 0.5,0 1,-0.2 1.4,-0.6 0.4,-0.4 0.6,-0.8 0.7,-1.4 0,-0.6 -0.1,-1 -0.5,-1.4 -0.4,-0.4 -0.8,-0.6 -1.4,-0.6 -0.6,0 -1.1,0.2 -1.4,0.6 -0.4,0.4 -0.6,0.9 -0.6,1.4 -0.2,0.7 0,1.1 0.4,1.5 m 7.5,32.7 h 2.8 l 4.6,-26.4 H 377 l -3.3,19.1 c -0.5,1.6 -1.6,2.9 -3.2,3.9 -1.7,1 -3.5,1.4 -5.4,1.4 -1.4,0 -2.4,-0.5 -3.2,-1.3 -0.8,-0.8 -1.2,-2 -1.3,-3.5 -0.1,-0.9 -0.1,-1.7 0,-2.6 l 2.8,-17 h -2.9 l -2.8,16.9 c -0.3,3.1 0.1,5.5 1.3,7.3 1.2,1.8 3.1,2.6 5.6,2.7 3.7,0.1 6.6,-1.2 8.7,-3.8 z m -28.5,0 4.2,-24 h 6.1 l 0.4,-2.4 h -6.1 l 0.5,-3.1 c 0.3,-1.9 0.9,-3.4 2,-4.4 1.1,-1.1 2.4,-1.6 4,-1.6 0.8,0 1.7,0.1 2.6,0.4 l 0.5,-2.4 c -1.2,-0.3 -2.3,-0.5 -3.2,-0.5 -2.3,0 -4.3,0.7 -5.9,2.1 -1.6,1.4 -2.6,3.4 -3,6 l -0.5,3.6 h -4.2 l -0.4,2.4 h 4.2 l -4.2,24 h 3 z m -28,-33.2 -1.2,6.8 h -4.7 l -0.4,2.4 h 4.7 l -2.9,17.6 c -0.2,2.2 0.1,3.9 0.9,5.1 0.8,1.2 2,1.8 3.7,1.8 1,0 2,-0.1 2.9,-0.4 l 0.1,-2.4 c -1.1,0.1 -1.9,0.2 -2.4,0.2 -1.6,0 -2.4,-1 -2.4,-2.7 v -1.5 l 2.9,-17.6 h 5.3 l 0.4,-2.4 h -5.3 l 1.2,-6.8 H 316 Z m -18.4,33.2 h 2.8 L 305,219 h -2.9 l -3.3,19.1 c -0.5,1.6 -1.6,2.9 -3.2,3.9 -1.7,1 -3.5,1.4 -5.4,1.4 -1.4,0 -2.4,-0.5 -3.2,-1.3 -0.8,-0.8 -1.2,-2 -1.3,-3.5 -0.1,-0.9 -0.1,-1.7 0,-2.6 l 2.8,-17 h -2.9 l -2.8,16.9 c -0.3,3.1 0.1,5.5 1.3,7.3 1.2,1.8 3.1,2.6 5.6,2.7 3.7,0.1 6.6,-1.2 8.7,-3.8 z m -25.2,-33.2 -1.2,6.8 h -4.7 l -0.4,2.4 h 4.7 l -2.9,17.6 c -0.2,2.2 0.1,3.9 0.9,5.1 0.8,1.2 2,1.8 3.7,1.8 1,0 2,-0.1 2.9,-0.4 l 0.1,-2.4 c -1.1,0.1 -1.9,0.2 -2.4,0.2 -1.6,0 -2.4,-1 -2.4,-2.7 v -1.5 l 2.9,-17.6 h 5.3 l 0.4,-2.4 H 274 l 1.2,-6.8 h -2.8 z m -11.6,1.1 c 0.6,-0.1 1.1,-0.3 1.4,-0.6 0.3,-0.3 0.5,-0.7 0.7,-1.4 -0.1,-0.7 -0.3,-1.1 -0.5,-1.4 -0.3,-0.3 -0.7,-0.5 -1.4,-0.6 -1.3,0.3 -2,0.9 -2.1,2 0,1.1 0.6,1.8 1.9,2 m 0.3,5.6 h -2.9 l -4.6,26.4 h 2.9 z m -16.5,-6.7 -1.2,6.8 h -4.7 l -0.4,2.4 h 4.7 l -2.9,17.6 c -0.2,2.2 0.1,3.9 0.9,5.1 0.8,1.2 2,1.8 3.7,1.8 1,0 2,-0.1 2.9,-0.4 l 0.1,-2.4 c -1.1,0.1 -1.9,0.2 -2.4,0.2 -1.6,0 -2.4,-1 -2.4,-2.7 v -1.5 l 2.9,-17.6 h 5.3 l 0.4,-2.4 h -5.3 l 1.2,-6.8 h -2.8 z m -17.9,29.9 c -1.4,0.9 -3,1.3 -5,1.3 -2,0 -3.5,-0.5 -4.6,-1.5 -1.1,-1 -1.7,-2.3 -1.7,-3.9 h -2.9 c -0.1,1.5 0.2,2.9 1,4.1 0.8,1.2 1.9,2.1 3.3,2.8 1.4,0.7 3,1 4.8,1 h 1 c 2.7,-0.2 4.9,-0.9 6.6,-2.3 1.7,-1.4 2.6,-3.1 2.7,-5.2 0.2,-3.1 -1.5,-5.4 -5.2,-6.8 l -1.6,-0.6 -3.1,-0.9 c -2.8,-0.8 -4.1,-2.3 -3.9,-4.4 0.2,-1.4 0.9,-2.6 2.1,-3.5 1.3,-0.9 2.8,-1.3 4.7,-1.3 1.8,0 3.2,0.5 4.3,1.5 1.1,1 1.6,2.3 1.5,3.9 h 2.9 c 0.1,-2.4 -0.6,-4.3 -2.2,-5.7 -1.6,-1.4 -3.7,-2.2 -6.3,-2.2 -2.6,0 -4.9,0.6 -6.8,2 -1.9,1.4 -2.9,3.2 -3,5.4 -0.2,3 1.6,5.2 5.5,6.5 l 4.2,1.2 c 3,1 4.4,2.6 4.1,4.9 -0.2,1.6 -1,2.8 -2.4,3.7 m -36.9,-23.2 -4.6,26.4 h 2.9 l 3.1,-18.1 c 1.1,-2.1 2.4,-3.7 3.9,-4.7 1.5,-1 3.1,-1.6 4.8,-1.5 2.9,0.1 4.5,1.6 4.7,4.5 0.1,0.9 0,1.8 0,2.7 l -2.9,17.2 h 2.9 l 2.9,-17.2 c 0.3,-3 -0.1,-5.3 -1.2,-7.1 -1.2,-1.7 -3,-2.6 -5.5,-2.7 -1.8,0 -3.4,0.4 -4.9,1.3 -1.5,0.9 -2.9,2.1 -4.1,3.7 l 0.9,-4.5 z m -8,-9.1 h -3 l -6.2,35.5 h 3 z"
   id="path12"
   inkscape:connector-curvature="0"
   style="fill:#817e65" />
	<path
   class="st0"
   d="m 838.9,119.1 c -1.3,0.9 -2.9,1.3 -4.9,1.3 -2.2,0 -3.9,-0.5 -5.3,-1.4 -1.3,-1 -2,-2.3 -2.2,-4 h -2.9 c 0,2.3 1,4.2 2.9,5.7 1.9,1.5 4.4,2.2 7.5,2.2 2.9,0 5.2,-0.7 7,-2 1.8,-1.3 2.7,-3.1 2.7,-5.3 0,-1.4 -0.3,-2.5 -0.9,-3.5 -0.6,-1 -1.6,-1.8 -2.8,-2.5 -1.3,-0.7 -3.2,-1.3 -5.8,-1.9 -2.6,-0.6 -4.3,-1.3 -5.3,-2 -1,-0.7 -1.5,-1.7 -1.5,-3.1 0,-1.4 0.6,-2.5 1.7,-3.3 1.2,-0.9 2.7,-1.3 4.6,-1.3 2,0 3.6,0.5 4.9,1.5 1.3,1 1.9,2.3 1.9,3.9 h 2.9 c 0,-2.3 -0.9,-4.2 -2.7,-5.7 -1.8,-1.5 -4.1,-2.2 -7.1,-2.2 -2.7,0 -4.9,0.7 -6.7,2 -1.7,1.4 -2.6,3.1 -2.6,5.2 0,1.3 0.3,2.4 0.9,3.4 0.6,0.9 1.6,1.7 2.9,2.4 1.3,0.6 3.1,1.2 5.5,1.7 2.3,0.5 4.1,1.2 5.3,2.1 1.2,0.9 1.7,2 1.7,3.5 0.2,1.3 -0.4,2.4 -1.7,3.3 m -25.2,-18.7 c 1.4,1.6 2.1,3.7 2.2,6.2 v 0.3 h -15.8 c 0.3,-2.7 1.2,-4.9 2.7,-6.5 1.5,-1.6 3.4,-2.4 5.6,-2.4 2.2,0 4,0.8 5.3,2.4 m 4.6,17.8 -1.8,-1.4 c -1,1.3 -2.1,2.2 -3.3,2.7 -1.2,0.6 -2.6,0.9 -4.1,0.9 -2.6,0 -4.8,-1 -6.5,-3 -1.7,-2 -2.6,-4.5 -2.6,-7.5 v -0.6 h 18.8 v -1.6 c 0,-3.8 -0.9,-6.8 -2.8,-9 -1.9,-2.2 -4.4,-3.3 -7.6,-3.3 -2.1,0 -4,0.6 -5.7,1.7 -1.8,1.2 -3.1,2.8 -4.1,4.8 -1,2 -1.5,4.3 -1.5,6.9 v 1 c 0,2.5 0.5,4.7 1.5,6.7 1,2 2.4,3.5 4.2,4.6 1.8,1.1 3.8,1.7 6.1,1.7 4.1,0.1 7.2,-1.4 9.4,-4.6 m -42.6,-0.6 c -1.5,-1.9 -2.2,-4.5 -2.2,-7.9 v -0.9 c 0,-3.4 0.7,-6.1 2.2,-8 1.5,-1.9 3.5,-2.9 6.1,-2.9 2.1,0 3.8,0.6 5.1,1.9 1.4,1.3 2.1,2.9 2.2,5 h 2.8 c -0.1,-2.8 -1.1,-5.1 -3,-6.8 -1.9,-1.7 -4.3,-2.6 -7.2,-2.6 -2.3,0 -4.3,0.5 -6,1.6 -1.7,1.1 -3,2.6 -3.9,4.6 -0.9,2 -1.4,4.3 -1.4,6.9 v 0.9 c 0,4.1 1,7.3 3,9.7 2,2.4 4.8,3.6 8.2,3.6 1.8,0 3.4,-0.4 4.9,-1.1 1.5,-0.7 2.8,-1.8 3.7,-3.1 0.9,-1.3 1.4,-2.8 1.5,-4.4 h -2.8 c -0.1,1.8 -0.9,3.3 -2.2,4.5 -1.4,1.1 -3.1,1.7 -5.1,1.7 -2.4,0.1 -4.4,-0.8 -5.9,-2.7 M 744,96 v 26.4 h 2.9 v -18.1 c 0.7,-1.9 1.7,-3.4 3.1,-4.6 1.4,-1.1 3,-1.7 4.8,-1.7 2.2,0 3.7,0.6 4.7,1.7 1,1.2 1.5,2.9 1.5,5.3 v 17.4 h 2.9 v -17.3 c 0,-3.2 -0.7,-5.6 -2.1,-7.2 -1.4,-1.6 -3.5,-2.4 -6.3,-2.4 -1.8,0 -3.4,0.4 -4.9,1.3 -1.5,0.9 -2.7,2.1 -3.7,3.7 L 746.8,96 Z m -11.6,4.4 c 1.4,1.6 2.1,3.7 2.2,6.2 v 0.3 h -15.8 c 0.3,-2.7 1.2,-4.9 2.7,-6.5 1.5,-1.6 3.4,-2.4 5.6,-2.4 2.2,0 4,0.8 5.3,2.4 m 4.6,17.8 -1.8,-1.4 c -1,1.3 -2.1,2.2 -3.3,2.7 -1.2,0.6 -2.6,0.9 -4.1,0.9 -2.6,0 -4.8,-1 -6.5,-3 -1.7,-2 -2.6,-4.5 -2.6,-7.5 v -0.6 h 18.8 v -1.6 c 0,-3.8 -0.9,-6.8 -2.8,-9 -1.9,-2.2 -4.4,-3.3 -7.6,-3.3 -2.1,0 -4,0.6 -5.7,1.7 -1.8,1.2 -3.1,2.8 -4.1,4.8 -1,2 -1.5,4.3 -1.5,6.9 v 1 c 0,2.5 0.5,4.7 1.5,6.7 1,2 2.4,3.5 4.2,4.6 1.8,1.1 3.8,1.7 6.1,1.7 4.1,0.1 7.2,-1.4 9.4,-4.6 M 706.1,89.8 c 0.4,0.4 0.8,0.6 1.5,0.6 0.6,0 1.1,-0.2 1.5,-0.6 0.4,-0.4 0.5,-0.8 0.5,-1.4 0,-0.6 -0.2,-1 -0.5,-1.4 -0.4,-0.4 -0.9,-0.6 -1.5,-0.6 -0.6,0 -1.1,0.2 -1.5,0.6 -0.4,0.4 -0.5,0.8 -0.5,1.4 0,0.5 0.1,1 0.5,1.4 M 709,96 h -2.9 v 26.4 h 2.9 z m -25.9,21.6 c -1.5,-1.9 -2.2,-4.5 -2.2,-7.9 v -0.9 c 0,-3.4 0.7,-6.1 2.2,-8 1.5,-1.9 3.5,-2.9 6.1,-2.9 2.1,0 3.8,0.6 5.1,1.9 1.4,1.3 2.1,2.9 2.2,5 h 2.8 c -0.1,-2.8 -1.1,-5.1 -3,-6.8 -1.9,-1.7 -4.3,-2.6 -7.2,-2.6 -2.3,0 -4.3,0.5 -6,1.6 -1.7,1.1 -3,2.6 -3.9,4.6 -0.9,2 -1.4,4.3 -1.4,6.9 v 0.9 c 0,4.1 1,7.3 3,9.7 2,2.4 4.8,3.6 8.2,3.6 1.8,0 3.4,-0.4 4.9,-1.1 1.5,-0.7 2.8,-1.8 3.7,-3.1 0.9,-1.3 1.4,-2.8 1.5,-4.4 h -2.8 c -0.1,1.8 -0.9,3.3 -2.2,4.5 -1.4,1.1 -3.1,1.7 -5.1,1.7 -2.4,0.1 -4.4,-0.8 -5.9,-2.7 m -16.2,0.9 c -1.7,1.2 -3.9,1.8 -6.7,1.8 -3.1,0 -5.6,-0.7 -7.5,-2.2 -1.9,-1.4 -2.8,-3.4 -2.8,-5.9 h -3 c 0,2.1 0.5,3.9 1.6,5.5 1.1,1.6 2.7,2.9 4.8,3.8 2.1,0.9 4.4,1.3 6.9,1.3 3.7,0 6.6,-0.8 8.8,-2.5 2.2,-1.7 3.4,-3.9 3.4,-6.7 0,-1.8 -0.4,-3.3 -1.2,-4.6 -0.8,-1.3 -2.1,-2.4 -3.7,-3.4 -1.6,-0.9 -4.1,-1.8 -7.2,-2.7 -3.2,-0.9 -5.5,-1.9 -7,-3 -1.4,-1.1 -2.2,-2.6 -2.2,-4.4 0,-2 0.8,-3.5 2.4,-4.8 1.6,-1.2 3.8,-1.8 6.5,-1.8 2.8,0 5,0.7 6.7,2.2 1.7,1.5 2.5,3.4 2.5,5.9 h 3 c 0,-2 -0.5,-3.8 -1.5,-5.4 -1,-1.6 -2.5,-2.9 -4.3,-3.8 -1.9,-0.9 -4,-1.4 -6.3,-1.4 -3.5,0 -6.3,0.9 -8.6,2.6 -2.2,1.7 -3.4,3.9 -3.4,6.6 0,2.8 1.2,5.1 3.6,6.8 1.7,1.2 4.4,2.3 8.1,3.4 3.7,1.1 6.2,2.1 7.6,3.3 1.4,1.1 2.1,2.7 2.1,4.7 -0.1,1.9 -1,3.5 -2.6,4.7 M 610,101 c 1.4,-1.9 3.3,-2.9 5.7,-2.9 3.6,0 6.1,1.7 7.6,5.1 v 12.4 c -1.5,3.2 -4.1,4.8 -7.7,4.8 -2.5,0 -4.4,-1 -5.7,-2.9 -1.4,-1.9 -2,-4.6 -2,-8 0,-3.8 0.7,-6.6 2.1,-8.5 m -5,8.3 c 0,4.2 0.9,7.5 2.8,9.9 1.9,2.4 4.3,3.7 7.4,3.7 3.6,0 6.4,-1.3 8.2,-4 l 0.1,3.5 h 2.7 V 84.9 h -2.9 v 14.8 c -1.9,-2.8 -4.6,-4.2 -8.2,-4.2 -3.1,0 -5.6,1.2 -7.5,3.6 -1.8,2.4 -2.7,5.7 -2.7,9.8 v 0.4 z m -10.5,-8.9 c 1.4,1.6 2.1,3.7 2.2,6.2 v 0.3 h -15.8 c 0.3,-2.7 1.2,-4.9 2.7,-6.5 1.5,-1.6 3.4,-2.4 5.6,-2.4 2.1,0 3.9,0.8 5.3,2.4 m 4.5,17.8 -1.8,-1.4 c -1,1.3 -2.1,2.2 -3.3,2.7 -1.2,0.6 -2.6,0.9 -4.1,0.9 -2.6,0 -4.8,-1 -6.5,-3 -1.7,-2 -2.6,-4.5 -2.6,-7.5 v -0.6 h 18.8 v -1.6 c 0,-3.8 -0.9,-6.8 -2.8,-9 -1.9,-2.2 -4.4,-3.3 -7.6,-3.3 -2.1,0 -4,0.6 -5.7,1.7 -1.8,1.2 -3.1,2.8 -4.1,4.8 -1,2 -1.5,4.3 -1.5,6.9 v 1 c 0,2.5 0.5,4.7 1.5,6.7 1,2 2.4,3.5 4.2,4.6 1.8,1.1 3.8,1.7 6.1,1.7 4.2,0.1 7.3,-1.4 9.4,-4.6 M 568.2,89.8 c 0.4,0.4 0.8,0.6 1.5,0.6 0.6,0 1.1,-0.2 1.5,-0.6 0.4,-0.4 0.5,-0.8 0.5,-1.4 0,-0.6 -0.2,-1 -0.5,-1.4 -0.4,-0.4 -0.9,-0.6 -1.5,-0.6 -0.6,0 -1.1,0.2 -1.5,0.6 -0.4,0.4 -0.5,0.8 -0.5,1.4 -0.1,0.5 0.1,1 0.5,1.4 m 2.9,6.2 h -2.9 v 26.4 h 2.9 z M 559.7,84.9 h -2.9 v 37.5 h 2.9 z m -15.2,32.6 c -1.4,2 -3.3,2.9 -5.7,2.9 -1.8,0 -3.3,-0.4 -4.6,-1.2 -1.3,-0.8 -2.3,-2 -3,-3.5 V 103 c 0.7,-1.6 1.7,-2.9 3,-3.8 1.3,-0.9 2.8,-1.3 4.6,-1.3 2.5,0 4.4,1 5.8,2.9 1.4,2 2.1,4.6 2.1,8 -0.1,3.9 -0.8,6.7 -2.2,8.7 m 5,-8.4 c 0,-4.2 -0.9,-7.6 -2.7,-10 -1.8,-2.4 -4.3,-3.6 -7.4,-3.6 -3.6,0 -6.4,1.4 -8.3,4.2 L 531,96 h -2.7 v 36.6 h 2.9 v -13.5 c 1.9,2.5 4.7,3.8 8.3,3.8 3.1,0 5.5,-1.2 7.3,-3.6 1.8,-2.4 2.7,-5.7 2.7,-9.8 z m -33.3,8.4 c -1.4,2 -3.3,2.9 -5.7,2.9 -1.8,0 -3.3,-0.4 -4.6,-1.2 -1.3,-0.8 -2.3,-2 -3,-3.5 V 103 c 0.7,-1.6 1.7,-2.9 3,-3.8 1.3,-0.9 2.8,-1.3 4.6,-1.3 2.5,0 4.4,1 5.8,2.9 1.4,2 2.1,4.6 2.1,8 -0.1,3.9 -0.8,6.7 -2.2,8.7 m 5,-8.4 c 0,-4.2 -0.9,-7.6 -2.7,-10 -1.8,-2.4 -4.3,-3.6 -7.4,-3.6 -3.6,0 -6.4,1.4 -8.3,4.2 L 502.7,96 H 500 v 36.6 h 2.9 v -13.5 c 1.9,2.5 4.7,3.8 8.3,3.8 3.1,0 5.5,-1.2 7.3,-3.6 1.8,-2.4 2.7,-5.7 2.7,-9.8 z m -41.9,-18.6 7.1,19.4 h -14.3 z m 11.8,31.9 h 3.1 L 480.8,86.9 h -2.9 l -13.4,35.5 h 3.1 l 3.7,-10 h 16.1 z m -49.8,0 v -24 h 6.3 V 96 h -6.3 v -3.3 c 0,-1.8 0.4,-3.3 1.3,-4.3 0.9,-1 2.1,-1.5 3.8,-1.5 1,0 1.8,0.1 2.7,0.3 l 0.2,-2.4 c -1,-0.3 -2,-0.4 -3.1,-0.4 -2.5,0 -4.4,0.7 -5.7,2.2 -1.4,1.4 -2.1,3.5 -2.1,6.2 V 96 H 434 v 2.4 h 4.4 v 24 z m -31.4,-13.3 c 0,-3.3 0.8,-6 2.5,-8 1.6,-2 3.8,-3.1 6.4,-3.1 1.7,0 3.3,0.5 4.6,1.4 1.3,0.9 2.4,2.2 3.1,3.9 0.7,1.7 1.1,3.5 1.1,5.5 v 0.6 c 0,3.3 -0.8,6 -2.5,8 -1.6,2 -3.8,3 -6.4,3 -2.7,0 -4.8,-1 -6.4,-3 -1.6,-2 -2.5,-4.6 -2.5,-7.8 v -0.5 z m -2.9,0.3 c 0,4.1 1.1,7.3 3.3,9.8 2.2,2.5 5,3.7 8.5,3.7 2.3,0 4.3,-0.6 6.1,-1.7 1.8,-1.1 3.2,-2.7 4.2,-4.7 1,-2 1.5,-4.3 1.5,-6.9 V 109 c 0,-4.1 -1.1,-7.3 -3.3,-9.8 -2.2,-2.5 -5,-3.7 -8.5,-3.7 -2.3,0 -4.3,0.6 -6.1,1.7 -1.8,1.1 -3.2,2.7 -4.2,4.7 -1,2 -1.5,4.3 -1.5,6.9 z M 370.4,96 h -3.2 l 10,26.2 -1.3,3.6 c -0.6,1.7 -1.4,2.9 -2.3,3.6 -0.9,0.7 -2,1.1 -3.5,1.1 l -1.5,-0.1 v 2.4 c 0.8,0.2 1.5,0.3 2.2,0.3 3,0 5.3,-1.6 6.7,-4.8 l 0.6,-1.4 11.4,-30.9 h -3.1 l -7.7,22.2 z M 354.1,89.2 V 96 h -4.9 v 2.4 h 4.9 V 116 c 0,2.3 0.5,4 1.4,5.1 0.9,1.2 2.4,1.7 4.4,1.7 1.3,0 2.4,-0.1 3.1,-0.4 l -0.1,-2.4 c -1.1,0.2 -1.9,0.2 -2.4,0.2 -1.2,0 -2.1,-0.4 -2.6,-1.1 -0.5,-0.7 -0.8,-1.8 -0.8,-3.3 V 98.4 h 5.5 V 96 h -5.5 v -6.8 z m -13.2,0.6 c 0.4,0.4 0.8,0.6 1.5,0.6 0.7,0 1.1,-0.2 1.5,-0.6 0.4,-0.4 0.5,-0.8 0.5,-1.4 0,-0.6 -0.2,-1 -0.5,-1.4 -0.4,-0.4 -0.9,-0.6 -1.5,-0.6 -0.6,0 -1.1,0.2 -1.5,0.6 -0.4,0.4 -0.5,0.8 -0.5,1.4 0,0.5 0.2,1 0.5,1.4 m 2.9,6.2 h -2.9 v 26.4 h 2.9 z M 329,119.1 c -1.3,0.9 -2.9,1.3 -4.9,1.3 -2.2,0 -3.9,-0.5 -5.3,-1.4 -1.3,-1 -2,-2.3 -2.2,-4 h -2.9 c 0,2.3 1,4.2 2.9,5.7 1.9,1.5 4.4,2.2 7.5,2.2 2.9,0 5.2,-0.7 7,-2 1.8,-1.3 2.7,-3.1 2.7,-5.3 0,-1.4 -0.3,-2.5 -0.9,-3.5 -0.6,-1 -1.6,-1.8 -2.8,-2.5 -1.3,-0.7 -3.2,-1.3 -5.8,-1.9 -2.6,-0.6 -4.3,-1.3 -5.3,-2 -1,-0.7 -1.5,-1.7 -1.5,-3.1 0,-1.4 0.6,-2.5 1.7,-3.3 1.2,-0.9 2.7,-1.3 4.6,-1.3 2,0 3.6,0.5 4.9,1.5 1.3,1 1.9,2.3 1.9,3.9 h 2.9 c 0,-2.3 -0.9,-4.2 -2.7,-5.7 -1.8,-1.5 -4.1,-2.2 -7.1,-2.2 -2.7,0 -4.9,0.7 -6.7,2 -1.7,1.4 -2.6,3.1 -2.6,5.2 0,1.3 0.3,2.4 0.9,3.4 0.6,0.9 1.6,1.7 2.9,2.4 1.3,0.6 3.1,1.2 5.5,1.7 2.3,0.5 4.1,1.2 5.3,2.1 1.2,0.9 1.7,2 1.7,3.5 0.2,1.3 -0.5,2.4 -1.7,3.3 M 309.9,95.8 c -0.5,-0.2 -1.1,-0.3 -1.9,-0.3 -3.4,0 -5.9,1.6 -7.4,4.7 V 96 h -2.9 v 26.4 h 2.9 v -18.1 c 0.5,-1.9 1.4,-3.4 2.7,-4.4 1.3,-1 2.8,-1.5 4.6,-1.5 0.7,0 1.4,0.1 2,0.2 z m -23.8,4.6 c 1.4,1.6 2.1,3.7 2.2,6.2 v 0.3 h -15.8 c 0.3,-2.7 1.2,-4.9 2.7,-6.5 1.5,-1.6 3.4,-2.4 5.6,-2.4 2.1,0 3.9,0.8 5.3,2.4 m 4.5,17.8 -1.8,-1.4 c -1,1.3 -2.1,2.2 -3.3,2.7 -1.2,0.6 -2.6,0.9 -4.1,0.9 -2.6,0 -4.8,-1 -6.5,-3 -1.7,-2 -2.6,-4.5 -2.6,-7.5 v -0.6 h 18.8 v -1.6 c 0,-3.8 -0.9,-6.8 -2.8,-9 -1.9,-2.2 -4.4,-3.3 -7.6,-3.3 -2.1,0 -4,0.6 -5.7,1.7 -1.8,1.2 -3.1,2.8 -4.1,4.8 -1,2 -1.5,4.3 -1.5,6.9 v 1 c 0,2.5 0.5,4.7 1.5,6.7 1,2 2.4,3.5 4.2,4.6 1.8,1.1 3.8,1.7 6.1,1.7 4.2,0.1 7.3,-1.4 9.4,-4.6 M 247.3,96 h -3 l 9.9,26.4 h 2.4 L 266.5,96 h -3 l -8,22.4 z m -11.6,-6.2 c 0.4,0.4 0.8,0.6 1.5,0.6 0.6,0 1.1,-0.2 1.5,-0.6 0.4,-0.4 0.5,-0.8 0.5,-1.4 0,-0.6 -0.2,-1 -0.5,-1.4 -0.4,-0.4 -0.9,-0.6 -1.5,-0.6 -0.6,0 -1.1,0.2 -1.5,0.6 -0.4,0.4 -0.5,0.8 -0.5,1.4 0,0.5 0.2,1 0.5,1.4 m 2.9,6.2 h -2.9 v 26.4 h 2.9 z m -31,0 v 26.4 h 2.9 v -18.1 c 0.7,-1.9 1.7,-3.4 3.1,-4.6 1.4,-1.1 3,-1.7 4.8,-1.7 2.2,0 3.7,0.6 4.7,1.7 1,1.2 1.5,2.9 1.5,5.3 v 17.4 h 2.9 v -17.3 c 0,-3.2 -0.7,-5.6 -2.1,-7.2 -1.4,-1.6 -3.5,-2.4 -6.3,-2.4 -1.8,0 -3.4,0.4 -4.9,1.3 -1.5,0.9 -2.7,2.1 -3.7,3.7 L 210.4,96 Z M 196.2,86.9 V 111 c 0,3 -0.9,5.3 -2.6,6.9 -1.7,1.7 -4,2.5 -6.9,2.5 -2.9,0 -5.2,-0.8 -7,-2.5 -1.7,-1.7 -2.6,-4 -2.6,-7 v -24 h -3 v 24.5 c 0.1,3.6 1.2,6.4 3.5,8.5 2.3,2 5.3,3.1 9,3.1 2.5,0 4.6,-0.5 6.5,-1.4 1.9,-1 3.4,-2.3 4.4,-4.1 1,-1.8 1.6,-3.9 1.6,-6.2 V 86.9 Z"
   id="path14"
   inkscape:connector-curvature="0"
   style="fill:#817e65" />
	<path
   class="st0"
   d="m 849.7,33.3 v 27.6 h 6.2 V 41.2 c 1.2,-2.3 3.1,-3.4 5.6,-3.4 1.7,0 3,0.4 3.7,1.3 0.8,0.8 1.1,2.1 1.1,3.9 v 17.9 h 6.2 V 42.6 c -0.1,-6.6 -3,-9.9 -8.8,-9.9 -3.3,0 -6,1.2 -8,3.7 l -0.2,-3.2 h -5.8 z m -13.8,6 c 1,1.1 1.5,2.6 1.7,4.7 v 0.5 h -11.8 c 0.3,-2.1 1,-3.8 2,-5 1,-1.2 2.4,-1.8 4.1,-1.8 1.7,0 3,0.6 4,1.6 m 2.9,20.7 c 1.8,-0.9 3.3,-2.2 4.4,-3.8 L 839.9,53 c -1.8,2.3 -4.1,3.4 -6.9,3.4 -2,0 -3.7,-0.7 -5,-2 -1.3,-1.3 -2.1,-3.1 -2.3,-5.4 h 18.1 v -2.5 c 0,-4.4 -1,-7.8 -3.1,-10.2 -2.1,-2.4 -5,-3.6 -8.7,-3.6 -2.4,0 -4.5,0.6 -6.4,1.8 -1.9,1.2 -3.4,2.9 -4.5,5.1 -1.1,2.2 -1.6,4.6 -1.6,7.4 v 0.8 c 0,4.1 1.2,7.4 3.7,9.9 2.4,2.5 5.6,3.7 9.6,3.7 2.1,0 4.2,-0.4 6,-1.4 M 796.7,40.2 c 1.1,-1.6 2.6,-2.4 4.6,-2.4 2.5,0 4.4,1.1 5.5,3.3 V 53 c -1.2,2.3 -3,3.4 -5.6,3.4 -2,0 -3.5,-0.8 -4.6,-2.4 -1.1,-1.6 -1.6,-3.8 -1.6,-6.6 0.1,-3.2 0.6,-5.6 1.7,-7.2 m -4.8,17.3 c 2,2.6 4.6,3.9 7.9,3.9 3.1,0 5.6,-1.1 7.4,-3.4 l 0.3,2.9 h 5.6 V 21.7 h -6.2 v 14.1 c -1.8,-2 -4.2,-3.1 -7.1,-3.1 -3.3,0 -6,1.3 -7.9,3.9 -2,2.6 -3,6 -3,10.3 0,4.5 1,8 3,10.6 M 759.8,33.3 V 60.9 H 766 V 41.2 c 1.2,-2.3 3.1,-3.4 5.6,-3.4 1.7,0 3,0.4 3.7,1.3 0.8,0.8 1.1,2.1 1.1,3.9 v 17.9 h 6.2 V 42.6 c -0.1,-6.6 -3,-9.9 -8.8,-9.9 -3.3,0 -6,1.2 -8,3.7 l -0.2,-3.2 h -5.8 z m -15.2,-5.1 c 0.6,0.6 1.4,0.9 2.4,0.9 1,0 1.8,-0.3 2.4,-0.9 0.6,-0.6 0.9,-1.3 0.9,-2.1 0,-0.9 -0.3,-1.6 -0.9,-2.1 -0.6,-0.6 -1.4,-0.9 -2.4,-0.9 -1,0 -1.8,0.3 -2.4,0.9 -0.6,0.6 -0.9,1.3 -0.9,2.1 0,0.8 0.3,1.5 0.9,2.1 m -11.7,0 c 0.6,0.6 1.4,0.9 2.4,0.9 1,0 1.8,-0.3 2.4,-0.9 0.6,-0.6 0.9,-1.3 0.9,-2.1 0,-0.9 -0.3,-1.6 -0.9,-2.1 -0.6,-0.6 -1.4,-0.9 -2.4,-0.9 -1,0 -1.8,0.3 -2.4,0.9 -0.6,0.6 -0.9,1.3 -0.9,2.1 0,0.8 0.3,1.5 0.9,2.1 m 13.7,32.7 h 5.8 V 33.3 h -6.2 v 19.8 c -1.1,2.2 -3.1,3.2 -6.1,3.2 -2.9,0 -4.4,-1.8 -4.4,-5.3 V 33.3 h -6.2 v 17.9 c 0,3.3 0.8,5.9 2.3,7.6 1.5,1.8 3.8,2.6 6.8,2.6 3.4,0 5.9,-1.1 7.8,-3.2 z M 717.2,47.6 c 0,2.9 -0.6,5.1 -1.6,6.6 -1.1,1.4 -2.6,2.2 -4.5,2.2 -2.7,0 -4.6,-1.2 -5.7,-3.6 V 41.4 c 1.1,-2.3 3,-3.5 5.7,-3.5 2,0 3.5,0.8 4.6,2.2 1.1,1.5 1.6,3.7 1.6,6.7 v 0.8 z m 6.2,-0.6 c 0,-4.5 -1,-8 -2.9,-10.5 -1.9,-2.5 -4.6,-3.8 -7.9,-3.8 -3,0 -5.4,1.1 -7.2,3.2 V 21.7 h -6.2 v 39.2 h 5.6 l 0.3,-3 c 1.8,2.3 4.3,3.5 7.6,3.5 3.4,0 6,-1.3 7.9,-3.8 1.9,-2.5 2.9,-5.9 2.9,-10.2 V 47 Z m -37.5,13.9 h 5.8 V 33.3 h -6.2 v 19.8 c -1.1,2.2 -3.1,3.2 -6.1,3.2 -2.9,0 -4.4,-1.8 -4.4,-5.3 V 33.3 h -6.2 v 17.9 c 0,3.3 0.8,5.9 2.3,7.6 1.5,1.8 3.8,2.6 6.8,2.6 3.4,0 5.9,-1.1 7.8,-3.2 z m -39.5,-5.5 c -0.8,-0.7 -1.2,-1.7 -1.2,-2.8 0,-1.5 0.6,-2.6 1.7,-3.4 1.2,-0.8 2.9,-1.2 5.2,-1.2 h 3.3 v 5.2 c -0.5,1 -1.4,1.8 -2.4,2.4 -1.1,0.6 -2.2,0.9 -3.5,0.9 -1.3,-0.1 -2.3,-0.4 -3.1,-1.1 m 16.3,5.5 v -0.4 c -0.7,-1.5 -1,-3.5 -1,-5.9 V 42.1 c -0.1,-2.9 -1,-5.2 -3,-6.9 -1.9,-1.6 -4.5,-2.4 -7.7,-2.4 -2.1,0 -4.1,0.4 -5.8,1.1 -1.7,0.7 -3.1,1.8 -4.1,3.1 -1,1.3 -1.5,2.7 -1.5,4.3 h 6.2 c 0,-1.1 0.5,-2 1.4,-2.7 0.9,-0.7 2.1,-1.1 3.5,-1.1 1.6,0 2.9,0.4 3.7,1.3 0.8,0.9 1.2,2 1.2,3.4 V 44 h -3.8 c -4.1,0 -7.2,0.8 -9.4,2.4 -2.2,1.6 -3.3,3.8 -3.3,6.8 0,2.3 0.9,4.3 2.6,5.9 1.8,1.6 4,2.4 6.8,2.4 2.9,0 5.3,-1 7.3,-3.1 0.2,1.2 0.4,2.1 0.7,2.6 h 6.2 z M 634.8,33.1 c -0.6,-0.2 -1.3,-0.4 -2.2,-0.4 -2.7,0 -4.7,1.2 -6.2,3.6 l -0.2,-3.1 h -5.9 v 27.6 h 6.2 V 42 c 1,-2.2 2.9,-3.3 5.7,-3.3 0.9,0 1.7,0.1 2.5,0.2 z m -22.2,8.7 h -14.1 v 4.9 h 7.7 V 54 c -1.4,1.5 -3.7,2.2 -7,2.2 -3,0 -5.4,-1.1 -7.1,-3.3 -1.7,-2.2 -2.5,-5.3 -2.5,-9.3 v -2.9 c 0.1,-4 0.8,-7.1 2.3,-9.2 1.5,-2.1 3.7,-3.1 6.6,-3.1 4.5,0 7.1,2.2 7.8,6.7 h 6.3 c -0.5,-3.8 -2,-6.8 -4.4,-8.8 -2.4,-2.1 -5.7,-3.1 -9.9,-3.1 -4.8,0 -8.6,1.6 -11.3,4.7 -2.7,3.2 -4,7.5 -4,13.2 V 44 c 0.1,3.5 0.7,6.6 2,9.2 1.3,2.6 3.2,4.7 5.6,6.1 2.4,1.4 5.2,2.1 8.3,2.1 3,0 5.7,-0.5 8.1,-1.4 2.4,-0.9 4.2,-2.2 5.6,-4 z m -57.4,-2.5 c 1,1.1 1.5,2.6 1.7,4.7 v 0.5 h -11.8 c 0.3,-2.1 1,-3.8 2,-5 1,-1.2 2.4,-1.8 4.1,-1.8 1.7,0 3,0.6 4,1.6 m 2.9,20.7 c 1.8,-0.9 3.3,-2.2 4.4,-3.8 L 559.2,53 c -1.8,2.3 -4.1,3.4 -6.9,3.4 -2,0 -3.7,-0.7 -5,-2 C 546,53.1 545.2,51.3 545,49 h 18 v -2.5 c 0,-4.4 -1,-7.8 -3.1,-10.2 -2.1,-2.4 -5,-3.6 -8.7,-3.6 -2.4,0 -4.5,0.6 -6.4,1.8 -1.9,1.2 -3.4,2.9 -4.5,5.1 -1.1,2.2 -1.6,4.6 -1.6,7.4 v 0.8 c 0,4.1 1.2,7.4 3.7,9.9 2.4,2.5 5.6,3.7 9.6,3.7 2.2,0 4.3,-0.4 6.1,-1.4 M 532.2,21.7 H 526 v 39.2 h 6.2 z m -19.7,39.2 h 5.8 V 33.3 h -6.2 v 19.8 c -1.1,2.2 -3.1,3.2 -6.1,3.2 -2.9,0 -4.4,-1.8 -4.4,-5.3 V 33.3 h -6.2 v 17.9 c 0,3.3 0.8,5.9 2.3,7.6 1.5,1.7 3.8,2.6 6.8,2.6 3.4,0 5.9,-1.1 7.8,-3.2 z M 471.7,21.7 h -6.2 v 39.2 h 6.2 V 41.2 c 1.2,-2.2 3.1,-3.3 5.6,-3.3 1.6,0 2.8,0.4 3.6,1.2 0.8,0.8 1.2,2.1 1.2,4 v 17.8 h 6.2 V 42.8 c -0.1,-6.7 -3.1,-10.1 -9,-10.1 -3.1,0 -5.7,1.2 -7.7,3.5 V 21.7 Z M 443.6,54.2 C 442.5,52.7 442,50.5 442,47.5 v -1 c 0,-3 0.6,-5.2 1.7,-6.6 1.1,-1.5 2.6,-2.2 4.6,-2.2 1.6,0 2.9,0.5 3.9,1.5 1,1 1.6,2.3 1.6,3.9 h 5.8 c -0.1,-3.1 -1.2,-5.6 -3.3,-7.5 -2.1,-1.9 -4.7,-2.9 -8,-2.9 -3.9,0 -6.9,1.3 -9.2,3.8 -2.2,2.5 -3.4,5.9 -3.4,10.1 v 0.6 c 0,4.4 1.1,7.9 3.4,10.4 2.3,2.5 5.3,3.8 9.2,3.8 2,0 3.8,-0.4 5.6,-1.3 1.7,-0.9 3.1,-2 4.1,-3.5 1,-1.5 1.5,-3.1 1.6,-4.8 h -5.8 c -0.1,1.3 -0.6,2.4 -1.6,3.3 -1,0.9 -2.3,1.4 -3.9,1.4 -2.1,0 -3.6,-0.8 -4.7,-2.3 m -20.2,1.6 c -0.9,0.6 -2.1,0.9 -3.7,0.9 -1.7,0 -3,-0.4 -4.1,-1.2 -1,-0.8 -1.6,-1.9 -1.7,-3.4 h -6 c 0,1.7 0.5,3.2 1.5,4.6 1,1.4 2.4,2.6 4.1,3.4 1.8,0.8 3.8,1.2 6.1,1.2 3.3,0 6,-0.8 8.1,-2.3 2.1,-1.5 3.1,-3.6 3.1,-6 0,-1.5 -0.3,-2.7 -1,-3.8 -0.7,-1 -1.7,-1.9 -3.1,-2.7 -1.4,-0.7 -3.3,-1.4 -5.7,-1.9 -2.4,-0.5 -4.1,-1.1 -4.9,-1.6 -0.8,-0.5 -1.2,-1.3 -1.2,-2.2 0,-1.1 0.4,-1.9 1.3,-2.5 0.9,-0.6 2,-0.9 3.3,-0.9 1.5,0 2.6,0.4 3.5,1.2 0.9,0.8 1.3,1.8 1.3,3 h 6.2 c 0,-2.6 -1,-4.7 -3.1,-6.4 -2,-1.6 -4.7,-2.5 -8,-2.5 -3.1,0 -5.7,0.8 -7.7,2.4 -2,1.6 -3,3.6 -3,6 0,2.8 1.5,5 4.6,6.5 1.4,0.7 3.2,1.2 5.3,1.7 2.1,0.4 3.6,1 4.5,1.5 0.9,0.6 1.4,1.4 1.4,2.5 0.2,1.1 -0.2,1.9 -1.1,2.5 M 385.5,21.7 h -6.2 v 39.2 h 6.2 V 41.2 c 1.2,-2.2 3.1,-3.3 5.6,-3.3 1.6,0 2.8,0.4 3.6,1.2 0.8,0.8 1.2,2.1 1.2,4 v 17.8 h 6.2 V 42.8 c -0.1,-6.7 -3.1,-10.1 -9,-10.1 -3.1,0 -5.7,1.2 -7.7,3.5 V 21.7 Z m -28.1,32.5 c -1.1,-1.5 -1.6,-3.7 -1.6,-6.7 v -1 c 0,-3 0.6,-5.2 1.7,-6.6 1.1,-1.5 2.6,-2.2 4.6,-2.2 1.6,0 2.9,0.5 3.9,1.5 1,1 1.6,2.3 1.6,3.9 h 5.8 c -0.1,-3.1 -1.2,-5.6 -3.3,-7.5 -2.1,-1.9 -4.7,-2.9 -8,-2.9 -3.9,0 -6.9,1.3 -9.2,3.8 -2.2,2.5 -3.4,5.9 -3.4,10.1 v 0.6 c 0,4.4 1.1,7.9 3.4,10.4 2.3,2.5 5.3,3.8 9.2,3.8 2,0 3.8,-0.4 5.6,-1.3 1.7,-0.9 3.1,-2 4.1,-3.5 1,-1.5 1.5,-3.1 1.6,-4.8 h -5.8 c -0.1,1.3 -0.6,2.4 -1.6,3.3 -1,0.9 -2.3,1.4 -3.9,1.4 -2.1,0 -3.7,-0.8 -4.7,-2.3 m -30.6,-14 c 1.2,-1.6 2.8,-2.4 4.8,-2.4 2.1,0 3.7,0.8 4.9,2.5 1.2,1.6 1.8,3.8 1.8,6.6 0,3.1 -0.6,5.5 -1.7,7.2 -1.2,1.6 -2.8,2.5 -4.9,2.5 -2.1,0 -3.7,-0.8 -4.9,-2.4 -1.2,-1.6 -1.8,-3.8 -1.8,-6.7 0,-3.3 0.6,-5.7 1.8,-7.3 m -8,6.9 c 0,4.3 1.2,7.8 3.5,10.4 2.3,2.6 5.5,3.9 9.4,3.9 2.6,0 4.8,-0.6 6.8,-1.8 1.9,-1.2 3.4,-2.8 4.5,-5 1,-2.1 1.6,-4.6 1.6,-7.3 v -1.5 c -0.2,-4 -1.4,-7.2 -3.8,-9.5 -2.3,-2.4 -5.3,-3.6 -9.1,-3.6 -2.5,0 -4.7,0.6 -6.7,1.7 -1.9,1.2 -3.4,2.8 -4.5,5 -1.1,2.2 -1.6,4.6 -1.6,7.3 v 0.4 z M 296.1,21.7 h -6.2 v 39.2 h 6.2 V 41.2 c 1.2,-2.2 3.1,-3.3 5.6,-3.3 1.6,0 2.8,0.4 3.6,1.2 0.8,0.8 1.2,2.1 1.2,4 v 17.8 h 6.2 V 42.8 c -0.1,-6.7 -3.1,-10.1 -9,-10.1 -3.1,0 -5.7,1.2 -7.7,3.5 V 21.7 Z m -30.2,0 h -6.2 v 39.2 h 6.2 V 41.2 c 1.2,-2.2 3.1,-3.3 5.6,-3.3 1.6,0 2.8,0.4 3.6,1.2 0.8,0.8 1.2,2.1 1.2,4 v 17.8 h 6.2 V 42.8 c -0.1,-6.7 -3.1,-10.1 -9,-10.1 -3.1,0 -5.7,1.2 -7.7,3.5 V 21.7 Z m -28.1,32.5 c -1.1,-1.5 -1.6,-3.7 -1.6,-6.7 v -1 c 0,-3 0.6,-5.2 1.7,-6.6 1.1,-1.5 2.6,-2.2 4.6,-2.2 1.6,0 2.9,0.5 3.9,1.5 1,1 1.6,2.3 1.6,3.9 h 5.8 c -0.1,-3.1 -1.2,-5.6 -3.3,-7.5 -2.1,-1.9 -4.7,-2.9 -8,-2.9 -3.9,0 -6.9,1.3 -9.2,3.8 -2.2,2.5 -3.4,5.9 -3.4,10.1 v 0.6 c 0,4.4 1.1,7.9 3.4,10.4 2.3,2.5 5.3,3.8 9.2,3.8 2,0 3.8,-0.4 5.6,-1.3 1.7,-0.9 3.1,-2 4.1,-3.5 1,-1.5 1.5,-3.1 1.6,-4.8 H 248 c -0.1,1.3 -0.6,2.4 -1.6,3.3 -1,0.9 -2.3,1.4 -3.9,1.4 -2,0 -3.6,-0.8 -4.7,-2.3 m -29.1,1.2 c -0.8,-0.7 -1.2,-1.7 -1.2,-2.8 0,-1.5 0.6,-2.6 1.7,-3.4 1.2,-0.8 2.9,-1.2 5.2,-1.2 h 3.3 v 5.2 c -0.5,1 -1.4,1.8 -2.4,2.4 -1.1,0.6 -2.2,0.9 -3.5,0.9 -1.3,-0.1 -2.4,-0.4 -3.1,-1.1 M 225,60.9 V 60.5 C 224.3,59 224,57 224,54.6 V 42.1 c -0.1,-2.9 -1,-5.2 -3,-6.9 -1.9,-1.6 -4.5,-2.4 -7.7,-2.4 -2.1,0 -4.1,0.4 -5.8,1.1 -1.7,0.7 -3.1,1.8 -4.1,3.1 -1,1.3 -1.5,2.7 -1.5,4.3 h 6.2 c 0,-1.1 0.5,-2 1.4,-2.7 0.9,-0.7 2.1,-1.1 3.5,-1.1 1.6,0 2.9,0.4 3.7,1.3 0.8,0.9 1.2,2 1.2,3.4 V 44 h -3.8 c -4.1,0 -7.2,0.8 -9.4,2.4 -2.2,1.6 -3.3,3.8 -3.3,6.8 0,2.3 0.9,4.3 2.6,5.9 1.8,1.6 4,2.4 6.8,2.4 2.9,0 5.3,-1 7.3,-3.1 0.2,1.2 0.4,2.1 0.7,2.6 H 225 Z M 195.4,40 h -15 V 28.9 h 17.2 V 23.7 H 174 v 37.2 h 6.5 V 45.2 h 15 V 40 Z"
   id="path16"
   inkscape:connector-curvature="0"
   style="fill:#817e65" />
</g>
</svg>