<?xml version="1.0" encoding="utf-8"?>
<!-- Generator: Adobe Illustrator 23.0.4, SVG Export Plug-In . SVG Version: 6.00 Build 0)  -->
<svg version="1.1" id="Ebene_1" xmlns="http://www.w3.org/2000/svg" xmlns:xlink="http://www.w3.org/1999/xlink" x="0px" y="0px"
	 viewBox="0 0 901.4 141.7" style="enable-background:new 0 0 901.4 141.7;" xml:space="preserve">
<style type="text/css">
	.st0{fill:#817E65;}
</style>
<g>
	<g>
		<path class="st0" d="M839,119.1c-1.3,0.9-2.9,1.3-4.9,1.3c-2.2,0-3.9-0.5-5.3-1.4c-1.3-1-2-2.3-2.2-4h-2.9c0,2.3,1,4.2,2.9,5.7
			s4.4,2.2,7.5,2.2c2.9,0,5.2-0.7,7-2c1.8-1.3,2.7-3.1,2.7-5.3c0-1.4-0.3-2.5-0.9-3.5c-0.6-1-1.6-1.8-2.8-2.5
			c-1.3-0.7-3.2-1.3-5.8-1.9c-2.6-0.6-4.3-1.3-5.3-2c-1-0.7-1.5-1.7-1.5-3.1c0-1.4,0.6-2.5,1.7-3.3c1.2-0.9,2.7-1.3,4.6-1.3
			c2,0,3.6,0.5,4.9,1.5c1.3,1,1.9,2.3,1.9,3.9h2.9c0-2.3-0.9-4.2-2.7-5.7c-1.8-1.5-4.1-2.2-7.1-2.2c-2.7,0-4.9,0.7-6.7,2
			c-1.7,1.4-2.6,3.1-2.6,5.2c0,1.3,0.3,2.4,0.9,3.4c0.6,0.9,1.6,1.7,2.9,2.4c1.3,0.6,3.1,1.2,5.5,1.7c2.3,0.5,4.1,1.2,5.3,2.1
			c1.2,0.9,1.7,2,1.7,3.5C840.9,117.1,840.3,118.2,839,119.1 M813.9,100.4c1.4,1.6,2.1,3.7,2.2,6.2v0.3h-15.8
			c0.3-2.7,1.2-4.9,2.7-6.5c1.5-1.6,3.4-2.4,5.6-2.4C810.7,98,812.5,98.8,813.9,100.4 M818.4,118.2l-1.8-1.4c-1,1.3-2.1,2.2-3.3,2.7
			c-1.2,0.6-2.6,0.9-4.1,0.9c-2.6,0-4.8-1-6.5-3s-2.6-4.5-2.6-7.5v-0.6H819v-1.6c0-3.8-0.9-6.8-2.8-9c-1.9-2.2-4.4-3.3-7.6-3.3
			c-2.1,0-4,0.6-5.7,1.7c-1.8,1.2-3.1,2.8-4.1,4.8c-1,2-1.5,4.3-1.5,6.9v1c0,2.5,0.5,4.7,1.5,6.7c1,2,2.4,3.5,4.2,4.6
			c1.8,1.1,3.8,1.7,6.1,1.7C813.1,122.9,816.2,121.3,818.4,118.2 M775.8,117.6c-1.5-1.9-2.2-4.5-2.2-7.9v-0.9c0-3.4,0.7-6.1,2.2-8
			c1.5-1.9,3.5-2.9,6.1-2.9c2.1,0,3.8,0.6,5.1,1.9c1.4,1.3,2.1,2.9,2.2,5h2.8c-0.1-2.8-1.1-5.1-3-6.8c-1.9-1.7-4.3-2.6-7.2-2.6
			c-2.3,0-4.3,0.5-6,1.6c-1.7,1.1-3,2.6-3.9,4.6c-0.9,2-1.4,4.3-1.4,6.9v0.9c0,4.1,1,7.3,3,9.7c2,2.4,4.8,3.6,8.2,3.6
			c1.8,0,3.4-0.4,4.9-1.1c1.5-0.7,2.8-1.8,3.7-3.1c0.9-1.3,1.4-2.8,1.5-4.4h-2.8c-0.1,1.8-0.9,3.3-2.2,4.5c-1.4,1.1-3.1,1.7-5.1,1.7
			C779.3,120.4,777.3,119.5,775.8,117.6 M744.1,96v26.4h2.9v-18.1c0.7-1.9,1.7-3.4,3.1-4.6c1.4-1.1,3-1.7,4.8-1.7
			c2.2,0,3.7,0.6,4.7,1.7c1,1.2,1.5,2.9,1.5,5.3v17.4h2.9v-17.3c0-3.2-0.7-5.6-2.1-7.2c-1.4-1.6-3.5-2.4-6.3-2.4
			c-1.8,0-3.4,0.4-4.9,1.3c-1.5,0.9-2.7,2.1-3.7,3.7l-0.1-4.5H744.1z M732.6,100.4c1.4,1.6,2.1,3.7,2.2,6.2v0.3h-15.8
			c0.3-2.7,1.2-4.9,2.7-6.5c1.5-1.6,3.4-2.4,5.6-2.4C729.4,98,731.2,98.8,732.6,100.4 M737.1,118.2l-1.8-1.4c-1,1.3-2.1,2.2-3.3,2.7
			c-1.2,0.6-2.6,0.9-4.1,0.9c-2.6,0-4.8-1-6.5-3c-1.7-2-2.6-4.5-2.6-7.5v-0.6h18.8v-1.6c0-3.8-0.9-6.8-2.8-9
			c-1.9-2.2-4.4-3.3-7.6-3.3c-2.1,0-4,0.6-5.7,1.7c-1.8,1.2-3.1,2.8-4.1,4.8c-1,2-1.5,4.3-1.5,6.9v1c0,2.5,0.5,4.7,1.5,6.7
			c1,2,2.4,3.5,4.2,4.6c1.8,1.1,3.8,1.7,6.1,1.7C731.8,122.9,734.9,121.3,737.1,118.2 M706.2,89.7c0.4,0.4,0.8,0.6,1.5,0.6
			c0.6,0,1.1-0.2,1.5-0.6c0.4-0.4,0.5-0.8,0.5-1.4c0-0.6-0.2-1-0.5-1.4c-0.4-0.4-0.9-0.6-1.5-0.6c-0.6,0-1.1,0.2-1.5,0.6
			c-0.4,0.4-0.5,0.8-0.5,1.4C705.7,88.9,705.8,89.4,706.2,89.7 M709.1,96h-2.9v26.4h2.9V96z M683.2,117.6c-1.5-1.9-2.2-4.5-2.2-7.9
			v-0.9c0-3.4,0.7-6.1,2.2-8s3.5-2.9,6.1-2.9c2.1,0,3.8,0.6,5.1,1.9c1.4,1.3,2.1,2.9,2.2,5h2.8c-0.1-2.8-1.1-5.1-3-6.8
			c-1.9-1.7-4.3-2.6-7.2-2.6c-2.3,0-4.3,0.5-6,1.6c-1.7,1.1-3,2.6-3.9,4.6c-0.9,2-1.4,4.3-1.4,6.9v0.9c0,4.1,1,7.3,3,9.7
			c2,2.4,4.8,3.6,8.2,3.6c1.8,0,3.4-0.4,4.9-1.1c1.5-0.7,2.8-1.8,3.7-3.1c0.9-1.3,1.4-2.8,1.5-4.4h-2.8c-0.1,1.8-0.9,3.3-2.2,4.5
			c-1.4,1.1-3.1,1.7-5.1,1.7C686.7,120.4,684.6,119.5,683.2,117.6 M666.9,118.5c-1.7,1.2-3.9,1.8-6.7,1.8c-3.1,0-5.6-0.7-7.5-2.2
			c-1.9-1.4-2.8-3.4-2.8-5.9h-3c0,2.1,0.5,3.9,1.6,5.5c1.1,1.6,2.7,2.9,4.8,3.8c2.1,0.9,4.4,1.3,6.9,1.3c3.7,0,6.6-0.8,8.8-2.5
			c2.2-1.7,3.4-3.9,3.4-6.7c0-1.8-0.4-3.3-1.2-4.6c-0.8-1.3-2.1-2.4-3.7-3.4c-1.6-0.9-4.1-1.8-7.3-2.7c-3.2-0.9-5.5-1.9-7-3
			c-1.4-1.1-2.2-2.6-2.2-4.4c0-2,0.8-3.5,2.4-4.8c1.6-1.2,3.8-1.8,6.5-1.8c2.8,0,5,0.7,6.7,2.2c1.7,1.5,2.5,3.4,2.5,5.9h3
			c0-2-0.5-3.8-1.5-5.4c-1-1.6-2.5-2.9-4.3-3.8c-1.9-0.9-4-1.4-6.3-1.4c-3.5,0-6.3,0.9-8.6,2.6c-2.2,1.7-3.4,3.9-3.4,6.6
			c0,2.8,1.2,5.1,3.6,6.8c1.7,1.2,4.4,2.3,8.1,3.4c3.7,1,6.2,2.1,7.6,3.3c1.4,1.1,2.1,2.7,2.1,4.7
			C669.5,115.7,668.6,117.3,666.9,118.5 M610,100.9c1.4-1.9,3.3-2.9,5.7-2.9c3.6,0,6.1,1.7,7.6,5.2v12.4c-1.5,3.2-4.1,4.8-7.7,4.8
			c-2.5,0-4.4-1-5.7-2.9c-1.4-1.9-2-4.6-2-8C608,105.7,608.7,102.9,610,100.9 M605,109.3c0,4.2,0.9,7.5,2.8,9.9
			c1.9,2.4,4.3,3.7,7.4,3.7c3.6,0,6.4-1.3,8.3-4l0.1,3.5h2.7V84.9h-2.9v14.8c-1.9-2.8-4.6-4.2-8.2-4.2c-3.1,0-5.6,1.2-7.5,3.6
			c-1.8,2.4-2.7,5.7-2.7,9.8V109.3z M594.6,100.4c1.4,1.6,2.1,3.7,2.2,6.2v0.3h-15.8c0.3-2.7,1.2-4.9,2.7-6.5
			c1.5-1.6,3.4-2.4,5.6-2.4C591.4,98,593.2,98.8,594.6,100.4 M599.1,118.2l-1.8-1.4c-1,1.3-2.1,2.2-3.3,2.7
			c-1.2,0.6-2.6,0.9-4.1,0.9c-2.6,0-4.8-1-6.5-3s-2.6-4.5-2.6-7.5v-0.6h18.8v-1.6c0-3.8-0.9-6.8-2.8-9c-1.9-2.2-4.4-3.3-7.6-3.3
			c-2.1,0-4,0.6-5.7,1.7c-1.8,1.2-3.1,2.8-4.1,4.8c-1,2-1.5,4.3-1.5,6.9v1c0,2.5,0.5,4.7,1.5,6.7c1,2,2.4,3.5,4.2,4.6
			c1.8,1.1,3.8,1.7,6.1,1.7C593.8,122.9,596.9,121.3,599.1,118.2 M568.2,89.7c0.4,0.4,0.8,0.6,1.5,0.6s1.1-0.2,1.5-0.6
			c0.4-0.4,0.5-0.8,0.5-1.4c0-0.6-0.2-1-0.5-1.4c-0.4-0.4-0.9-0.6-1.5-0.6s-1.1,0.2-1.5,0.6c-0.4,0.4-0.5,0.8-0.5,1.4
			C567.7,88.9,567.9,89.4,568.2,89.7 M571.1,96h-2.9v26.4h2.9V96z M559.8,84.9h-2.9v37.5h2.9V84.9z M544.6,117.5
			c-1.4,2-3.3,2.9-5.7,2.9c-1.8,0-3.3-0.4-4.6-1.2c-1.3-0.8-2.3-2-3-3.5v-12.7c0.7-1.6,1.7-2.9,3-3.8c1.3-0.9,2.8-1.3,4.6-1.3
			c2.5,0,4.4,1,5.8,2.9c1.4,2,2.1,4.6,2.1,8C546.7,112.7,546,115.5,544.6,117.5 M549.6,109.1c0-4.2-0.9-7.6-2.7-10
			c-1.8-2.4-4.3-3.6-7.4-3.6c-3.6,0-6.4,1.4-8.3,4.2L531,96h-2.7v36.6h2.9v-13.5c1.9,2.5,4.7,3.8,8.3,3.8c3.1,0,5.5-1.2,7.3-3.6
			c1.8-2.4,2.7-5.7,2.7-9.8V109.1z M516.3,117.5c-1.4,2-3.3,2.9-5.7,2.9c-1.8,0-3.3-0.4-4.6-1.2c-1.3-0.8-2.3-2-3-3.5v-12.7
			c0.7-1.6,1.7-2.9,3-3.8c1.3-0.9,2.8-1.3,4.6-1.3c2.5,0,4.4,1,5.8,2.9c1.4,2,2.1,4.6,2.1,8C518.3,112.7,517.7,115.5,516.3,117.5
			 M521.3,109.1c0-4.2-0.9-7.6-2.7-10c-1.8-2.4-4.3-3.6-7.4-3.6c-3.6,0-6.4,1.4-8.3,4.2l-0.1-3.7H500v36.6h2.9v-13.5
			c1.9,2.5,4.7,3.8,8.3,3.8c3.1,0,5.5-1.2,7.3-3.6c1.8-2.4,2.7-5.7,2.7-9.8V109.1z M479.3,90.5l7.1,19.4h-14.3L479.3,90.5z
			 M491.1,122.4h3.1l-13.5-35.5h-2.9l-13.5,35.5h3.2l3.7-10h16.1L491.1,122.4z M441.4,122.4v-24h6.3V96h-6.3v-3.3
			c0-1.8,0.4-3.3,1.3-4.3c0.9-1,2.1-1.5,3.8-1.5c1,0,1.8,0.1,2.7,0.3l0.2-2.4c-1-0.3-2-0.4-3.1-0.4c-2.5,0-4.4,0.7-5.8,2.2
			c-1.4,1.4-2.1,3.5-2.1,6.2V96h-4.4v2.4h4.4v24H441.4z M410,109.1c0-3.3,0.8-6,2.5-8c1.6-2,3.8-3.1,6.4-3.1c1.7,0,3.3,0.5,4.6,1.4
			c1.4,0.9,2.4,2.2,3.1,3.9c0.7,1.7,1.1,3.5,1.1,5.5v0.6c0,3.3-0.8,6-2.5,8c-1.6,2-3.8,3-6.4,3c-2.7,0-4.8-1-6.4-3
			c-1.6-2-2.5-4.6-2.5-7.8V109.1z M407,109.4c0,4.1,1.1,7.3,3.3,9.8c2.2,2.5,5,3.7,8.5,3.7c2.3,0,4.3-0.6,6.1-1.7
			c1.8-1.1,3.2-2.7,4.2-4.7c1-2,1.5-4.3,1.5-6.9V109c0-4.1-1.1-7.3-3.3-9.8c-2.2-2.5-5-3.7-8.5-3.7c-2.3,0-4.3,0.6-6.1,1.7
			c-1.8,1.1-3.2,2.7-4.2,4.7c-1,2-1.5,4.3-1.5,6.9V109.4z M370.4,96h-3.2l10,26.2l-1.3,3.6c-0.6,1.7-1.4,2.9-2.3,3.6
			c-0.9,0.7-2,1.1-3.5,1.1l-1.5-0.1l0,2.4c0.8,0.2,1.5,0.3,2.2,0.3c3,0,5.3-1.6,6.7-4.8l0.6-1.4L389.5,96h-3.1l-7.7,22.2L370.4,96z
			 M354.1,89.2V96h-4.9v2.4h4.9V116c0,2.3,0.5,4,1.4,5.1c0.9,1.2,2.4,1.7,4.4,1.7c1.3,0,2.4-0.1,3.1-0.4l-0.1-2.4
			c-1.1,0.2-1.9,0.2-2.4,0.2c-1.2,0-2.1-0.4-2.6-1.1c-0.5-0.7-0.8-1.8-0.8-3.3V98.4h5.5V96h-5.5v-6.8H354.1z M340.9,89.7
			c0.4,0.4,0.8,0.6,1.5,0.6c0.6,0,1.1-0.2,1.5-0.6c0.4-0.4,0.5-0.8,0.5-1.4c0-0.6-0.2-1-0.5-1.4c-0.4-0.4-0.9-0.6-1.5-0.6
			c-0.6,0-1.1,0.2-1.5,0.6c-0.4,0.4-0.5,0.8-0.5,1.4C340.4,88.9,340.6,89.4,340.9,89.7 M343.8,96h-2.9v26.4h2.9V96z M329,119.1
			c-1.3,0.9-2.9,1.3-4.9,1.3c-2.2,0-3.9-0.5-5.3-1.4c-1.3-1-2-2.3-2.2-4h-2.9c0,2.3,1,4.2,2.9,5.7s4.4,2.2,7.5,2.2
			c2.9,0,5.2-0.7,7-2c1.8-1.3,2.7-3.1,2.7-5.3c0-1.4-0.3-2.5-0.9-3.5c-0.6-1-1.6-1.8-2.8-2.5c-1.3-0.7-3.2-1.3-5.8-1.9
			c-2.6-0.6-4.3-1.3-5.3-2c-1-0.7-1.5-1.7-1.5-3.1c0-1.4,0.6-2.5,1.7-3.3c1.2-0.9,2.7-1.3,4.6-1.3c2,0,3.6,0.5,4.9,1.5
			c1.3,1,1.9,2.3,1.9,3.9h2.9c0-2.3-0.9-4.2-2.7-5.7c-1.8-1.5-4.1-2.2-7.1-2.2c-2.7,0-4.9,0.7-6.7,2c-1.7,1.4-2.6,3.1-2.6,5.2
			c0,1.3,0.3,2.4,0.9,3.4c0.6,0.9,1.6,1.7,2.9,2.4c1.3,0.6,3.1,1.2,5.5,1.7c2.3,0.5,4.1,1.2,5.3,2.1c1.2,0.9,1.7,2,1.7,3.5
			C330.8,117.1,330.2,118.2,329,119.1 M309.9,95.8c-0.5-0.2-1.1-0.3-1.9-0.3c-3.4,0-5.9,1.6-7.4,4.7l0-4.2h-2.9v26.4h2.9v-18.1
			c0.5-1.9,1.4-3.4,2.7-4.4c1.3-1,2.8-1.5,4.6-1.5c0.7,0,1.4,0.1,2,0.2L309.9,95.8z M286.1,100.4c1.4,1.6,2.1,3.7,2.2,6.2v0.3h-15.8
			c0.3-2.7,1.2-4.9,2.7-6.5c1.5-1.6,3.4-2.4,5.6-2.4C282.9,98,284.7,98.8,286.1,100.4 M290.6,118.2l-1.8-1.4c-1,1.3-2.1,2.2-3.3,2.7
			c-1.2,0.6-2.6,0.9-4.1,0.9c-2.6,0-4.8-1-6.5-3s-2.6-4.5-2.6-7.5v-0.6h18.8v-1.6c0-3.8-0.9-6.8-2.8-9s-4.4-3.3-7.6-3.3
			c-2.1,0-4,0.6-5.7,1.7c-1.8,1.2-3.1,2.8-4.1,4.8c-1,2-1.5,4.3-1.5,6.9v1c0,2.5,0.5,4.7,1.5,6.7c1,2,2.4,3.5,4.2,4.6
			c1.8,1.1,3.8,1.7,6.1,1.7C285.3,122.9,288.4,121.3,290.6,118.2 M247.2,96h-3l9.9,26.4h2.4l9.9-26.4h-3l-8,22.4L247.2,96z
			 M235.7,89.7c0.4,0.4,0.8,0.6,1.5,0.6c0.6,0,1.1-0.2,1.5-0.6c0.4-0.4,0.5-0.8,0.5-1.4c0-0.6-0.2-1-0.5-1.4
			c-0.4-0.4-0.9-0.6-1.5-0.6c-0.6,0-1.1,0.2-1.5,0.6c-0.4,0.4-0.5,0.8-0.5,1.4C235.2,88.9,235.3,89.4,235.7,89.7 M238.6,96h-2.9
			v26.4h2.9V96z M207.6,96v26.4h2.9v-18.1c0.7-1.9,1.7-3.4,3.1-4.6c1.4-1.1,3-1.7,4.8-1.7c2.2,0,3.7,0.6,4.7,1.7
			c1,1.2,1.5,2.9,1.5,5.3v17.4h2.9v-17.3c0-3.2-0.7-5.6-2.1-7.2c-1.4-1.6-3.5-2.4-6.3-2.4c-1.8,0-3.4,0.4-4.9,1.3
			c-1.5,0.9-2.7,2.1-3.7,3.7l-0.1-4.5H207.6z M196.1,86.9v24.1c0,3-0.9,5.3-2.6,6.9c-1.7,1.7-4,2.5-6.9,2.5s-5.2-0.8-7-2.5
			c-1.7-1.7-2.6-4-2.6-7v-24h-3v24.5c0.1,3.6,1.2,6.4,3.5,8.5c2.3,2,5.3,3.1,9,3.1c2.5,0,4.6-0.5,6.5-1.4c1.9-1,3.4-2.3,4.4-4.1
			c1-1.8,1.6-3.9,1.6-6.2V86.9H196.1z"/>
		<path class="st0" d="M849.8,33.2v27.6h6.2V41.2c1.2-2.3,3.1-3.4,5.6-3.4c1.7,0,3,0.4,3.7,1.3c0.8,0.8,1.1,2.1,1.1,3.9v17.9h6.2
			V42.6c-0.1-6.6-3-9.9-8.8-9.9c-3.3,0-6,1.2-8,3.7l-0.2-3.2H849.8z M836,39.3c1,1.1,1.5,2.6,1.7,4.7v0.5h-11.8c0.3-2.1,1-3.8,2-5
			c1-1.2,2.4-1.8,4.1-1.8C833.7,37.7,835.1,38.2,836,39.3 M838.9,60c1.8-0.9,3.3-2.2,4.4-3.8L840,53c-1.8,2.3-4.1,3.4-6.9,3.4
			c-2,0-3.7-0.7-5-2c-1.3-1.3-2.1-3.1-2.3-5.4h18.1v-2.5c0-4.4-1-7.8-3.1-10.2c-2.1-2.4-5-3.6-8.7-3.6c-2.4,0-4.5,0.6-6.4,1.8
			c-1.9,1.2-3.4,2.9-4.5,5.1c-1.1,2.2-1.6,4.6-1.6,7.4v0.8c0,4.1,1.2,7.4,3.7,9.9c2.4,2.5,5.6,3.7,9.6,3.7
			C835,61.4,837.1,60.9,838.9,60 M796.8,40.2c1.1-1.6,2.6-2.4,4.6-2.4c2.5,0,4.4,1.1,5.5,3.3v11.8c-1.2,2.3-3,3.4-5.6,3.4
			c-2,0-3.5-0.8-4.6-2.4c-1.1-1.6-1.6-3.8-1.6-6.6C795.2,44.2,795.7,41.8,796.8,40.2 M792,57.5c2,2.6,4.6,3.9,7.9,3.9
			c3.1,0,5.6-1.1,7.4-3.4l0.3,2.9h5.6V21.6H807v14.1c-1.8-2-4.2-3.1-7.1-3.1c-3.3,0-6,1.3-7.9,3.9c-2,2.6-3,6-3,10.3
			C789,51.3,790,54.9,792,57.5 M759.9,33.2v27.6h6.2V41.2c1.2-2.3,3.1-3.4,5.6-3.4c1.7,0,3,0.4,3.7,1.3c0.8,0.8,1.1,2.1,1.1,3.9
			v17.9h6.2V42.6c-0.1-6.6-3-9.9-8.8-9.9c-3.3,0-6,1.2-8,3.7l-0.2-3.2H759.9z M744.7,28.1c0.6,0.6,1.4,0.9,2.4,0.9
			c1,0,1.8-0.3,2.4-0.9c0.6-0.6,0.9-1.3,0.9-2.1c0-0.9-0.3-1.6-0.9-2.1c-0.6-0.6-1.4-0.9-2.4-0.9c-1,0-1.8,0.3-2.4,0.9
			c-0.6,0.6-0.9,1.3-0.9,2.1C743.8,26.9,744.1,27.6,744.7,28.1 M733,28.1c0.6,0.6,1.4,0.9,2.4,0.9c1,0,1.8-0.3,2.4-0.9
			c0.6-0.6,0.9-1.3,0.9-2.1c0-0.9-0.3-1.6-0.9-2.1c-0.6-0.6-1.4-0.9-2.4-0.9c-1,0-1.8,0.3-2.4,0.9c-0.6,0.6-0.9,1.3-0.9,2.1
			C732.1,26.8,732.4,27.5,733,28.1 M746.7,60.9h5.8V33.2h-6.2v19.8c-1.1,2.2-3.1,3.2-6.1,3.2c-2.9,0-4.4-1.8-4.4-5.3V33.2h-6.2v17.9
			c0,3.3,0.8,5.9,2.3,7.6c1.5,1.8,3.8,2.6,6.8,2.6c3.4,0,5.9-1.1,7.8-3.2L746.7,60.9z M717.3,47.6c0,2.9-0.6,5.1-1.6,6.6
			c-1.1,1.4-2.6,2.2-4.5,2.2c-2.7,0-4.6-1.2-5.7-3.6V41.3c1.1-2.3,3-3.5,5.7-3.5c2,0,3.5,0.8,4.6,2.2c1.1,1.5,1.6,3.7,1.6,6.7V47.6z
			 M723.5,47c0-4.5-1-8-2.9-10.5c-1.9-2.5-4.6-3.8-7.9-3.8c-3,0-5.4,1.1-7.2,3.2V21.6h-6.2v39.2h5.6l0.3-3c1.8,2.3,4.3,3.5,7.6,3.5
			c3.4,0,6-1.3,7.9-3.8c1.9-2.5,2.9-6,2.9-10.2V47z M686,60.9h5.8V33.2h-6.2v19.8c-1.1,2.2-3.1,3.2-6.1,3.2c-2.9,0-4.4-1.8-4.4-5.3
			V33.2h-6.2v17.9c0,3.3,0.8,5.9,2.3,7.6c1.5,1.8,3.8,2.6,6.8,2.6c3.4,0,5.9-1.1,7.8-3.2L686,60.9z M646.5,55.3
			c-0.8-0.7-1.2-1.7-1.2-2.8c0-1.5,0.6-2.6,1.7-3.4c1.2-0.8,2.9-1.2,5.2-1.2h3.3v5.2c-0.5,1-1.4,1.8-2.4,2.4
			c-1.1,0.6-2.2,0.9-3.5,0.9C648.3,56.4,647.2,56,646.5,55.3 M662.8,60.9v-0.4c-0.7-1.5-1-3.5-1-6V42c-0.1-2.9-1-5.2-3-6.9
			c-1.9-1.6-4.5-2.4-7.7-2.4c-2.1,0-4.1,0.4-5.8,1.1c-1.7,0.7-3.1,1.8-4.1,3.1c-1,1.3-1.5,2.7-1.5,4.3h6.2c0-1.1,0.5-2,1.4-2.7
			c0.9-0.7,2.1-1.1,3.5-1.1c1.6,0,2.9,0.4,3.7,1.3c0.8,0.9,1.2,2,1.2,3.4V44h-3.8c-4.1,0-7.2,0.8-9.4,2.4c-2.2,1.6-3.3,3.8-3.3,6.8
			c0,2.3,0.9,4.3,2.6,5.9c1.8,1.6,4,2.4,6.8,2.4c2.9,0,5.3-1,7.3-3.1c0.2,1.2,0.4,2.1,0.7,2.6H662.8z M634.9,33.1
			c-0.6-0.2-1.3-0.4-2.2-0.4c-2.7,0-4.7,1.2-6.2,3.6l-0.2-3.1h-5.9v27.6h6.2V42c1-2.2,2.9-3.3,5.7-3.3c0.9,0,1.7,0.1,2.5,0.2
			L634.9,33.1z M612.6,41.8h-14.1v4.9h7.7v7.2c-1.4,1.5-3.7,2.2-7,2.2c-3,0-5.4-1.1-7.1-3.3c-1.7-2.2-2.5-5.3-2.5-9.3v-2.9
			c0.1-4,0.8-7.1,2.3-9.2c1.5-2.1,3.7-3.1,6.6-3.1c4.5,0,7.1,2.2,7.8,6.7h6.3c-0.5-3.8-2-6.8-4.4-8.9c-2.4-2.1-5.7-3.1-9.9-3.1
			c-4.8,0-8.6,1.6-11.3,4.7c-2.7,3.2-4,7.5-4,13.2V44c0.1,3.5,0.7,6.6,2,9.2c1.3,2.6,3.2,4.7,5.6,6.1c2.4,1.4,5.2,2.1,8.3,2.1
			c3,0,5.7-0.5,8.1-1.4c2.4-0.9,4.2-2.2,5.6-4V41.8z M555.3,39.3c1,1.1,1.5,2.6,1.7,4.7v0.5h-11.8c0.3-2.1,1-3.8,2-5
			c1-1.2,2.4-1.8,4.1-1.8C553,37.7,554.3,38.2,555.3,39.3 M558.2,60c1.8-0.9,3.3-2.2,4.4-3.8l-3.3-3.2c-1.8,2.3-4.1,3.4-6.9,3.4
			c-2,0-3.7-0.7-5-2s-2.1-3.1-2.3-5.4h18.1v-2.5c0-4.4-1-7.8-3.1-10.2c-2.1-2.4-5-3.6-8.7-3.6c-2.4,0-4.5,0.6-6.4,1.8
			c-1.9,1.2-3.4,2.9-4.5,5.1c-1.1,2.2-1.6,4.6-1.6,7.4v0.8c0,4.1,1.2,7.4,3.7,9.9c2.4,2.5,5.6,3.7,9.6,3.7
			C554.3,61.4,556.4,60.9,558.2,60 M532.2,21.6H526v39.2h6.2V21.6z M512.6,60.9h5.8V33.2h-6.2v19.8c-1.1,2.2-3.1,3.2-6.1,3.2
			c-2.9,0-4.4-1.8-4.4-5.3V33.2h-6.2v17.9c0,3.3,0.8,5.9,2.3,7.6s3.8,2.6,6.8,2.6c3.4,0,5.9-1.1,7.8-3.2L512.6,60.9z M471.7,21.6
			h-6.2v39.2h6.2V41.1c1.2-2.2,3.1-3.3,5.6-3.3c1.6,0,2.8,0.4,3.6,1.2c0.8,0.8,1.2,2.1,1.2,4v17.8h6.2V42.8
			c-0.1-6.7-3.1-10.1-9-10.1c-3.1,0-5.7,1.2-7.7,3.5V21.6z M443.6,54.2c-1.1-1.5-1.6-3.7-1.6-6.7v-1c0-3,0.6-5.2,1.7-6.6
			c1.1-1.5,2.6-2.2,4.6-2.2c1.6,0,2.9,0.5,3.9,1.5c1,1,1.6,2.3,1.6,3.9h5.8c-0.1-3.1-1.2-5.6-3.3-7.5c-2.1-1.9-4.7-2.9-8-2.9
			c-3.9,0-6.9,1.3-9.2,3.8c-2.2,2.5-3.4,5.9-3.4,10.1v0.6c0,4.4,1.1,7.9,3.4,10.4c2.3,2.5,5.3,3.8,9.2,3.8c2,0,3.8-0.4,5.6-1.3
			c1.7-0.9,3.1-2,4.1-3.5c1-1.5,1.5-3.1,1.6-4.8h-5.8c-0.1,1.3-0.6,2.4-1.6,3.3c-1,0.9-2.3,1.4-3.9,1.4
			C446.3,56.4,444.7,55.7,443.6,54.2 M423.4,55.8c-0.9,0.6-2.1,0.9-3.7,0.9c-1.7,0-3-0.4-4.1-1.2c-1-0.8-1.6-1.9-1.7-3.4h-6
			c0,1.7,0.5,3.2,1.5,4.6c1,1.4,2.4,2.6,4.1,3.4c1.8,0.8,3.8,1.2,6.1,1.2c3.3,0,6-0.8,8.1-2.3c2.1-1.5,3.1-3.6,3.1-6
			c0-1.5-0.3-2.7-1-3.8c-0.7-1-1.7-1.9-3.1-2.7c-1.4-0.7-3.3-1.4-5.7-1.9c-2.4-0.5-4.1-1.1-4.9-1.6c-0.8-0.5-1.2-1.3-1.2-2.2
			c0-1.1,0.4-1.9,1.3-2.5c0.9-0.6,2-0.9,3.3-0.9c1.5,0,2.6,0.4,3.5,1.2c0.9,0.8,1.3,1.8,1.3,3h6.2c0-2.6-1-4.7-3.1-6.4
			c-2-1.6-4.7-2.5-8-2.5c-3.1,0-5.7,0.8-7.7,2.4c-2,1.6-3,3.6-3,6c0,2.8,1.5,5,4.6,6.5c1.4,0.7,3.2,1.2,5.3,1.7
			c2.1,0.4,3.6,1,4.5,1.5c0.9,0.6,1.4,1.4,1.4,2.5C424.7,54.4,424.3,55.2,423.4,55.8 M385.5,21.6h-6.2v39.2h6.2V41.1
			c1.2-2.2,3.1-3.3,5.6-3.3c1.6,0,2.8,0.4,3.6,1.2c0.8,0.8,1.2,2.1,1.2,4v17.8h6.2V42.8c-0.1-6.7-3.1-10.1-9-10.1
			c-3.1,0-5.7,1.2-7.7,3.5V21.6z M357.3,54.2c-1.1-1.5-1.6-3.7-1.6-6.7v-1c0-3,0.6-5.2,1.7-6.6c1.1-1.5,2.6-2.2,4.6-2.2
			c1.6,0,2.9,0.5,3.9,1.5c1,1,1.6,2.3,1.6,3.9h5.8c-0.1-3.1-1.2-5.6-3.3-7.5c-2.1-1.9-4.7-2.9-8-2.9c-3.9,0-6.9,1.3-9.2,3.8
			c-2.2,2.5-3.4,5.9-3.4,10.1v0.6c0,4.4,1.1,7.9,3.4,10.4c2.3,2.5,5.3,3.8,9.2,3.8c2,0,3.8-0.4,5.6-1.3c1.7-0.9,3.1-2,4.1-3.5
			c1-1.5,1.5-3.1,1.6-4.8h-5.8c-0.1,1.3-0.6,2.4-1.6,3.3c-1,0.9-2.3,1.4-3.9,1.4C360,56.4,358.4,55.7,357.3,54.2 M326.8,40.1
			c1.2-1.6,2.8-2.4,4.8-2.4c2.1,0,3.7,0.8,4.9,2.5c1.2,1.6,1.8,3.8,1.8,6.6c0,3.2-0.6,5.5-1.7,7.2c-1.2,1.6-2.8,2.5-4.9,2.5
			c-2.1,0-3.7-0.8-4.9-2.4c-1.2-1.6-1.8-3.8-1.8-6.7C325,44.1,325.6,41.7,326.8,40.1 M318.8,47.1c0,4.3,1.2,7.8,3.5,10.4
			c2.3,2.6,5.5,3.9,9.4,3.9c2.6,0,4.8-0.6,6.8-1.8c1.9-1.2,3.4-2.8,4.5-5c1-2.1,1.6-4.6,1.6-7.3l0-1.5c-0.2-4-1.4-7.2-3.8-9.6
			c-2.3-2.4-5.4-3.6-9.1-3.6c-2.5,0-4.8,0.6-6.7,1.7c-1.9,1.2-3.4,2.8-4.5,5c-1.1,2.2-1.6,4.6-1.6,7.3V47.1z M296.1,21.6h-6.2v39.2
			h6.2V41.1c1.2-2.2,3.1-3.3,5.6-3.3c1.6,0,2.8,0.4,3.6,1.2c0.8,0.8,1.2,2.1,1.2,4v17.8h6.2V42.8c-0.1-6.7-3.1-10.1-9-10.1
			c-3.1,0-5.7,1.2-7.7,3.5V21.6z M265.9,21.6h-6.2v39.2h6.2V41.1c1.2-2.2,3.1-3.3,5.6-3.3c1.6,0,2.8,0.4,3.6,1.2
			c0.8,0.8,1.2,2.1,1.2,4v17.8h6.2V42.8c-0.1-6.7-3.1-10.1-9-10.1c-3.1,0-5.7,1.2-7.7,3.5V21.6z M237.8,54.2
			c-1.1-1.5-1.6-3.7-1.6-6.7v-1c0-3,0.6-5.2,1.7-6.6c1.1-1.5,2.6-2.2,4.6-2.2c1.6,0,2.9,0.5,3.9,1.5c1,1,1.6,2.3,1.6,3.9h5.8
			c-0.1-3.1-1.2-5.6-3.3-7.5c-2.1-1.9-4.7-2.9-8-2.9c-3.9,0-6.9,1.3-9.2,3.8c-2.2,2.5-3.4,5.9-3.4,10.1v0.6c0,4.4,1.1,7.9,3.4,10.4
			c2.3,2.5,5.3,3.8,9.2,3.8c2,0,3.8-0.4,5.6-1.3c1.7-0.9,3.1-2,4.1-3.5c1-1.5,1.5-3.1,1.6-4.8H248c-0.1,1.3-0.6,2.4-1.6,3.3
			c-1,0.9-2.3,1.4-3.9,1.4C240.4,56.4,238.9,55.7,237.8,54.2 M208.6,55.3c-0.8-0.7-1.2-1.7-1.2-2.8c0-1.5,0.6-2.6,1.7-3.4
			c1.2-0.8,2.9-1.2,5.2-1.2h3.3v5.2c-0.5,1-1.4,1.8-2.4,2.4c-1.1,0.6-2.2,0.9-3.5,0.9C210.5,56.4,209.4,56,208.6,55.3 M224.9,60.9
			v-0.4c-0.7-1.5-1-3.5-1-6V42c-0.1-2.9-1-5.2-3-6.9c-1.9-1.6-4.5-2.4-7.7-2.4c-2.1,0-4.1,0.4-5.8,1.1c-1.7,0.7-3.1,1.8-4.1,3.1
			c-1,1.3-1.5,2.7-1.5,4.3h6.2c0-1.1,0.5-2,1.4-2.7c0.9-0.7,2.1-1.1,3.5-1.1c1.6,0,2.9,0.4,3.7,1.3c0.8,0.9,1.2,2,1.2,3.4V44h-3.8
			c-4.1,0-7.2,0.8-9.4,2.4c-2.2,1.6-3.3,3.8-3.3,6.8c0,2.3,0.9,4.3,2.6,5.9c1.8,1.6,4,2.4,6.8,2.4c2.9,0,5.3-1,7.3-3.1
			c0.2,1.2,0.4,2.1,0.7,2.6H224.9z M195.4,39.9h-15V28.9h17.2v-5.2H174v37.2h6.5V45.2h15V39.9z"/>
	</g>
	<g>
		<path class="st0" d="M103.6,80.4H87.2v16.4H97h6h0.5c4.5,0,8.2-3.7,8.2-8.2S108.1,80.4,103.6,80.4z"/>
		<path class="st0" d="M0,0v141.7h141.7V0H0z M30,17.7h5.5h27.3v5.5H35.4v16.4h21.8V45H35.4v21.8H30V17.7z M68.1,102.2v4.6v10.2
			c-0.2,0.2-0.3,0.4-0.5,0.6c-1.4,1.5-3,2.7-4.6,3.8c-0.1,0.1-0.2,0.1-0.3,0.2c-9.9,6.1-23,5-31.7-3.4c-10.3-10-10.5-26.4-0.5-36.6
			s26.4-10.5,36.6-0.5l-3.8,3.9c-8.1-7.9-21-7.7-28.9,0.4c-7.9,8.1-7.7,21,0.4,28.9c7.8,7.5,19.9,7.7,27.9,0.6v-12.5H46.3v-5.5h21.8
			V102.2z M79,66.8h-5.5V17.7H79v21.8h27.3V17.7h5.5v49.1h-5.5V45H79V66.8z M117.2,124h-6.5l-10.9-21.8H87.2V124h-5.5V75h5.5h16.4
			c7.5,0,13.6,6.1,13.6,13.6c0,6.8-5,12.4-11.4,13.4L117.2,124z"/>
	</g>
</g>
</svg>
