<?xml version="1.0" encoding="utf-8"?>
<!-- Generator: Adobe Illustrator 25.4.2, SVG Export Plug-In . SVG Version: 6.00 Build 0)  -->
<svg version="1.1" id="Ebene_1" xmlns="http://www.w3.org/2000/svg" xmlns:xlink="http://www.w3.org/1999/xlink" x="0px" y="0px"
	 viewBox="0 0 962.3 283.5" style="enable-background:new 0 0 962.3 283.5;" xml:space="preserve">
<style type="text/css">
	.st0{fill:#817E65;}
</style>
<g>
	<g>
		<path class="st0" d="M103.6,80.4H87.2v16.4H97h6h0.5c4.5,0,8.2-3.7,8.2-8.2S108.1,80.4,103.6,80.4z"/>
		<path class="st0" d="M0,0v141.7h141.7V0H0z M30,17.7h5.5h27.3v5.5H35.4v16.4h21.8V45H35.4v21.8H30V17.7z M68.1,102.2v4.6v10.2
			c-0.2,0.2-0.3,0.4-0.5,0.6c-1.4,1.5-3,2.7-4.6,3.8c-0.1,0.1-0.2,0.1-0.3,0.2c-9.9,6.1-23,5-31.7-3.4c-10.3-10-10.5-26.4-0.5-36.6
			s26.4-10.5,36.6-0.5l-3.8,3.9c-8.1-7.9-21-7.7-28.9,0.4c-7.9,8.1-7.7,21,0.4,28.9c7.8,7.5,19.9,7.7,27.9,0.6v-12.5H46.3v-5.5h21.8
			V102.2z M79,66.8h-5.5V17.7H79v21.8h27.3V17.7h5.5v49.1h-5.5V45H79V66.8z M117.2,124h-6.5l-10.9-21.8H87.2V124h-5.5V75h5.5h16.4
			c7.5,0,13.6,6.1,13.6,13.6c0,6.8-5,12.4-11.4,13.4L117.2,124z"/>
	</g>
</g>
<g>
	<path class="st0" d="M838.8,119.1c-1.3,0.9-2.9,1.3-4.9,1.3c-2.2,0-3.9-0.5-5.3-1.4c-1.3-1-2-2.3-2.2-4h-2.9c0,2.3,1,4.2,2.9,5.7
		c1.9,1.5,4.4,2.2,7.5,2.2c2.9,0,5.2-0.7,7-2c1.8-1.3,2.7-3.1,2.7-5.3c0-1.4-0.3-2.5-0.9-3.5c-0.6-1-1.6-1.8-2.8-2.5
		c-1.3-0.7-3.2-1.3-5.8-1.9c-2.6-0.6-4.3-1.3-5.3-2c-1-0.7-1.5-1.7-1.5-3.1c0-1.4,0.6-2.5,1.7-3.3c1.2-0.9,2.7-1.3,4.6-1.3
		c2,0,3.6,0.5,4.9,1.5c1.3,1,1.9,2.3,1.9,3.9h2.9c0-2.3-0.9-4.2-2.7-5.7c-1.8-1.5-4.1-2.2-7.1-2.2c-2.7,0-4.9,0.7-6.7,2
		c-1.7,1.4-2.6,3.1-2.6,5.2c0,1.3,0.3,2.4,0.9,3.4c0.6,0.9,1.6,1.7,2.9,2.4c1.3,0.6,3.1,1.2,5.5,1.7c2.3,0.5,4.1,1.2,5.3,2.1
		c1.2,0.9,1.7,2,1.7,3.5C840.7,117,840.1,118.2,838.8,119.1 M813.7,100.4c1.4,1.6,2.1,3.7,2.2,6.2v0.3H800c0.3-2.7,1.2-4.9,2.7-6.5
		c1.5-1.6,3.4-2.4,5.6-2.4C810.5,98,812.3,98.8,813.7,100.4 M818.2,118.2l-1.8-1.4c-1,1.3-2.1,2.2-3.3,2.7c-1.2,0.6-2.6,0.9-4.1,0.9
		c-2.6,0-4.8-1-6.5-3c-1.7-2-2.6-4.5-2.6-7.5v-0.6h18.8v-1.6c0-3.8-0.9-6.8-2.8-9c-1.9-2.2-4.4-3.3-7.6-3.3c-2.1,0-4,0.6-5.7,1.7
		c-1.8,1.2-3.1,2.8-4.1,4.8c-1,2-1.5,4.3-1.5,6.9v1c0,2.5,0.5,4.7,1.5,6.7c1,2,2.4,3.5,4.2,4.6c1.8,1.1,3.8,1.7,6.1,1.7
		C812.9,122.9,816.1,121.3,818.2,118.2 M775.7,117.6c-1.5-1.9-2.2-4.5-2.2-7.9v-0.9c0-3.4,0.7-6.1,2.2-8c1.5-1.9,3.5-2.9,6.1-2.9
		c2.1,0,3.8,0.6,5.1,1.9c1.4,1.3,2.1,2.9,2.2,5h2.8c-0.1-2.8-1.1-5.1-3-6.8c-1.9-1.7-4.3-2.6-7.2-2.6c-2.3,0-4.3,0.5-6,1.6
		c-1.7,1.1-3,2.6-3.9,4.6c-0.9,2-1.4,4.3-1.4,6.9v0.9c0,4.1,1,7.3,3,9.7c2,2.4,4.8,3.6,8.2,3.6c1.8,0,3.4-0.4,4.9-1.1
		c1.5-0.7,2.8-1.8,3.7-3.1c0.9-1.3,1.4-2.8,1.5-4.4h-2.8c-0.1,1.8-0.9,3.3-2.2,4.5c-1.4,1.1-3.1,1.7-5.1,1.7
		C779.2,120.4,777.1,119.5,775.7,117.6 M743.9,96v26.4h2.9v-18.1c0.7-1.9,1.7-3.4,3.1-4.6c1.4-1.1,3-1.7,4.8-1.7
		c2.2,0,3.7,0.6,4.7,1.7c1,1.2,1.5,2.9,1.5,5.3v17.4h2.9v-17.3c0-3.2-0.7-5.6-2.1-7.2c-1.4-1.6-3.5-2.4-6.3-2.4
		c-1.8,0-3.4,0.4-4.9,1.3c-1.5,0.9-2.7,2.1-3.7,3.7l-0.1-4.5H743.9z M732.4,100.4c1.4,1.6,2.1,3.7,2.2,6.2v0.3h-15.8
		c0.3-2.7,1.2-4.9,2.7-6.5c1.5-1.6,3.4-2.4,5.6-2.4C729.2,98,731,98.8,732.4,100.4 M736.9,118.2l-1.8-1.4c-1,1.3-2.1,2.2-3.3,2.7
		c-1.2,0.6-2.6,0.9-4.1,0.9c-2.6,0-4.8-1-6.5-3c-1.7-2-2.6-4.5-2.6-7.5v-0.6h18.8v-1.6c0-3.8-0.9-6.8-2.8-9
		c-1.9-2.2-4.4-3.3-7.6-3.3c-2.1,0-4,0.6-5.7,1.7c-1.8,1.2-3.1,2.8-4.1,4.8c-1,2-1.5,4.3-1.5,6.9v1c0,2.5,0.5,4.7,1.5,6.7
		c1,2,2.4,3.5,4.2,4.6c1.8,1.1,3.8,1.7,6.1,1.7C731.7,122.9,734.8,121.3,736.9,118.2 M706,89.7c0.4,0.4,0.8,0.6,1.5,0.6
		s1.1-0.2,1.5-0.6c0.4-0.4,0.5-0.8,0.5-1.4c0-0.6-0.2-1-0.5-1.4c-0.4-0.4-0.9-0.6-1.5-0.6s-1.1,0.2-1.5,0.6
		c-0.4,0.4-0.5,0.8-0.5,1.4C705.5,88.9,705.7,89.4,706,89.7 M709,96H706v26.4h2.9V96z M683,117.6c-1.5-1.9-2.2-4.5-2.2-7.9v-0.9
		c0-3.4,0.7-6.1,2.2-8c1.5-1.9,3.5-2.9,6.1-2.9c2.1,0,3.8,0.6,5.1,1.9c1.4,1.3,2.1,2.9,2.2,5h2.8c-0.1-2.8-1.1-5.1-3-6.8
		c-1.9-1.7-4.3-2.6-7.2-2.6c-2.3,0-4.3,0.5-6,1.6c-1.7,1.1-3,2.6-3.9,4.6c-0.9,2-1.4,4.3-1.4,6.9v0.9c0,4.1,1,7.3,3,9.7
		c2,2.4,4.8,3.6,8.2,3.6c1.8,0,3.4-0.4,4.9-1.1c1.5-0.7,2.8-1.8,3.7-3.1c0.9-1.3,1.4-2.8,1.5-4.4h-2.8c-0.1,1.8-0.9,3.3-2.2,4.5
		c-1.4,1.1-3.1,1.7-5.1,1.7C686.6,120.4,684.5,119.5,683,117.6 M666.8,118.5c-1.7,1.2-3.9,1.8-6.7,1.8c-3.1,0-5.6-0.7-7.5-2.2
		c-1.9-1.4-2.8-3.4-2.8-5.9h-3c0,2.1,0.5,3.9,1.6,5.5c1.1,1.6,2.7,2.9,4.8,3.8c2.1,0.9,4.4,1.3,6.9,1.3c3.7,0,6.6-0.8,8.8-2.5
		c2.2-1.7,3.4-3.9,3.4-6.7c0-1.8-0.4-3.3-1.2-4.6c-0.8-1.3-2.1-2.4-3.7-3.4c-1.6-0.9-4.1-1.8-7.2-2.7c-3.2-0.9-5.5-1.9-7-3
		c-1.4-1.1-2.2-2.6-2.2-4.4c0-2,0.8-3.5,2.4-4.8c1.6-1.2,3.8-1.8,6.5-1.8c2.8,0,5,0.7,6.7,2.2c1.7,1.5,2.5,3.4,2.5,5.9h3
		c0-2-0.5-3.8-1.5-5.4c-1-1.6-2.5-2.9-4.3-3.8c-1.9-0.9-4-1.4-6.3-1.4c-3.5,0-6.3,0.9-8.6,2.6c-2.2,1.7-3.4,3.9-3.4,6.6
		c0,2.8,1.2,5.1,3.6,6.8c1.7,1.2,4.4,2.3,8.1,3.4c3.7,1,6.2,2.1,7.6,3.3c1.4,1.1,2.1,2.7,2.1,4.7
		C669.3,115.7,668.5,117.3,666.8,118.5 M609.9,100.9c1.4-1.9,3.3-2.9,5.7-2.9c3.6,0,6.1,1.7,7.6,5.1v12.4c-1.5,3.2-4.1,4.8-7.7,4.8
		c-2.5,0-4.4-1-5.7-2.9c-1.4-1.9-2-4.6-2-8C607.9,105.7,608.6,102.8,609.9,100.9 M604.9,109.3c0,4.2,0.9,7.5,2.8,9.9
		c1.9,2.4,4.3,3.7,7.4,3.7c3.6,0,6.4-1.3,8.2-4l0.1,3.5h2.7V84.9h-2.9v14.8c-1.9-2.8-4.6-4.2-8.2-4.2c-3.1,0-5.6,1.2-7.5,3.6
		c-1.8,2.4-2.7,5.7-2.7,9.8V109.3z M594.5,100.4c1.4,1.6,2.1,3.7,2.2,6.2v0.3h-15.8c0.3-2.7,1.2-4.9,2.7-6.5
		c1.5-1.6,3.4-2.4,5.6-2.4C591.3,98,593.1,98.8,594.5,100.4 M599,118.2l-1.8-1.4c-1,1.3-2.1,2.2-3.3,2.7c-1.2,0.6-2.6,0.9-4.1,0.9
		c-2.6,0-4.8-1-6.5-3c-1.7-2-2.6-4.5-2.6-7.5v-0.6h18.8v-1.6c0-3.8-0.9-6.8-2.8-9c-1.9-2.2-4.4-3.3-7.6-3.3c-2.1,0-4,0.6-5.7,1.7
		c-1.8,1.2-3.1,2.8-4.1,4.8c-1,2-1.5,4.3-1.5,6.9v1c0,2.5,0.5,4.7,1.5,6.7c1,2,2.4,3.5,4.2,4.6c1.8,1.1,3.8,1.7,6.1,1.7
		C593.7,122.9,596.8,121.3,599,118.2 M568.1,89.7c0.4,0.4,0.8,0.6,1.5,0.6s1.1-0.2,1.5-0.6c0.4-0.4,0.5-0.8,0.5-1.4
		c0-0.6-0.2-1-0.5-1.4c-0.4-0.4-0.9-0.6-1.5-0.6s-1.1,0.2-1.5,0.6c-0.4,0.4-0.5,0.8-0.5,1.4C567.6,88.9,567.7,89.4,568.1,89.7
		 M571,96h-2.9v26.4h2.9V96z M559.7,84.9h-2.9v37.5h2.9V84.9z M544.5,117.5c-1.4,2-3.3,2.9-5.7,2.9c-1.8,0-3.3-0.4-4.6-1.2
		c-1.3-0.8-2.3-2-3-3.5v-12.7c0.7-1.6,1.7-2.9,3-3.8c1.3-0.9,2.8-1.3,4.6-1.3c2.5,0,4.4,1,5.8,2.9c1.4,2,2.1,4.6,2.1,8
		C546.6,112.7,545.9,115.5,544.5,117.5 M549.5,109c0-4.2-0.9-7.6-2.7-10c-1.8-2.4-4.3-3.6-7.4-3.6c-3.6,0-6.4,1.4-8.3,4.2l-0.1-3.7
		h-2.7v36.6h2.9v-13.5c1.9,2.5,4.7,3.8,8.3,3.8c3.1,0,5.5-1.2,7.3-3.6c1.8-2.4,2.7-5.7,2.7-9.8V109z M516.2,117.5
		c-1.4,2-3.3,2.9-5.7,2.9c-1.8,0-3.3-0.4-4.6-1.2c-1.3-0.8-2.3-2-3-3.5v-12.7c0.7-1.6,1.7-2.9,3-3.8c1.3-0.9,2.8-1.3,4.6-1.3
		c2.5,0,4.4,1,5.8,2.9c1.4,2,2.1,4.6,2.1,8C518.3,112.7,517.6,115.5,516.2,117.5 M521.2,109c0-4.2-0.9-7.6-2.7-10
		c-1.8-2.4-4.3-3.6-7.4-3.6c-3.6,0-6.4,1.4-8.3,4.2l-0.1-3.7h-2.7v36.6h2.9v-13.5c1.9,2.5,4.7,3.8,8.3,3.8c3.1,0,5.5-1.2,7.3-3.6
		c1.8-2.4,2.7-5.7,2.7-9.8V109z M479.3,90.5l7.1,19.4h-14.3L479.3,90.5z M491,122.4h3.1l-13.4-35.5h-2.9l-13.4,35.5h3.1l3.7-10h16.1
		L491,122.4z M441.3,122.4v-24h6.3V96h-6.3v-3.3c0-1.8,0.4-3.3,1.3-4.3c0.9-1,2.1-1.5,3.8-1.5c1,0,1.8,0.1,2.7,0.3l0.2-2.4
		c-1-0.3-2-0.4-3.1-0.4c-2.5,0-4.4,0.7-5.7,2.2c-1.4,1.4-2.1,3.5-2.1,6.2V96H434v2.4h4.4v24H441.3z M409.9,109.1c0-3.3,0.8-6,2.5-8
		c1.6-2,3.8-3.1,6.4-3.1c1.7,0,3.3,0.5,4.6,1.4s2.4,2.2,3.1,3.9c0.7,1.7,1.1,3.5,1.1,5.5v0.6c0,3.3-0.8,6-2.5,8c-1.6,2-3.8,3-6.4,3
		c-2.7,0-4.8-1-6.4-3c-1.6-2-2.5-4.6-2.5-7.8V109.1z M407,109.4c0,4.1,1.1,7.3,3.3,9.8c2.2,2.5,5,3.7,8.5,3.7c2.3,0,4.3-0.6,6.1-1.7
		c1.8-1.1,3.2-2.7,4.2-4.7c1-2,1.5-4.3,1.5-6.9V109c0-4.1-1.1-7.3-3.3-9.8s-5-3.7-8.5-3.7c-2.3,0-4.3,0.6-6.1,1.7
		c-1.8,1.1-3.2,2.7-4.2,4.7c-1,2-1.5,4.3-1.5,6.9V109.4z M370.3,96h-3.2l10,26.2l-1.3,3.6c-0.6,1.7-1.4,2.9-2.3,3.6
		c-0.9,0.7-2,1.1-3.5,1.1l-1.5-0.1l0,2.4c0.8,0.2,1.5,0.3,2.2,0.3c3,0,5.3-1.6,6.7-4.8l0.6-1.4L389.4,96h-3.1l-7.7,22.2L370.3,96z
		 M354.1,89.2V96h-4.9v2.4h4.9V116c0,2.3,0.5,4,1.4,5.1c0.9,1.2,2.4,1.7,4.4,1.7c1.3,0,2.4-0.1,3.1-0.4l-0.1-2.4
		c-1.1,0.2-1.9,0.2-2.4,0.2c-1.2,0-2.1-0.4-2.6-1.1c-0.5-0.7-0.8-1.8-0.8-3.3V98.4h5.5V96H357v-6.8H354.1z M340.9,89.7
		c0.4,0.4,0.8,0.6,1.5,0.6c0.6,0,1.1-0.2,1.5-0.6c0.4-0.4,0.5-0.8,0.5-1.4c0-0.6-0.2-1-0.5-1.4c-0.4-0.4-0.9-0.6-1.5-0.6
		c-0.6,0-1.1,0.2-1.5,0.6c-0.4,0.4-0.5,0.8-0.5,1.4C340.3,88.9,340.5,89.4,340.9,89.7 M343.8,96h-2.9v26.4h2.9V96z M328.9,119.1
		c-1.3,0.9-2.9,1.3-4.9,1.3c-2.2,0-3.9-0.5-5.3-1.4c-1.3-1-2-2.3-2.2-4h-2.9c0,2.3,1,4.2,2.9,5.7c1.9,1.5,4.4,2.2,7.5,2.2
		c2.9,0,5.2-0.7,7-2c1.8-1.3,2.7-3.1,2.7-5.3c0-1.4-0.3-2.5-0.9-3.5c-0.6-1-1.6-1.8-2.8-2.5c-1.3-0.7-3.2-1.3-5.8-1.9
		c-2.6-0.6-4.3-1.3-5.3-2c-1-0.7-1.5-1.7-1.5-3.1c0-1.4,0.6-2.5,1.7-3.3c1.2-0.9,2.7-1.3,4.6-1.3c2,0,3.6,0.5,4.9,1.5
		c1.3,1,1.9,2.3,1.9,3.9h2.9c0-2.3-0.9-4.2-2.7-5.7c-1.8-1.5-4.1-2.2-7.1-2.2c-2.7,0-4.9,0.7-6.7,2c-1.7,1.4-2.6,3.1-2.6,5.2
		c0,1.3,0.3,2.4,0.9,3.4c0.6,0.9,1.6,1.7,2.9,2.4c1.3,0.6,3.1,1.2,5.5,1.7c2.3,0.5,4.1,1.2,5.3,2.1c1.2,0.9,1.7,2,1.7,3.5
		C330.8,117,330.2,118.2,328.9,119.1 M309.9,95.8c-0.5-0.2-1.1-0.3-1.9-0.3c-3.4,0-5.9,1.6-7.4,4.7l0-4.2h-2.9v26.4h2.9v-18.1
		c0.5-1.9,1.4-3.4,2.7-4.4c1.3-1,2.8-1.5,4.6-1.5c0.7,0,1.4,0.1,2,0.2L309.9,95.8z M286.1,100.4c1.4,1.6,2.1,3.7,2.2,6.2v0.3h-15.8
		c0.3-2.7,1.2-4.9,2.7-6.5c1.5-1.6,3.4-2.4,5.6-2.4C282.9,98,284.7,98.8,286.1,100.4 M290.6,118.2l-1.8-1.4c-1,1.3-2.1,2.2-3.3,2.7
		c-1.2,0.6-2.6,0.9-4.1,0.9c-2.6,0-4.8-1-6.5-3c-1.7-2-2.6-4.5-2.6-7.5v-0.6h18.8v-1.6c0-3.8-0.9-6.8-2.8-9
		c-1.9-2.2-4.4-3.3-7.6-3.3c-2.1,0-4,0.6-5.7,1.7c-1.8,1.2-3.1,2.8-4.1,4.8c-1,2-1.5,4.3-1.5,6.9v1c0,2.5,0.5,4.7,1.5,6.7
		c1,2,2.4,3.5,4.2,4.6c1.8,1.1,3.8,1.7,6.1,1.7C285.3,122.9,288.4,121.3,290.6,118.2 M247.2,96h-3l9.9,26.4h2.4l9.9-26.4h-3l-8,22.4
		L247.2,96z M235.7,89.7c0.4,0.4,0.8,0.6,1.5,0.6c0.6,0,1.1-0.2,1.5-0.6c0.4-0.4,0.5-0.8,0.5-1.4c0-0.6-0.2-1-0.5-1.4
		c-0.4-0.4-0.9-0.6-1.5-0.6c-0.6,0-1.1,0.2-1.5,0.6c-0.4,0.4-0.5,0.8-0.5,1.4C235.1,88.9,235.3,89.4,235.7,89.7 M238.6,96h-2.9v26.4
		h2.9V96z M207.6,96v26.4h2.9v-18.1c0.7-1.9,1.7-3.4,3.1-4.6c1.4-1.1,3-1.7,4.8-1.7c2.2,0,3.7,0.6,4.7,1.7c1,1.2,1.5,2.9,1.5,5.3
		v17.4h2.9v-17.3c0-3.2-0.7-5.6-2.1-7.2s-3.5-2.4-6.3-2.4c-1.8,0-3.4,0.4-4.9,1.3c-1.5,0.9-2.7,2.1-3.7,3.7l-0.1-4.5H207.6z
		 M196.1,86.8v24.1c0,3-0.9,5.3-2.6,6.9c-1.7,1.7-4,2.5-6.9,2.5c-2.9,0-5.2-0.8-7-2.5c-1.7-1.7-2.6-4-2.6-7v-24h-3v24.5
		c0.1,3.6,1.2,6.4,3.5,8.5c2.3,2,5.3,3.1,9,3.1c2.5,0,4.6-0.5,6.5-1.4c1.9-1,3.4-2.3,4.4-4.1c1-1.8,1.6-3.9,1.6-6.2V86.8H196.1z"/>
	<path class="st0" d="M849.7,33.2v27.6h6.2V41.2c1.2-2.3,3.1-3.4,5.6-3.4c1.7,0,3,0.4,3.7,1.3c0.8,0.8,1.1,2.1,1.1,3.9v17.9h6.2
		V42.6c-0.1-6.6-3-9.9-8.8-9.9c-3.3,0-6,1.2-8,3.7l-0.2-3.2H849.7z M835.8,39.3c1,1.1,1.5,2.6,1.7,4.7v0.5h-11.8c0.3-2.1,1-3.8,2-5
		c1-1.2,2.4-1.8,4.1-1.8C833.5,37.7,834.9,38.2,835.8,39.3 M838.8,60c1.8-0.9,3.3-2.2,4.4-3.8l-3.3-3.2c-1.8,2.3-4.1,3.4-6.9,3.4
		c-2,0-3.7-0.7-5-2s-2.1-3.1-2.3-5.4h18.1v-2.5c0-4.4-1-7.8-3.1-10.2c-2.1-2.4-5-3.6-8.7-3.6c-2.4,0-4.5,0.6-6.4,1.8
		c-1.9,1.2-3.4,2.9-4.5,5.1c-1.1,2.2-1.6,4.6-1.6,7.4v0.8c0,4.1,1.2,7.4,3.7,9.9c2.4,2.5,5.6,3.7,9.6,3.7
		C834.8,61.4,836.9,60.9,838.8,60 M796.7,40.2c1.1-1.6,2.6-2.4,4.6-2.4c2.5,0,4.4,1.1,5.5,3.3v11.8c-1.2,2.3-3,3.4-5.6,3.4
		c-2,0-3.5-0.8-4.6-2.4c-1.1-1.6-1.6-3.8-1.6-6.6C795,44.2,795.6,41.8,796.7,40.2 M791.8,57.5c2,2.6,4.6,3.9,7.9,3.9
		c3.1,0,5.6-1.1,7.4-3.4l0.3,2.9h5.6V21.6h-6.2v14.1c-1.8-2-4.2-3.1-7.1-3.1c-3.3,0-6,1.3-7.9,3.9c-2,2.6-3,6-3,10.3
		C788.8,51.3,789.8,54.9,791.8,57.5 M759.8,33.2v27.6h6.2V41.2c1.2-2.3,3.1-3.4,5.6-3.4c1.7,0,3,0.4,3.7,1.3
		c0.8,0.8,1.1,2.1,1.1,3.9v17.9h6.2V42.6c-0.1-6.6-3-9.9-8.8-9.9c-3.3,0-6,1.2-8,3.7l-0.2-3.2H759.8z M744.5,28.2
		c0.6,0.6,1.4,0.9,2.4,0.9c1,0,1.8-0.3,2.4-0.9c0.6-0.6,0.9-1.3,0.9-2.1c0-0.9-0.3-1.6-0.9-2.1c-0.6-0.6-1.4-0.9-2.4-0.9
		c-1,0-1.8,0.3-2.4,0.9c-0.6,0.6-0.9,1.3-0.9,2.1C743.6,26.9,743.9,27.6,744.5,28.2 M732.8,28.1c0.6,0.6,1.4,0.9,2.4,0.9
		c1,0,1.8-0.3,2.4-0.9c0.6-0.6,0.9-1.3,0.9-2.1c0-0.9-0.3-1.6-0.9-2.1c-0.6-0.6-1.4-0.9-2.4-0.9c-1,0-1.8,0.3-2.4,0.9
		c-0.6,0.6-0.9,1.3-0.9,2.1C732,26.8,732.3,27.6,732.8,28.1 M746.6,60.9h5.8V33.2h-6.2v19.8c-1.1,2.2-3.1,3.2-6.1,3.2
		c-2.9,0-4.4-1.8-4.4-5.3V33.2h-6.2v17.9c0,3.3,0.8,5.9,2.3,7.6c1.5,1.8,3.8,2.6,6.8,2.6c3.4,0,5.9-1.1,7.8-3.2L746.6,60.9z
		 M717.1,47.6c0,2.9-0.6,5.1-1.6,6.6c-1.1,1.4-2.6,2.2-4.5,2.2c-2.7,0-4.6-1.2-5.7-3.6V41.3c1.1-2.3,3-3.5,5.7-3.5
		c2,0,3.5,0.8,4.6,2.2c1.1,1.5,1.6,3.7,1.6,6.7V47.6z M723.3,47c0-4.5-1-8-2.9-10.5c-1.9-2.5-4.6-3.8-7.9-3.8c-3,0-5.4,1.1-7.2,3.2
		V21.6h-6.2v39.2h5.6l0.3-3c1.8,2.3,4.3,3.5,7.6,3.5c3.4,0,6-1.3,7.9-3.8c1.9-2.5,2.9-5.9,2.9-10.2V47z M685.8,60.9h5.8V33.2h-6.2
		v19.8c-1.1,2.2-3.1,3.2-6.1,3.2c-2.9,0-4.4-1.8-4.4-5.3V33.2h-6.2v17.9c0,3.3,0.8,5.9,2.3,7.6c1.5,1.8,3.8,2.6,6.8,2.6
		c3.4,0,5.9-1.1,7.8-3.2L685.8,60.9z M646.3,55.3c-0.8-0.7-1.2-1.7-1.2-2.8c0-1.5,0.6-2.6,1.7-3.4c1.2-0.8,2.9-1.2,5.2-1.2h3.3v5.2
		c-0.5,1-1.4,1.8-2.4,2.4c-1.1,0.6-2.2,0.9-3.5,0.9C648.2,56.4,647.1,56,646.3,55.3 M662.7,60.9v-0.4c-0.7-1.5-1-3.5-1-5.9V42
		c-0.1-2.9-1-5.2-3-6.9c-1.9-1.6-4.5-2.4-7.7-2.4c-2.1,0-4.1,0.4-5.8,1.1c-1.7,0.7-3.1,1.8-4.1,3.1c-1,1.3-1.5,2.7-1.5,4.3h6.2
		c0-1.1,0.5-2,1.4-2.7c0.9-0.7,2.1-1.1,3.5-1.1c1.6,0,2.9,0.4,3.7,1.3c0.8,0.9,1.2,2,1.2,3.4V44h-3.8c-4.1,0-7.2,0.8-9.4,2.4
		c-2.2,1.6-3.3,3.8-3.3,6.8c0,2.3,0.9,4.3,2.6,5.9c1.8,1.6,4,2.4,6.8,2.4c2.9,0,5.3-1,7.3-3.1c0.2,1.2,0.4,2.1,0.7,2.6H662.7z
		 M634.8,33.1c-0.6-0.2-1.3-0.4-2.2-0.4c-2.7,0-4.7,1.2-6.2,3.6l-0.2-3.1h-5.9v27.6h6.2V42c1-2.2,2.9-3.3,5.7-3.3
		c0.9,0,1.7,0.1,2.5,0.2L634.8,33.1z M612.5,41.8h-14.1v4.9h7.7v7.2c-1.4,1.5-3.7,2.2-7,2.2c-3,0-5.4-1.1-7.1-3.3
		c-1.7-2.2-2.5-5.3-2.5-9.3v-2.9c0.1-4,0.8-7.1,2.3-9.2c1.5-2.1,3.7-3.1,6.6-3.1c4.5,0,7.1,2.2,7.8,6.7h6.3c-0.5-3.8-2-6.8-4.4-8.8
		c-2.4-2.1-5.7-3.1-9.9-3.1c-4.8,0-8.6,1.6-11.3,4.7c-2.7,3.2-4,7.5-4,13.2V44c0.1,3.5,0.7,6.6,2,9.2c1.3,2.6,3.2,4.7,5.6,6.1
		c2.4,1.4,5.2,2.1,8.3,2.1c3,0,5.7-0.5,8.1-1.4c2.4-0.9,4.2-2.2,5.6-4V41.8z M555.2,39.3c1,1.1,1.5,2.6,1.7,4.7v0.5H545
		c0.3-2.1,1-3.8,2-5c1-1.2,2.4-1.8,4.1-1.8C552.9,37.7,554.2,38.2,555.2,39.3 M558.1,60c1.8-0.9,3.3-2.2,4.4-3.8l-3.3-3.2
		c-1.8,2.3-4.1,3.4-6.9,3.4c-2,0-3.7-0.7-5-2s-2.1-3.1-2.3-5.4H563v-2.5c0-4.4-1-7.8-3.1-10.2c-2.1-2.4-5-3.6-8.7-3.6
		c-2.4,0-4.5,0.6-6.4,1.8c-1.9,1.2-3.4,2.9-4.5,5.1c-1.1,2.2-1.6,4.6-1.6,7.4v0.8c0,4.1,1.2,7.4,3.7,9.9c2.4,2.5,5.6,3.7,9.6,3.7
		C554.2,61.4,556.2,60.9,558.1,60 M532.2,21.6h-6.2v39.2h6.2V21.6z M512.5,60.9h5.8V33.2h-6.2v19.8c-1.1,2.2-3.1,3.2-6.1,3.2
		c-2.9,0-4.4-1.8-4.4-5.3V33.2h-6.2v17.9c0,3.3,0.8,5.9,2.3,7.6s3.8,2.6,6.8,2.6c3.4,0,5.9-1.1,7.8-3.2L512.5,60.9z M471.7,21.6
		h-6.2v39.2h6.2V41.1c1.2-2.2,3.1-3.3,5.6-3.3c1.6,0,2.8,0.4,3.6,1.2c0.8,0.8,1.2,2.1,1.2,4v17.8h6.2V42.8c-0.1-6.7-3.1-10.1-9-10.1
		c-3.1,0-5.7,1.2-7.7,3.5V21.6z M443.5,54.2c-1.1-1.5-1.6-3.7-1.6-6.7v-1c0-3,0.6-5.2,1.7-6.6c1.1-1.5,2.6-2.2,4.6-2.2
		c1.6,0,2.9,0.5,3.9,1.5c1,1,1.6,2.3,1.6,3.9h5.8c-0.1-3.1-1.2-5.6-3.3-7.5c-2.1-1.9-4.7-2.9-8-2.9c-3.9,0-6.9,1.3-9.2,3.8
		c-2.2,2.5-3.4,5.9-3.4,10.1v0.6c0,4.4,1.1,7.9,3.4,10.4c2.3,2.5,5.3,3.8,9.2,3.8c2,0,3.8-0.4,5.6-1.3c1.7-0.9,3.1-2,4.1-3.5
		c1-1.5,1.5-3.1,1.6-4.8h-5.8c-0.1,1.3-0.6,2.4-1.6,3.3c-1,0.9-2.3,1.4-3.9,1.4C446.2,56.4,444.6,55.7,443.5,54.2 M423.4,55.8
		c-0.9,0.6-2.1,0.9-3.7,0.9c-1.7,0-3-0.4-4.1-1.2c-1-0.8-1.6-1.9-1.7-3.4h-6c0,1.7,0.5,3.2,1.5,4.6c1,1.4,2.4,2.6,4.1,3.4
		c1.8,0.8,3.8,1.2,6.1,1.2c3.3,0,6-0.8,8.1-2.3c2.1-1.5,3.1-3.6,3.1-6c0-1.5-0.3-2.7-1-3.8s-1.7-1.9-3.1-2.7
		c-1.4-0.7-3.3-1.4-5.7-1.9c-2.4-0.5-4.1-1.1-4.9-1.6c-0.8-0.5-1.2-1.3-1.2-2.2c0-1.1,0.4-1.9,1.3-2.5c0.9-0.6,2-0.9,3.3-0.9
		c1.5,0,2.6,0.4,3.5,1.2c0.9,0.8,1.3,1.8,1.3,3h6.2c0-2.6-1-4.7-3.1-6.4c-2-1.6-4.7-2.5-8-2.5c-3.1,0-5.7,0.8-7.7,2.4
		c-2,1.6-3,3.6-3,6c0,2.8,1.5,5,4.6,6.5c1.4,0.7,3.2,1.2,5.3,1.7c2.1,0.4,3.6,1,4.5,1.5c0.9,0.6,1.4,1.4,1.4,2.5
		C424.6,54.4,424.2,55.2,423.4,55.8 M385.4,21.6h-6.2v39.2h6.2V41.1c1.2-2.2,3.1-3.3,5.6-3.3c1.6,0,2.8,0.4,3.6,1.2
		c0.8,0.8,1.2,2.1,1.2,4v17.8h6.2V42.8c-0.1-6.7-3.1-10.1-9-10.1c-3.1,0-5.7,1.2-7.7,3.5V21.6z M357.3,54.2
		c-1.1-1.5-1.6-3.7-1.6-6.7v-1c0-3,0.6-5.2,1.7-6.6c1.1-1.5,2.6-2.2,4.6-2.2c1.6,0,2.9,0.5,3.9,1.5c1,1,1.6,2.3,1.6,3.9h5.8
		c-0.1-3.1-1.2-5.6-3.3-7.5c-2.1-1.9-4.7-2.9-8-2.9c-3.9,0-6.9,1.3-9.2,3.8c-2.2,2.5-3.4,5.9-3.4,10.1v0.6c0,4.4,1.1,7.9,3.4,10.4
		c2.3,2.5,5.3,3.8,9.2,3.8c2,0,3.8-0.4,5.6-1.3c1.7-0.9,3.1-2,4.1-3.5c1-1.5,1.5-3.1,1.6-4.8h-5.8c-0.1,1.3-0.6,2.4-1.6,3.3
		c-1,0.9-2.3,1.4-3.9,1.4C359.9,56.4,358.4,55.7,357.3,54.2 M326.8,40.1c1.2-1.6,2.8-2.4,4.8-2.4c2.1,0,3.7,0.8,4.9,2.5
		c1.2,1.6,1.8,3.8,1.8,6.6c0,3.1-0.6,5.5-1.7,7.2c-1.2,1.6-2.8,2.5-4.9,2.5c-2.1,0-3.7-0.8-4.9-2.4c-1.2-1.6-1.8-3.8-1.8-6.7
		C325,44.1,325.6,41.7,326.8,40.1 M318.8,47.1c0,4.3,1.2,7.8,3.5,10.4c2.3,2.6,5.5,3.9,9.4,3.9c2.6,0,4.8-0.6,6.8-1.8
		c1.9-1.2,3.4-2.8,4.5-5c1-2.1,1.6-4.6,1.6-7.3l0-1.5c-0.2-4-1.4-7.2-3.8-9.5c-2.3-2.4-5.3-3.6-9.1-3.6c-2.5,0-4.7,0.6-6.7,1.7
		c-1.9,1.2-3.4,2.8-4.5,5c-1.1,2.2-1.6,4.6-1.6,7.3V47.1z M296,21.6h-6.2v39.2h6.2V41.1c1.2-2.2,3.1-3.3,5.6-3.3
		c1.6,0,2.8,0.4,3.6,1.2c0.8,0.8,1.2,2.1,1.2,4v17.8h6.2V42.8c-0.1-6.7-3.1-10.1-9-10.1c-3.1,0-5.7,1.2-7.7,3.5V21.6z M265.9,21.6
		h-6.2v39.2h6.2V41.1c1.2-2.2,3.1-3.3,5.6-3.3c1.6,0,2.8,0.4,3.6,1.2c0.8,0.8,1.2,2.1,1.2,4v17.8h6.2V42.8c-0.1-6.7-3.1-10.1-9-10.1
		c-3.1,0-5.7,1.2-7.7,3.5V21.6z M237.8,54.2c-1.1-1.5-1.6-3.7-1.6-6.7v-1c0-3,0.6-5.2,1.7-6.6c1.1-1.5,2.6-2.2,4.6-2.2
		c1.6,0,2.9,0.5,3.9,1.5c1,1,1.6,2.3,1.6,3.9h5.8c-0.1-3.1-1.2-5.6-3.3-7.5c-2.1-1.9-4.7-2.9-8-2.9c-3.9,0-6.9,1.3-9.2,3.8
		c-2.2,2.5-3.4,5.9-3.4,10.1v0.6c0,4.4,1.1,7.9,3.4,10.4c2.3,2.5,5.3,3.8,9.2,3.8c2,0,3.8-0.4,5.6-1.3c1.7-0.9,3.1-2,4.1-3.5
		c1-1.5,1.5-3.1,1.6-4.8h-5.8c-0.1,1.3-0.6,2.4-1.6,3.3c-1,0.9-2.3,1.4-3.9,1.4C240.4,56.4,238.8,55.7,237.8,54.2 M208.6,55.3
		c-0.8-0.7-1.2-1.7-1.2-2.8c0-1.5,0.6-2.6,1.7-3.4c1.2-0.8,2.9-1.2,5.2-1.2h3.3v5.2c-0.5,1-1.4,1.8-2.4,2.4
		c-1.1,0.6-2.2,0.9-3.5,0.9C210.5,56.4,209.4,56,208.6,55.3 M224.9,60.9v-0.4c-0.7-1.5-1-3.5-1-5.9V42c-0.1-2.9-1-5.2-3-6.9
		c-1.9-1.6-4.5-2.4-7.7-2.4c-2.1,0-4.1,0.4-5.8,1.1c-1.7,0.7-3.1,1.8-4.1,3.1c-1,1.3-1.5,2.7-1.5,4.3h6.2c0-1.1,0.5-2,1.4-2.7
		c0.9-0.7,2.1-1.1,3.5-1.1c1.6,0,2.9,0.4,3.7,1.3c0.8,0.9,1.2,2,1.2,3.4V44h-3.8c-4.1,0-7.2,0.8-9.4,2.4c-2.2,1.6-3.3,3.8-3.3,6.8
		c0,2.3,0.9,4.3,2.6,5.9c1.8,1.6,4,2.4,6.8,2.4c2.9,0,5.3-1,7.3-3.1c0.2,1.2,0.4,2.1,0.7,2.6H224.9z M195.4,40h-15V28.9h17.2v-5.2
		H174v37.2h6.5V45.2h15V40z"/>
</g>
<g>
	<path class="st0" d="M175.6,245.4h-3l6.2-35.5h3L175.6,245.4z"/>
	<path class="st0" d="M192.3,219l-0.9,4.5c1.2-1.6,2.5-2.9,4.1-3.7c1.5-0.9,3.2-1.3,4.9-1.3c2.5,0.1,4.4,1,5.5,2.7
		c1.2,1.7,1.6,4.1,1.2,7.1l-2.9,17.2h-2.9l2.9-17.2c0.1-0.9,0.1-1.8,0-2.7c-0.3-2.9-1.9-4.4-4.7-4.5c-1.7,0-3.3,0.5-4.8,1.5
		c-1.5,1-2.8,2.6-3.9,4.7l-3.1,18.1h-2.9l4.6-26.4H192.3z"/>
	<path class="st0" d="M228.9,238.5c0.3-2.2-1.1-3.9-4.1-4.9l-4.2-1.2c-3.9-1.3-5.7-3.5-5.5-6.5c0.1-2.2,1.1-4,3-5.4
		c1.9-1.4,4.2-2,6.8-2c2.6,0,4.7,0.8,6.3,2.2c1.6,1.4,2.4,3.3,2.2,5.7h-2.9c0.1-1.6-0.4-2.9-1.5-3.9c-1.1-1-2.5-1.5-4.3-1.5
		c-1.9,0-3.4,0.4-4.7,1.3c-1.3,0.9-2,2-2.1,3.5c-0.2,2.1,1,3.6,3.9,4.4l3.1,0.9l1.6,0.6c3.7,1.4,5.4,3.6,5.2,6.8
		c-0.1,2.1-1,3.9-2.7,5.2c-1.7,1.4-3.9,2.1-6.6,2.3l-1,0c-1.8,0-3.4-0.4-4.8-1c-1.4-0.7-2.5-1.6-3.3-2.8c-0.8-1.2-1.1-2.6-1-4.1
		l2.9,0c0,1.7,0.6,3,1.7,3.9c1.1,1,2.7,1.5,4.6,1.5c2,0,3.6-0.4,5-1.3C227.9,241.2,228.7,240,228.9,238.5z"/>
	<path class="st0" d="M247.6,212.3l-1.2,6.8h5.3l-0.4,2.4H246l-2.9,17.6l0,1.5c0,1.8,0.8,2.7,2.4,2.7c0.5,0,1.3,0,2.4-0.2l-0.1,2.4
		c-1,0.3-1.9,0.4-2.9,0.4c-1.7,0-3-0.6-3.7-1.8c-0.8-1.2-1.1-2.9-0.9-5.1l2.9-17.6h-4.7l0.4-2.4h4.7l1.2-6.8H247.6z"/>
	<path class="st0" d="M256.9,245.4h-2.9l4.6-26.4h2.9L256.9,245.4z M259.3,211.4c0.1-1.1,0.8-1.7,2.1-2c0.6,0.1,1.1,0.3,1.4,0.6
		c0.3,0.3,0.4,0.8,0.5,1.4c-0.2,0.6-0.4,1.1-0.7,1.4c-0.3,0.3-0.8,0.5-1.4,0.6C259.9,213.2,259.3,212.5,259.3,211.4z"/>
	<path class="st0" d="M275.3,212.3l-1.2,6.8h5.3l-0.4,2.4h-5.3l-2.9,17.6l0,1.5c0,1.8,0.8,2.7,2.4,2.7c0.5,0,1.3,0,2.4-0.2l-0.1,2.4
		c-1,0.3-1.9,0.4-2.9,0.4c-1.7,0-3-0.6-3.7-1.8c-0.8-1.2-1.1-2.9-0.9-5.1l2.9-17.6h-4.7l0.4-2.4h4.7l1.2-6.8H275.3z"/>
	<path class="st0" d="M298.9,242.1c-2.1,2.6-5,3.9-8.7,3.8c-2.5,0-4.3-0.9-5.6-2.7c-1.2-1.8-1.7-4.2-1.3-7.3l2.8-16.9h2.9l-2.8,17
		c-0.1,0.9-0.1,1.8,0,2.6c0.1,1.5,0.6,2.7,1.3,3.5c0.8,0.8,1.9,1.2,3.2,1.3c2,0.1,3.8-0.4,5.4-1.4c1.7-1,2.7-2.3,3.2-3.9l3.3-19.1
		h2.9l-4.6,26.4h-2.8L298.9,242.1z"/>
	<path class="st0" d="M318.8,212.3l-1.2,6.8h5.3l-0.4,2.4h-5.3l-2.9,17.6l0,1.5c0,1.8,0.8,2.7,2.4,2.7c0.5,0,1.3,0,2.4-0.2l-0.1,2.4
		c-1,0.3-1.9,0.4-2.9,0.4c-1.7,0-3-0.6-3.7-1.8c-0.8-1.2-1.1-2.9-0.9-5.1l2.9-17.6h-4.7l0.4-2.4h4.7l1.2-6.8H318.8z"/>
	<path class="st0" d="M340.8,245.4l4.2-24h-4.2l0.4-2.4h4.2l0.5-3.6c0.4-2.6,1.4-4.6,3-6c1.6-1.4,3.5-2.1,5.9-2.1
		c0.9,0,2,0.2,3.2,0.5l-0.5,2.4c-0.9-0.2-1.8-0.4-2.6-0.4c-1.6,0-3,0.5-4,1.6c-1.1,1.1-1.7,2.5-2,4.4l-0.5,3.1h6.1l-0.4,2.4h-6.1
		l-4.2,24H340.8z"/>
	<path class="st0" d="M373,242.1c-2.1,2.6-5,3.9-8.7,3.8c-2.5,0-4.3-0.9-5.6-2.7c-1.2-1.8-1.7-4.2-1.3-7.3l2.8-16.9h2.9l-2.8,17
		c-0.1,0.9-0.1,1.8,0,2.6c0.1,1.5,0.6,2.7,1.3,3.5c0.8,0.8,1.9,1.2,3.2,1.3c2,0.1,3.8-0.4,5.4-1.4c1.7-1,2.7-2.3,3.2-3.9l3.3-19.1
		h2.9l-4.6,26.4h-2.8L373,242.1z M364.3,211.4c0-0.6,0.2-1,0.6-1.4c0.4-0.4,0.9-0.6,1.4-0.6c0.6,0,1,0.2,1.4,0.6
		c0.4,0.4,0.5,0.9,0.5,1.4c0,0.5-0.3,1-0.7,1.4c-0.4,0.4-0.9,0.6-1.4,0.6c-0.6,0-1-0.2-1.4-0.5C364.4,212.4,364.2,211.9,364.3,211.4
		z M374.6,211.4c0-0.6,0.3-1,0.7-1.4c0.4-0.4,0.9-0.6,1.4-0.6c0.6,0,1,0.2,1.4,0.6c0.4,0.4,0.5,0.9,0.5,1.4c0,0.6-0.3,1-0.7,1.4
		c-0.4,0.4-0.9,0.6-1.4,0.6c-0.6,0-1-0.2-1.4-0.5C374.7,212.4,374.6,211.9,374.6,211.4z"/>
	<path class="st0" d="M398.9,221.5c-0.6-0.1-1.3-0.2-1.9-0.2c-1.9,0-3.6,0.6-5.1,1.7c-1.5,1.1-2.6,2.6-3.1,4.3l-3.1,18.2h-2.9
		l4.6-26.4h2.9l-0.9,4.2c1-1.6,2.1-2.8,3.5-3.6c1.4-0.8,2.9-1.2,4.5-1.2c0.6,0,1.2,0.1,2,0.3L398.9,221.5z"/>
	<path class="st0" d="M419.8,231l-2.5,14.5h-3l6.2-35.5l11.6,0c3.3,0.1,5.9,1.1,7.7,2.9c1.8,1.9,2.6,4.4,2.3,7.5
		c-0.3,3.3-1.7,5.9-4,7.8c-2.4,1.9-5.4,2.8-9.2,2.8L419.8,231z M420.2,228.4l8.7,0c2.8,0,5.1-0.7,7-2.1c1.8-1.4,2.9-3.4,3.2-5.9
		c0.3-2.4-0.3-4.3-1.5-5.7c-1.3-1.4-3.1-2.1-5.5-2.2l-9,0L420.2,228.4z"/>
	<path class="st0" d="M450.7,223.5c2.5-3.4,5.5-5,9-5c2.5,0.1,4.4,1,5.5,2.7c1.2,1.7,1.6,4.1,1.2,7.1l-2.9,17.2h-2.9l2.9-17.2
		c0.1-0.9,0.1-1.8,0-2.7c-0.3-2.9-1.9-4.4-4.7-4.5c-1.7,0-3.3,0.5-4.8,1.5c-1.5,1-2.8,2.6-3.9,4.7l-3.1,18.1h-2.9l6.5-37.5h2.9
		L450.7,223.5z"/>
	<path class="st0" d="M472.1,232c0.3-2.6,1.1-4.9,2.3-7c1.3-2.1,2.9-3.7,4.7-4.8c1.9-1.1,4-1.6,6.2-1.6c2.2,0,4,0.6,5.6,1.8
		c1.5,1.2,2.7,2.8,3.4,4.8c0.7,2,0.9,4.2,0.7,6.7l0,0.5c-0.5,4.2-2,7.5-4.4,10c-2.5,2.5-5.4,3.7-8.9,3.7c-3,0-5.3-1.1-7.1-3.3
		c-1.8-2.1-2.6-4.9-2.6-8.4l0.1-1.4L472.1,232z M474.9,232.8c-0.2,1.9-0.1,3.7,0.4,5.4c0.5,1.6,1.3,2.9,2.4,3.8
		c1.1,0.9,2.4,1.4,4.1,1.5c1.8,0,3.4-0.4,4.8-1.3c1.5-0.9,2.7-2.2,3.6-3.9c0.9-1.7,1.6-3.6,1.8-5.6l0.1-0.8c0.3-3.1-0.2-5.7-1.5-7.7
		c-1.3-2-3.1-3-5.5-3.1c-2.6-0.1-4.9,0.9-6.8,3c-1.9,2.1-3.1,4.9-3.5,8.3L474.9,232.8z"/>
	<path class="st0" d="M509.4,212.3l-1.2,6.8h5.3l-0.4,2.4h-5.3l-2.9,17.6l0,1.5c0,1.8,0.8,2.7,2.4,2.7c0.5,0,1.3,0,2.4-0.2l-0.1,2.4
		c-1,0.3-1.9,0.4-2.9,0.4c-1.7,0-3-0.6-3.7-1.8c-0.8-1.2-1.1-2.9-0.9-5.1l2.9-17.6h-4.7l0.4-2.4h4.7l1.2-6.8H509.4z"/>
	<path class="st0" d="M515.6,232c0.3-2.6,1.1-4.9,2.3-7c1.3-2.1,2.9-3.7,4.7-4.8c1.9-1.1,4-1.6,6.2-1.6c2.2,0,4,0.6,5.6,1.8
		c1.5,1.2,2.7,2.8,3.4,4.8c0.7,2,0.9,4.2,0.7,6.7l0,0.5c-0.5,4.2-2,7.5-4.4,10c-2.5,2.5-5.4,3.7-8.9,3.7c-3,0-5.3-1.1-7.1-3.3
		c-1.8-2.1-2.6-4.9-2.6-8.4l0.1-1.4L515.6,232z M518.5,232.8c-0.2,1.9-0.1,3.7,0.4,5.4c0.5,1.6,1.3,2.9,2.4,3.8
		c1.1,0.9,2.4,1.4,4.1,1.5c1.8,0,3.4-0.4,4.8-1.3c1.5-0.9,2.7-2.2,3.6-3.9c0.9-1.7,1.6-3.6,1.8-5.6l0.1-0.8c0.3-3.1-0.2-5.7-1.5-7.7
		c-1.3-2-3.1-3-5.5-3.1c-2.6-0.1-4.9,0.9-6.8,3c-1.9,2.1-3.1,4.9-3.5,8.3L518.5,232.8z"/>
	<path class="st0" d="M550.1,219l-0.9,4.5c1.2-1.6,2.5-2.9,4.1-3.7c1.5-0.9,3.2-1.3,4.9-1.3c2.5,0.1,4.4,1,5.5,2.7
		c1.2,1.7,1.6,4.1,1.2,7.1l-2.9,17.2h-2.9l2.9-17.2c0.1-0.9,0.1-1.8,0-2.7c-0.3-2.9-1.9-4.4-4.7-4.5c-1.7,0-3.3,0.5-4.8,1.5
		c-1.5,1-2.8,2.6-3.9,4.7l-3.1,18.1h-2.9l4.6-26.4H550.1z"/>
	<path class="st0" d="M573.3,245.4h-2.9L575,219h2.9L573.3,245.4z M575.8,211.4c0.1-1.1,0.8-1.7,2.1-2c0.6,0.1,1.1,0.3,1.4,0.6
		c0.3,0.3,0.4,0.8,0.5,1.4c-0.2,0.6-0.4,1.1-0.7,1.4c-0.3,0.3-0.8,0.5-1.4,0.6C576.3,213.2,575.7,212.5,575.8,211.4z"/>
	<path class="st0" d="M591.8,243.5c1.9,0.1,3.6-0.5,5.1-1.6c1.5-1.1,2.5-2.7,2.9-4.6h2.8c-0.5,2.6-1.8,4.7-3.8,6.3
		c-2.1,1.6-4.4,2.4-7.1,2.3c-2.1,0-3.9-0.6-5.4-1.8c-1.4-1.1-2.5-2.7-3.1-4.7c-0.6-2-0.9-4.2-0.6-6.7l0.1-1c0.2-1.7,0.6-3.4,1.3-5
		c0.6-1.6,1.5-3,2.6-4.3c1.1-1.2,2.4-2.2,3.8-3c1.5-0.7,3.2-1.1,5-1c2.7,0.1,4.8,1,6.4,2.7c1.6,1.8,2.3,4,2.2,6.7l-2.8,0
		c0-2-0.5-3.7-1.6-4.9c-1.1-1.3-2.6-1.9-4.5-2c-2-0.1-3.8,0.5-5.3,1.8c-1.5,1.2-2.7,3-3.5,5.2c-0.8,2.3-1.1,4.7-1.1,7.2
		c0,2.6,0.6,4.6,1.8,6C588.1,242.7,589.7,243.4,591.8,243.5z"/>
	<path class="st0" d="M623.9,238.5c0.3-2.2-1.1-3.9-4.1-4.9l-4.2-1.2c-3.9-1.3-5.7-3.5-5.5-6.5c0.1-2.2,1.1-4,3-5.4
		c1.9-1.4,4.2-2,6.8-2c2.6,0,4.7,0.8,6.3,2.2c1.6,1.4,2.4,3.3,2.2,5.7h-2.9c0.1-1.6-0.4-2.9-1.5-3.9c-1.1-1-2.5-1.5-4.3-1.5
		c-1.9,0-3.4,0.4-4.7,1.3c-1.3,0.9-2,2-2.1,3.5c-0.2,2.1,1,3.6,3.9,4.4l3.1,0.9l1.6,0.6c3.7,1.4,5.4,3.6,5.2,6.8
		c-0.1,2.1-1,3.9-2.7,5.2c-1.7,1.4-3.9,2.1-6.6,2.3l-1,0c-1.8,0-3.4-0.4-4.8-1c-1.4-0.7-2.5-1.6-3.3-2.8c-0.8-1.2-1.1-2.6-1-4.1
		l2.9,0c0,1.7,0.6,3,1.7,3.9c1.1,1,2.7,1.5,4.6,1.5c2,0,3.6-0.4,5-1.3C622.9,241.2,623.7,240,623.9,238.5z"/>
	<path class="st0" d="M663.8,242.1c-2.1,2.6-5,3.9-8.7,3.8c-2.5,0-4.3-0.9-5.6-2.7c-1.2-1.8-1.7-4.2-1.3-7.3l2.8-16.9h2.9l-2.8,17
		c-0.1,0.9-0.1,1.8,0,2.6c0.1,1.5,0.6,2.7,1.3,3.5c0.8,0.8,1.9,1.2,3.2,1.3c2,0.1,3.8-0.4,5.4-1.4c1.7-1,2.7-2.3,3.2-3.9l3.3-19.1
		h2.9l-4.6,26.4h-2.8L663.8,242.1z"/>
	<path class="st0" d="M681,219l-0.9,4.5c1.2-1.6,2.5-2.9,4.1-3.7c1.5-0.9,3.2-1.3,4.9-1.3c2.5,0.1,4.4,1,5.5,2.7
		c1.2,1.7,1.6,4.1,1.2,7.1l-2.9,17.2h-2.9l2.9-17.2c0.1-0.9,0.1-1.8,0-2.7c-0.3-2.9-1.9-4.4-4.7-4.5c-1.7,0-3.3,0.5-4.8,1.5
		c-1.5,1-2.8,2.6-3.9,4.7l-3.1,18.1h-2.9l4.6-26.4H681z"/>
	<path class="st0" d="M702,232.2c0.4-2.8,1.1-5.2,2.3-7.4c1.1-2.1,2.5-3.7,4.2-4.8c1.7-1,3.5-1.5,5.6-1.5c1.6,0,3,0.4,4.3,1.1
		c1.3,0.7,2.3,1.7,3.1,3.1l2.7-14.8h2.9l-6.5,37.5h-2.7l0.7-3.5c-2.3,2.8-5.1,4.1-8.5,4c-2.5-0.1-4.4-1-5.8-2.9
		c-1.4-1.8-2.1-4.3-2.2-7.5c0-1,0-2,0.1-2.9L702,232.2z M705,232.6c-0.1,1.1-0.2,2.2-0.1,3.5c0.1,2.2,0.6,4,1.6,5.2
		c1,1.3,2.3,1.9,4.1,2c1.8,0,3.4-0.4,4.8-1.2s2.5-2,3.5-3.5l2.1-12.4c-0.5-1.6-1.2-2.8-2.3-3.7c-1.1-0.9-2.5-1.4-4.1-1.4
		c-2.5-0.1-4.5,0.9-6.2,2.8c-1.7,2-2.7,4.7-3.2,8.2L705,232.6z"/>
	<path class="st0" d="M758.6,230.6h-10l-2.6,14.8h-3l6.2-35.5l10.5,0c3.5,0,6.3,0.9,8.2,2.8c1.9,1.8,2.7,4.3,2.4,7.5
		c-0.2,2.4-1.1,4.4-2.7,6.2c-1.5,1.7-3.6,3-6.1,3.8l6.1,15l0,0.3h-3.2L758.6,230.6z M749,228.1l8.8,0c2.5,0,4.7-0.7,6.4-2.2
		c1.8-1.5,2.8-3.4,3.1-5.8c0.3-2.3-0.2-4.1-1.5-5.5c-1.3-1.4-3.2-2.1-5.7-2.2l-8.4,0L749,228.1z"/>
	<path class="st0" d="M774.5,232c0.3-2.6,1.1-4.9,2.3-7c1.3-2.1,2.9-3.7,4.7-4.8c1.9-1.1,4-1.6,6.2-1.6c2.2,0,4,0.6,5.6,1.8
		c1.5,1.2,2.7,2.8,3.4,4.8c0.7,2,0.9,4.2,0.7,6.7l0,0.5c-0.5,4.2-2,7.5-4.4,10c-2.5,2.5-5.4,3.7-8.9,3.7c-3,0-5.3-1.1-7.1-3.3
		c-1.8-2.1-2.6-4.9-2.6-8.4l0.1-1.4L774.5,232z M777.4,232.8c-0.2,1.9-0.1,3.7,0.4,5.4c0.5,1.6,1.3,2.9,2.4,3.8
		c1.1,0.9,2.4,1.4,4.1,1.5c1.8,0,3.4-0.4,4.8-1.3c1.5-0.9,2.7-2.2,3.6-3.9c0.9-1.7,1.6-3.6,1.8-5.6l0.1-0.8c0.3-3.1-0.2-5.7-1.5-7.7
		c-1.3-2-3.1-3-5.5-3.1c-2.6-0.1-4.9,0.9-6.8,3c-1.9,2.1-3.1,4.9-3.5,8.3L777.4,232.8z"/>
	<path class="st0" d="M824.6,232.3c-0.6,4.2-1.9,7.5-4,10c-2.1,2.5-4.7,3.7-7.8,3.6c-1.7,0-3.2-0.4-4.6-1.1c-1.3-0.7-2.3-1.7-3-3
		l-0.8,3.6h-2.7l6.5-37.5h2.9l-2.8,14.9c2.3-3,5.1-4.4,8.6-4.3c2.5,0.1,4.5,1,5.8,2.8s2.1,4.3,2.1,7.5c0,1,0,2-0.1,3L824.6,232.3z
		 M821.7,231.8l0.2-2.3c0-2.6-0.4-4.7-1.4-6.1s-2.4-2.2-4.4-2.3c-3.6-0.1-6.4,1.7-8.4,5.4l-2,11.9c0.5,1.6,1.3,2.8,2.4,3.6
		c1.1,0.9,2.5,1.3,4.2,1.4c2.4,0,4.5-0.9,6.1-2.8C820.1,238.7,821.2,235.7,821.7,231.8z"/>
	<path class="st0" d="M829.9,232c0.3-2.6,1.1-4.9,2.3-7c1.3-2.1,2.9-3.7,4.7-4.8c1.9-1.1,4-1.6,6.2-1.6c2.2,0,4,0.6,5.6,1.8
		c1.5,1.2,2.7,2.8,3.4,4.8c0.7,2,0.9,4.2,0.7,6.7l0,0.5c-0.5,4.2-2,7.5-4.4,10c-2.5,2.5-5.4,3.7-8.9,3.7c-3,0-5.3-1.1-7.1-3.3
		c-1.8-2.1-2.6-4.9-2.6-8.4l0.1-1.4L829.9,232z M832.7,232.8c-0.2,1.9-0.1,3.7,0.4,5.4c0.5,1.6,1.3,2.9,2.4,3.8
		c1.1,0.9,2.4,1.4,4.1,1.5c1.8,0,3.4-0.4,4.8-1.3c1.5-0.9,2.7-2.2,3.6-3.9c0.9-1.7,1.6-3.6,1.8-5.6l0.1-0.8c0.3-3.1-0.2-5.7-1.5-7.7
		c-1.3-2-3.1-3-5.5-3.1c-2.6-0.1-4.9,0.9-6.8,3c-1.9,2.1-3.1,4.9-3.5,8.3L832.7,232.8z"/>
	<path class="st0" d="M867.2,212.3L866,219h5.3l-0.4,2.4h-5.3l-2.9,17.6l0,1.5c0,1.8,0.8,2.7,2.4,2.7c0.5,0,1.3,0,2.4-0.2l-0.1,2.4
		c-1,0.3-1.9,0.4-2.9,0.4c-1.7,0-3-0.6-3.7-1.8c-0.8-1.2-1.1-2.9-0.9-5.1l2.9-17.6H858l0.4-2.4h4.7l1.2-6.8H867.2z"/>
	<path class="st0" d="M876.4,245.4h-2.9l4.6-26.4h2.9L876.4,245.4z M878.9,211.4c0.1-1.1,0.8-1.7,2.1-2c0.6,0.1,1.1,0.3,1.4,0.6
		c0.3,0.3,0.4,0.8,0.5,1.4c-0.2,0.6-0.4,1.1-0.7,1.4c-0.3,0.3-0.8,0.5-1.4,0.6C879.5,213.2,878.9,212.5,878.9,211.4z"/>
	<path class="st0" d="M894.9,243.5c1.9,0.1,3.6-0.5,5.1-1.6c1.5-1.1,2.5-2.7,2.9-4.6h2.8c-0.5,2.6-1.8,4.7-3.8,6.3
		c-2.1,1.6-4.4,2.4-7.1,2.3c-2.1,0-3.9-0.6-5.4-1.8c-1.4-1.1-2.5-2.7-3.1-4.7c-0.6-2-0.9-4.2-0.6-6.7l0.1-1c0.2-1.7,0.6-3.4,1.3-5
		c0.6-1.6,1.5-3,2.6-4.3c1.1-1.2,2.4-2.2,3.8-3c1.5-0.7,3.2-1.1,5-1c2.7,0.1,4.8,1,6.4,2.7c1.6,1.8,2.3,4,2.2,6.7l-2.8,0
		c0-2-0.5-3.7-1.6-4.9c-1.1-1.3-2.6-1.9-4.5-2c-2-0.1-3.8,0.5-5.3,1.8c-1.5,1.2-2.7,3-3.5,5.2c-0.8,2.3-1.1,4.7-1.1,7.2
		c0,2.6,0.6,4.6,1.8,6C891.3,242.7,892.9,243.4,894.9,243.5z"/>
	<path class="st0" d="M927,238.5c0.3-2.2-1.1-3.9-4.1-4.9l-4.2-1.2c-3.9-1.3-5.7-3.5-5.5-6.5c0.1-2.2,1.1-4,3-5.4
		c1.9-1.4,4.2-2,6.8-2c2.6,0,4.7,0.8,6.3,2.2c1.6,1.4,2.4,3.3,2.2,5.7h-2.9c0.1-1.6-0.4-2.9-1.5-3.9c-1.1-1-2.5-1.5-4.3-1.5
		c-1.9,0-3.4,0.4-4.7,1.3c-1.3,0.9-2,2-2.1,3.5c-0.2,2.1,1,3.6,3.9,4.4l3.1,0.9l1.6,0.6c3.7,1.4,5.4,3.6,5.2,6.8
		c-0.1,2.1-1,3.9-2.7,5.2c-1.7,1.4-3.9,2.1-6.6,2.3l-1,0c-1.8,0-3.4-0.4-4.8-1c-1.4-0.7-2.5-1.6-3.3-2.8c-0.8-1.2-1.1-2.6-1-4.1
		l2.9,0c0,1.7,0.6,3,1.7,3.9c1.1,1,2.7,1.5,4.6,1.5c2,0,3.6-0.4,5-1.3C926,241.2,926.8,240,927,238.5z"/>
</g>
</svg>
