<?xml version="1.0" encoding="utf-8"?>
<!-- Generator: Adobe Illustrator 25.2.1, SVG Export Plug-In . SVG Version: 6.00 Build 0)  -->
<svg version="1.1" id="Ebene_1" xmlns="http://www.w3.org/2000/svg" xmlns:xlink="http://www.w3.org/1999/xlink" x="0px" y="0px"
	 viewBox="0 0 598.86 79.55" style="enable-background:new 0 0 598.86 79.55;" xml:space="preserve">
<style type="text/css">
	.st0{fill:#3C3C3C;}
</style>
<g>
	<path class="st0" d="M475.64,35.01c0,10.64-8.01,19.3-18.93,19.3l-1.13,7.37h1.13c14.4,0,25.69-12.06,25.69-26.67H475.64z"/>
	<path class="st0" d="M482.39,21.86c-4.7-0.26-10.56,3.1-9.56,13.15h-7.51c0-10.74,4.74-18.3,17.78-17.75L482.39,21.86z
		 M446.02,21.86c4.7-0.26,10.56,3.1,9.56,13.15h7.51c0-10.74-4.74-18.3-17.78-17.75L446.02,21.86z M355.64,56.92
		c0,1.94,2.13,2.47,3.99,2.47c1.97,0,3.99-0.68,3.99-2.54c0-1.37-1.18-2.13-5.96-2.54C356.28,55.13,355.64,55.97,355.64,56.92z
		 M359.66,37.97c-1.56,0-2.81,1.21-2.81,2.73c0,1.48,1.06,2.77,2.81,2.77c1.59,0,2.77-1.25,2.77-2.77
		C362.43,39.26,361.18,37.97,359.66,37.97z M371.05,39.41l-3.68-0.23c0.42,0.8,0.76,1.63,0.76,2.51c0,3.95-4.4,5.66-8.01,5.66
		c-1.18,0-2.62-0.15-2.73-0.15c-0.11,0-0.49,0.46-0.49,0.91c0,0.76,0.84,1.03,2.24,1.14c4.44,0.38,10.63,1.06,10.63,6.76
		c0,5.58-5.88,7.71-10.67,7.71c-3.61,0-9.6-0.65-9.6-5.47c0-1.9,1.56-3.49,4.1-4.56v-0.08c-2.73-0.57-3.76-1.52-3.76-3
		c0-2.28,2.92-3.87,4.78-4.48c-2.16-1.18-3.45-2.7-3.45-5.2c0-4.78,4.25-6.61,8.47-6.61c1.59,0,3.68,0.27,5.09,1.06l6.34-0.38V39.41
		z M380.19,54.14l0.11-11.05c0-0.38,1.71-2.24,3.91-2.24c0.99,0,1.71,0.19,2.35,0.38l0.87-6.53c-0.68-0.15-1.44-0.23-2.16-0.23
		c-2.58,0-3.87,1.59-4.86,3.23h-0.08v-2.7h-6.61l-0.15,19.13H380.19z M388.83,37.52c3.3-2.01,6.26-3.19,10.17-3.19
		c3.53,0,5.85,1.75,5.85,5.39v9.26c0,0.72,0.27,1.29,1.1,1.29c0.3,0,0.61-0.08,0.8-0.23l0.72,3.61c-0.87,0.68-3.95,1.18-5.09,1.18
		c-1.78,0-3-0.68-3.26-2.09c-1.48,1.18-3.53,2.09-5.54,2.09c-3.46,0-6-2.05-6-5.5c0-3.95,2.2-5.43,6.3-6.49
		c1.18-0.3,3.04-0.61,4.82-0.76v-0.72c0-1.52-0.87-2.24-2.13-2.24c-2.01,0-3.8,1.21-5.5,2.09L388.83,37.52z M398.7,45.34
		c-0.27,0.04-0.61,0.11-1.14,0.15c-1.67,0.11-3.83,0.95-3.83,3.07c0,1.29,1.25,1.94,2.32,1.94c1.33,0,2.66-0.83,2.66-1.25V45.34z
		 M421.59,47.39c-0.87,0.84-2.39,1.75-3.45,1.75c-1.97,0-2.39-1.21-2.39-2.77c0-3.95,0.04-7.67,0.08-11.35h-6.61
		c-0.04,4.21-0.08,8.43-0.08,12.34c0,5.24,2.2,7.48,6.26,7.48c2.35,0,4.67-1.29,6.19-2.77v2.09h6.61l0.15-19.13h-6.61L421.59,47.39z
		 M432.47,25.67h6.61l-0.11,10.44c1.18-1.06,3.3-1.78,5.05-1.78c5.81,0,8.73,5.01,8.73,9.68c0,5.96-3.57,10.82-9.72,10.82
		c-2.01,0-3.61-0.65-4.48-1.56h-0.08v0.87h-6.19L432.47,25.67z M438.62,48.98c0.68,0.76,2.09,1.06,3.08,1.06
		c3.07,0,4.44-2.47,4.44-5.39c0-2.58-0.99-4.86-3.95-4.86c-1.25,0-2.47,0.53-3.42,1.33L438.62,48.98z M492.47,54.14l0.15-12.38
		c0.87-0.84,2.39-1.75,3.45-1.75c1.97,0,2.39,1.21,2.39,2.77c0,3.95-0.04,7.67-0.08,11.35H505c0.04-4.21,0.08-8.43,0.08-12.34
		c0-5.24-2.2-7.48-6.26-7.48c-2.35,0-4.67,1.29-6.19,2.77v-2.09h-6.61l-0.15,19.13H492.47z M559.14,54.14l0.15-12.38
		c0.87-0.84,2.39-1.75,3.46-1.75c1.97,0,2.39,1.21,2.39,2.77c0,3.95-0.04,7.67-0.08,11.35h6.61c0.04-4.21,0.08-8.43,0.08-12.34
		c0-5.24-2.2-7.48-6.26-7.48c-2.35,0-4.67,1.29-6.19,2.77v-2.09h-6.61l-0.15,19.13H559.14z M527.73,54.14h-6.26v-1.37
		c-1.37,1.1-3.45,2.05-5.35,2.05c-5.81,0-8.73-5.01-8.73-9.68c0-5.96,3.57-10.82,9.72-10.82c1.56,0,3.08,0.38,4.33,1.02l0.08-9.68
		h6.38L527.73,54.14z M521.5,40.17c-0.68-0.76-2.09-1.06-3.07-1.06c-3.08,0-4.44,2.47-4.44,5.39c0,2.58,0.99,4.86,3.95,4.86
		c1.25,0,2.47-0.53,3.42-1.33L521.5,40.17z M548.87,51.98c-2.24,1.9-5.66,2.85-8.69,2.85c-6.95,0-10.1-4.94-10.1-9.83
		c0-5.77,4.33-10.67,10.29-10.67c7.29,0,9.57,5.16,9.57,11.73h-13.25c0,1.48,0.95,3.99,4.59,3.99c2.32,0,3.61-0.68,5.39-1.9
		L548.87,51.98z M544.01,42.19c0-1.97-0.95-3.76-3.15-3.76c-2.09,0-3.68,1.86-4.1,3.76H544.01z"/>
</g>
<path class="st0" d="M22.42,54.3c-1.89,0-4.08-0.08-6.62-0.12V28.2c1.89-0.04,4.47-0.12,7.58-0.12c5.58,0,8.32,2.35,8.32,6.24
	c0,2.73-1.62,5.08-4.47,6.04v0.08c3.16,0.42,5.27,2.77,5.27,5.97C32.51,49.95,30.12,54.3,22.42,54.3z M22.8,30.89
	c-1.23,0-2.46,0.04-3.46,0.08v8.43c0.73,0.04,1.42,0.04,2.35,0.04c4.27,0,6.31-1.69,6.31-4.54C28,32.58,26.77,30.89,22.8,30.89z
	 M21.76,42.09c-0.42,0-1.81,0-2.43,0.04v9.12c0.69,0.08,2.19,0.19,3.31,0.19c4.23,0,6.12-2.12,6.12-4.85
	C28.77,43.33,26,42.09,21.76,42.09z"/>
<path class="st0" d="M37.37,54.18v-16.4c-0.92-0.15-2.23-0.31-3.35-0.39v-2.08c1.92-0.23,4.58-0.39,6.81-0.27v19.13H37.37z
	 M39.11,31.24c-1.27,0-2.31-0.96-2.31-2.23s1.04-2.27,2.31-2.27c1.27,0,2.31,1,2.31,2.27C41.42,30.24,40.38,31.24,39.11,31.24z"/>
<path class="st0" d="M46.8,54.18V28.81c-0.92-0.15-2.23-0.31-3.35-0.38v-2.08c1.92-0.23,4.58-0.38,6.81-0.27v28.1H46.8z"/>
<path class="st0" d="M67.16,54.18c0-1.08,0.08-2.77,0.31-3.89l-0.08-0.04c-1.08,2.58-3.43,4.27-6.43,4.27
	c-4.7,0-7.04-3.43-7.04-9.01c0-6.7,3.85-10.74,9.89-10.74c1.04,0,2.08,0.08,3.23,0.19v-6.16c-0.92-0.15-2.23-0.31-3.35-0.38v-2.08
	c1.92-0.23,4.58-0.38,6.81-0.27v25.37c0.92,0.15,2.23,0.31,3.35,0.38v2.08C71.93,54.14,69.27,54.3,67.16,54.18z M67.04,37.94
	c-1.15-0.27-2.31-0.42-3.39-0.42c-3.66,0-6.08,2.19-6.08,7.7c0,4.12,1.35,6.47,4.23,6.47c3.46,0,5.24-4.04,5.24-7.39V37.94z"/>
<path class="st0" d="M90.76,44.56H78.25c-0.15,5,1.89,7.16,6.04,7.16c1.85,0,3.77-0.38,5.47-1.12l0.5,2.73
	c-1.92,0.77-4.23,1.19-6.62,1.19c-5.81,0-8.97-3.08-8.97-9.82c0-5.7,3.2-10.01,8.62-10.01c5.35,0,7.58,3.58,7.58,7.85
	C90.87,43.02,90.83,43.79,90.76,44.56z M83.06,37.32c-2.5,0-4.27,1.85-4.7,4.77h8.97C87.41,39.17,85.75,37.32,83.06,37.32z"/>
<path class="st0" d="M107.66,54.18V41.86c0-2.69-0.73-4.31-3.27-4.31c-3.16,0-5.43,3.23-5.43,7.47v9.16h-3.46v-16.4
	c-0.92-0.15-2.23-0.31-3.35-0.39v-2.08c1.92-0.23,4.58-0.39,6.7-0.27c0,1.12-0.08,2.89-0.31,4.04h0.08
	c1.12-2.62,3.46-4.39,6.74-4.39c4.39,0,5.77,2.73,5.77,6.12v13.36H107.66z"/>
<path class="st0" d="M136.3,54.18c0-1.12,0.12-2.85,0.31-4.04h-0.08c-1.12,2.62-3.46,4.39-6.74,4.39c-4.39,0-5.74-2.73-5.74-6.12
	V37.78c-0.92-0.15-2.23-0.31-3.35-0.39v-2.08c2-0.23,4.66-0.39,6.78-0.27v12.32c0,2.7,0.77,4.31,3.27,4.31
	c3.16,0,5.47-3.23,5.47-7.47v-9.16h3.43v16.4c0.92,0.15,2.23,0.31,3.35,0.38v2.08C141.08,54.14,138.42,54.3,136.3,54.18z"/>
<path class="st0" d="M158.67,54.18V41.86c0-2.69-0.73-4.31-3.27-4.31c-3.16,0-5.43,3.23-5.43,7.47v9.16h-3.46v-16.4
	c-0.92-0.15-2.23-0.31-3.35-0.39v-2.08c1.92-0.23,4.58-0.39,6.7-0.27c0,1.12-0.08,2.89-0.31,4.04h0.08
	c1.12-2.62,3.46-4.39,6.74-4.39c4.39,0,5.77,2.73,5.77,6.12v13.36H158.67z"/>
<path class="st0" d="M178.77,54.18c0-1.08,0.08-2.77,0.31-3.89L179,50.25c-1.08,2.58-3.43,4.27-6.43,4.27
	c-4.7,0-7.04-3.43-7.04-9.01c0-6.7,3.85-10.74,9.89-10.74c1.04,0,2.08,0.08,3.23,0.19v-6.16c-0.92-0.15-2.23-0.31-3.35-0.38v-2.08
	c1.92-0.23,4.58-0.38,6.81-0.27v25.37c0.92,0.15,2.23,0.31,3.35,0.38v2.08C183.54,54.14,180.88,54.3,178.77,54.18z M178.65,37.94
	c-1.15-0.27-2.31-0.42-3.39-0.42c-3.66,0-6.08,2.19-6.08,7.7c0,4.12,1.35,6.47,4.23,6.47c3.46,0,5.24-4.04,5.24-7.39V37.94z"/>
<path class="st0" d="M207.2,29.08c-0.89-0.31-1.89-0.42-2.81-0.42c-2.73,0-3.93,1.54-3.93,4.93v1.46h5.31v2.69h-5.31v16.44h-3.46
	V37.74h-3.93v-2.69h3.93v-1.42c0-5.27,2.58-7.78,7.35-7.78c1.08,0,2.12,0.12,3.16,0.35L207.2,29.08z"/>
<path class="st0" d="M214.93,54.53c-5.2,0-8.58-3-8.58-9.74c0-5.62,3.54-10.09,9.32-10.09c4.89,0,8.62,2.69,8.62,9.59
	C224.29,50.06,220.59,54.53,214.93,54.53z M215.36,37.59c-2.73,0-5.39,2.12-5.39,6.85c0,4.62,1.89,7.16,5.39,7.16
	c2.85,0,5.31-2.23,5.31-7.12C220.67,40.13,218.9,37.59,215.36,37.59z"/>
<path class="st0" d="M238.3,38.13c-4.23-0.81-6.16,2.23-6.16,8.35v7.7h-3.46v-16.4c-0.92-0.15-2.23-0.31-3.35-0.39v-2.08
	c1.92-0.23,4.58-0.39,6.7-0.27c0,1.19-0.12,2.96-0.42,4.54h0.08c0.81-2.66,2.73-5.31,6.78-4.85L238.3,38.13z"/>
<path class="st0" d="M244.15,54.53c-1.46,0-3.04-0.15-4.23-0.5l0.31-3.08c1.23,0.5,2.81,0.77,4.23,0.77c2.46,0,4.16-1.12,4.16-2.93
	c0-4.31-8.89-1.62-8.89-8.35c0-3.27,2.54-5.74,7.62-5.74c1.16,0,2.54,0.15,3.7,0.38l-0.27,2.85c-1.12-0.35-2.46-0.58-3.73-0.58
	c-2.54,0-3.73,1.08-3.73,2.73c0,4.23,8.93,1.81,8.93,8.31C252.24,51.91,249.16,54.53,244.15,54.53z"/>
<path class="st0" d="M262.71,54.49c-4.58,0-8.39-2.19-8.39-9.24c0-6.16,3.16-10.51,9.32-10.51c1.73,0,3.39,0.31,4.7,0.81l-0.65,2.96
	c-1.19-0.5-2.77-0.89-4.35-0.89c-3.46,0-5.35,2.96-5.35,7.16c0,3.73,1.19,6.7,5.43,6.7c1.62,0,3.16-0.31,4.47-0.92l0.54,2.89
	C266.79,54.1,264.67,54.49,262.71,54.49z"/>
<path class="st0" d="M283.77,54.18V41.86c0-2.69-0.73-4.31-3.23-4.31c-3.16,0-5.47,3.23-5.47,7.47v9.16h-3.46V28.81
	c-0.92-0.15-2.23-0.31-3.35-0.38v-2.08c1.92-0.23,4.58-0.38,6.81-0.27v9.09c0,1.23-0.08,2.77-0.31,3.81l0.08,0.04
	c1.12-2.62,3.46-4.31,6.66-4.31c4.35,0,5.74,2.73,5.74,6.12v13.36H283.77z"/>
<path class="st0" d="M306.75,44.56h-12.51c-0.15,5,1.89,7.16,6.04,7.16c1.85,0,3.77-0.38,5.47-1.12l0.5,2.73
	c-1.92,0.77-4.23,1.19-6.62,1.19c-5.81,0-8.97-3.08-8.97-9.82c0-5.7,3.2-10.01,8.62-10.01c5.35,0,7.58,3.58,7.58,7.85
	C306.87,43.02,306.83,43.79,306.75,44.56z M299.05,37.32c-2.5,0-4.27,1.85-4.7,4.77h8.97C303.4,39.17,301.75,37.32,299.05,37.32z"/>
<path class="st0" d="M323.65,54.18V41.86c0-2.69-0.73-4.31-3.27-4.31c-3.16,0-5.43,3.23-5.43,7.47v9.16h-3.46v-16.4
	c-0.92-0.15-2.23-0.31-3.35-0.39v-2.08c1.92-0.23,4.58-0.39,6.7-0.27c0,1.12-0.08,2.89-0.31,4.04h0.08
	c1.12-2.62,3.46-4.39,6.74-4.39c4.39,0,5.77,2.73,5.77,6.12v13.36H323.65z"/>
<path class="st0" d="M333.32,54.53c-1.31,0-2.39-1.08-2.39-2.39c0-1.31,1.08-2.39,2.39-2.39c1.35,0,2.39,1.08,2.39,2.39
	C335.71,53.45,334.67,54.53,333.32,54.53z"/>
<g>
</g>
<g>
</g>
<g>
</g>
<g>
</g>
<g>
</g>
<g>
</g>
</svg>
